<?xml version="1.0" standalone="no"?>
<!DOCTYPE svg PUBLIC "-//W3C//DTD SVG 1.1//EN" "http://www.w3.org/Graphics/SVG/1.1/DTD/svg11.dtd" >
<svg xmlns="http://www.w3.org/2000/svg">
<metadata></metadata>
<defs>
<font id="bodoni_stdbold" horiz-adv-x="1024" >
<font-face units-per-em="2048" ascent="1430" descent="-618" />
<missing-glyph horiz-adv-x="624" />
<glyph unicode="&#xfb01;" horiz-adv-x="1138" d="M12 0v61h140v693h-140v57h144q16 160 54 271.5t99.5 182t146.5 102.5t195 32q41 0 92.5 -10.5t95.5 -33t74.5 -59t30.5 -90.5q0 -59 -39 -97t-98 -38q-29 0 -55.5 13.5t-45 35t-25.5 50t3 57.5q6 18 16.5 38.5t10.5 39.5q0 29 -29 32.5t-51 3.5q-61 0 -100 -30.5 t-60.5 -76.5t-29 -101.5t-7.5 -104.5v-217h299q35 0 70 1t69 3q35 2 69 3t69 1v-762h118v-57h-514v57h113v697h-293v-697h105v-57h-527z" />
<glyph unicode="&#xfb02;" horiz-adv-x="1138" d="M12 0v57h138v697h-134v57h134q-6 109 25.5 214t94 188t153.5 134.5t202 51.5q29 0 55.5 -6.5t52.5 -12.5q27 -6 53.5 -10t53.5 0l168 29v-1342h118v-57h-508v57h107v697h-293v-697h107v-57h-527zM432 811h293v270q-41 14 -65.5 45t-24.5 76q0 23 6 39t18 33q27 33 9.5 50 t-58.5 17q-29 0 -59.5 -17t-57 -52t-44 -86t-17.5 -117v-258z" />
<glyph horiz-adv-x="2048" />
<glyph horiz-adv-x="2048" />
<glyph unicode="&#xd;" horiz-adv-x="624" />
<glyph unicode=" "  horiz-adv-x="624" />
<glyph unicode="&#x09;" horiz-adv-x="624" />
<glyph unicode="&#xa0;" horiz-adv-x="624" />
<glyph unicode="!" horiz-adv-x="681" d="M166 137q0 33 13.5 63.5t37 54.5t53 37t64.5 13q33 0 64.5 -13t54 -36t37 -53.5t14.5 -65.5q0 -72 -50.5 -120t-119.5 -48q-70 0 -119 50.5t-49 117.5zM172 1178q0 37 9 69.5t29.5 59t52.5 42t77 15.5q39 0 68.5 -15.5t49 -42t29 -59.5t9.5 -69q0 -35 -13.5 -76 t-27.5 -70q-35 -74 -57.5 -152.5t-26.5 -158.5q-4 -70 -6.5 -137.5t0.5 -137.5h-62q2 70 0 137.5t-6 137.5q-4 80 -26.5 158.5t-57.5 152.5q-14 29 -27.5 70t-13.5 76z" />
<glyph unicode="&#x22;" horiz-adv-x="819" d="M131 1251q0 27 5 53.5t17.5 48t33 34t53.5 12.5q49 0 72.5 -33t23.5 -78q0 -29 -3 -52.5t-7 -49.5l-47 -283q-2 -12 -4.5 -27.5t-7.5 -28.5t-14 -23.5t-26 -10.5q-31 0 -39 25.5t-12 48.5zM483 1251q0 27 5.5 53.5t17.5 48t32.5 34t53.5 12.5q49 0 72.5 -33t23.5 -78 q0 -29 -3 -52.5t-7 -49.5l-47 -283q-2 -12 -4 -27.5t-7.5 -28.5t-14.5 -23.5t-25 -10.5q-31 0 -39.5 25.5t-12.5 48.5z" />
<glyph unicode="#" horiz-adv-x="1251" d="M76 416v145h246l59 309h-188v146h215l65 346h150l-66 -346h258l66 346h149l-65 -346h190v-146h-219l-59 -309h194v-145h-221l-78 -416h-145l78 416h-263l-77 -416h-150l78 416h-217zM471 561h260l57 309h-260z" />
<glyph unicode="$" horiz-adv-x="1251" d="M115 262q0 31 10 62.5t30.5 56.5t48 40t62.5 15q131 0 131 -133q0 -23 -3 -38t-11 -28.5t-24.5 -28.5t-41.5 -34q-12 -10 -27.5 -18.5t-19.5 -18.5q-4 -18 20.5 -38.5t60.5 -36t71 -25.5t51 -10v516q-150 45 -233.5 138t-83.5 239q0 63 23.5 124.5t65.5 113.5t97 89 t117 51q8 2 12 13.5t4 26t-1 28.5t-1 25v100h59v-176q45 10 89.5 10t89.5 -2v170h59v-174q49 -8 102.5 -30.5t96.5 -58.5t70.5 -84t27.5 -104q0 -59 -30.5 -99t-92.5 -40q-53 0 -84 37t-31 86q0 33 15.5 56.5t32.5 39.5q12 12 28.5 23.5t16.5 23.5q0 18 -18.5 35t-43 29 t-50.5 20.5t-40 10.5v-480q68 -14 133.5 -46.5t116.5 -82t82 -114t31 -138.5q0 -84 -28 -152.5t-76 -120.5t-114.5 -88t-144.5 -54v-275h-59v269q-43 -10 -88 -10.5t-91 -4.5v-254h-59v254q-61 4 -124.5 24.5t-116 57.5t-85 90.5t-32.5 122.5zM276 1032q0 -41 17.5 -72.5 t46.5 -54t63.5 -38t69.5 -21.5v403q-37 -10 -72.5 -29.5t-63.5 -47t-44.5 -63.5t-16.5 -77zM532 25q45 -6 89.5 -2t89.5 10v454q-45 10 -89 21.5t-90 21.5v-505zM532 834q45 -6 89.5 -16.5t89.5 -20.5v471q-45 4 -89 3t-90 -11v-426zM770 43q45 12 86 29.5t71.5 44t49 64.5 t18.5 89q0 49 -20.5 82t-53 56.5t-72.5 38t-79 26.5v-430z" />
<glyph unicode="%" horiz-adv-x="2048" d="M117 831q0 119 54 213.5t130 160t155 100t128 34.5q72 0 133 -31.5t90 -99.5q41 -16 84 -26.5t88 -10.5q53 0 110.5 17.5t107.5 45.5t87 63.5t51 70.5q10 23 32 23h34h51l-834 -1452h-104l733 1261l-4 4q-59 -41 -127.5 -63.5t-142.5 -22.5q-78 0 -146 21 q12 -90 -14.5 -192.5t-84.5 -189.5t-142 -144.5t-185 -57.5q-61 0 -113 19.5t-90 55.5t-59.5 87t-21.5 114zM352 725q0 -41 32 -72.5t73 -31.5q72 0 131 48t102 118.5t66.5 150.5t23.5 141q0 41 -8 74q-39 23 -71.5 48t-65.5 54q-37 -4 -86 -63t-92 -141t-74 -171t-31 -155z M1126 260q0 109 47.5 202t119 161.5t158.5 107.5t167 39q57 0 100 -19.5t71 -54t41 -82t13 -100.5q0 -86 -30.5 -179t-88 -170t-136.5 -126t-175 -49q-61 0 -113.5 18.5t-91.5 53t-60.5 85t-21.5 113.5zM1366 166q0 -53 25.5 -82t78.5 -29q74 0 133.5 49.5t102.5 121 t66.5 151.5t23.5 141q0 27 -5 56.5t-18.5 56t-35 44t-54.5 17.5q-51 0 -106 -60.5t-102.5 -144.5t-78 -173t-30.5 -148z" />
<glyph unicode="&#x26;" horiz-adv-x="1593" d="M70 340q0 86 37.5 155.5t99 124t137.5 92.5t150 58q-43 70 -73 140.5t-30 156.5q0 66 34 121t89 95t125 62.5t141 22.5q111 0 185.5 -24.5t121 -61.5t65.5 -80t19 -82q0 -59 -31.5 -108t-80.5 -86t-106.5 -61.5t-108.5 -35.5l297 -419q16 25 39.5 63.5t45 81.5t37 85 t15.5 71q0 14 -9 24t-22.5 16.5t-29 9.5t-25.5 3h-117v61h475v-61h-55q-76 0 -106.5 -24.5t-49.5 -71.5q-35 -84 -72.5 -161t-88.5 -153l192 -293h180v-61h-530l-80 125q-96 -78 -216 -117t-243 -39q-80 0 -154.5 27t-132 75t-91 116.5t-33.5 152.5zM375 547q0 -43 8 -83 t31 -77l84 -145q35 -61 82 -104.5t125 -43.5q61 0 108 20.5t92 61.5l-375 539q-61 -12 -108 -57.5t-47 -110.5zM631 1202q0 -39 16.5 -72.5t36.5 -64.5l121 -191q47 27 85 63t42 95v101q0 88 -36 131t-122 43q-23 0 -48.5 -6.5t-47 -18.5t-34.5 -31.5t-13 -48.5z" />
<glyph unicode="'" horiz-adv-x="450" d="M123 1251q0 27 5 53.5t17.5 48t33 34t52.5 12.5q49 0 73 -33t24 -78q0 -29 -3 -52.5t-8 -49.5l-47 -283q-2 -12 -4 -27.5t-7 -28.5t-14 -23.5t-26 -10.5q-31 0 -39 25.5t-12 48.5z" />
<glyph unicode="(" horiz-adv-x="681" d="M63 473q0 143 41 271t111 243t160 217.5t186 194.5l29 -21q-98 -111 -151.5 -210t-79 -200.5t-30.5 -214t-5 -251.5q0 -156 5 -273.5t33.5 -221t88 -206t170.5 -225.5l-43 -27q-98 98 -190.5 198.5t-165 212.5t-116 239t-43.5 274z" />
<glyph unicode=")" horiz-adv-x="681" d="M63 -424q111 123 170.5 225.5t88 206t33.5 221t5 273.5q0 139 -5 251.5t-30.5 214t-78.5 201t-152 209.5l29 21q96 -92 186 -194.5t159 -217.5t111 -243t42 -271q0 -147 -43 -274t-116 -239t-165 -212t-191 -199z" />
<glyph unicode="*" horiz-adv-x="1251" d="M231 1099.5q2 20.5 17 43.5q25 45 61 51q35 8 70 -8.5t57 -44.5q20 -25 28.5 -42.5t20 -36t32 -38.5t65.5 -51q20 -10 20 14q-4 53 -12 82t-17.5 47.5t-20.5 34.5t-24 45q-14 35 -10 74t27 63q25 29 76 29q53 0 75 -29q23 -25 27 -63.5t-10 -73.5q-12 -29 -23.5 -45 t-21 -34.5t-16.5 -47.5t-9 -82q-6 -12 6.5 -19t22.5 1q45 31 65.5 51t31.5 37.5t19.5 35t28.5 42.5q23 29 57.5 46t69.5 9q39 -10 62 -51q25 -45 14 -80q-10 -33 -42 -55.5t-69 -28.5q-31 -4 -51 -3t-40.5 1t-48.5 -8.5t-77 -30.5q-14 -4 -13 -13.5t15 -9.5q49 -23 77 -31 t48.5 -8t41 1t50.5 -3q37 -6 69 -28.5t42 -55.5q10 -37 -14 -79q-25 -45 -62 -52q-35 -8 -69.5 8.5t-57.5 47.5q-20 25 -28.5 42t-19.5 34.5t-31.5 38t-65.5 51.5q-16 14 -27.5 7t-3.5 -24q4 -53 11.5 -81.5t16.5 -47t20 -35t24 -45.5q14 -35 10 -73.5t-27 -63.5 q-12 -12 -31.5 -20.5t-43.5 -8.5q-51 0 -76 29q-23 25 -27 63.5t10 73.5q12 29 23.5 45.5t21 35t16.5 47t11 81.5q4 14 -4 18t-18 -10q-45 -31 -65.5 -51t-32 -37.5t-19.5 -36t-27 -43.5q-25 -29 -59.5 -45t-67.5 -8q-37 6 -63 51q-27 41 -13 80q10 33 41 55.5t70 26.5 q31 4 50.5 3t40 0t48 9.5t76.5 30.5q25 25 2 35q-49 25 -76.5 32t-48 8t-41 0t-51.5 3q-37 6 -68.5 27.5t-42.5 54.5q-4 16 -2 36.5z" />
<glyph unicode="+" d="M59 373v166h371v370h166v-370h371v-166h-371v-371h-166v371h-371z" />
<glyph unicode="," horiz-adv-x="681" d="M139 113q0 74 51.5 126t124.5 52q55 0 98.5 -22.5t72 -60.5t44 -86t15.5 -97q0 -66 -23.5 -127.5t-63.5 -113.5t-93.5 -93t-110.5 -68l-12 53q84 41 144 121t60 178q0 27 -4 54.5t-20 50.5q-10 -53 -51 -82t-95 -29q-59 0 -98 43t-39 101z" />
<glyph unicode="-" horiz-adv-x="681" d="M49 307v209h584v-209h-584z" />
<glyph unicode="." horiz-adv-x="681" d="M147 137q0 33 13.5 63.5t37 54.5t53 37t64.5 13q33 0 65 -13t54.5 -36t36.5 -53.5t14 -65.5q0 -72 -50 -120t-120 -48t-119 50.5t-49 117.5z" />
<glyph unicode="/" horiz-adv-x="569" d="M-12 0l424 1399h170l-422 -1399h-172z" />
<glyph unicode="0" horiz-adv-x="1251" d="M72 682q0 111 40 230.5t112.5 220t174 165t224.5 64.5t224 -64.5t174 -165t113 -220t40 -230.5q0 -115 -39 -241t-111 -230.5t-173 -173t-228 -68.5t-228.5 68.5t-173 173t-110.5 230.5t-39 241zM432 315q0 -84 12.5 -139t37 -90t60.5 -49t81 -14q90 0 140 63.5t50 228.5 v729q0 88 -15.5 140.5t-41 80t-60 36t-73.5 8.5t-74 -8.5t-60.5 -36t-41 -79.5t-15.5 -141v-729z" />
<glyph unicode="1" horiz-adv-x="1251" d="M238 0v61h256v1149q0 35 -21.5 48.5t-58.5 13.5h-176v61h176q96 0 190 10.5t191 18.5v-1301h247v-61h-804z" />
<glyph unicode="2" horiz-adv-x="1251" d="M80 0v182q92 70 181 137.5t181 137.5q76 57 133.5 110.5t94.5 112.5t55 133t18 174q0 57 -15 111.5t-46 97.5t-79 68.5t-111 25.5q-45 0 -94.5 -15t-88.5 -40q-8 -4 -23.5 -16.5t-30.5 -25.5t-26.5 -27.5t-11.5 -24.5q0 -20 19.5 -24.5t31.5 -4.5q72 0 127.5 -35 t55.5 -114q0 -72 -46.5 -108t-113.5 -36q-43 0 -75 16.5t-53.5 44t-31.5 63.5t-10 75q0 68 31.5 130t94 110.5t152.5 76t207 27.5q84 0 170 -18.5t155.5 -60.5t114 -110.5t44.5 -168.5q0 -55 -15.5 -102.5t-42 -88.5t-62.5 -77t-75 -70q-68 -59 -143.5 -111.5t-153.5 -100.5 t-157 -96.5t-152 -99.5h651q35 0 49.5 20.5t18.5 50t2 62.5t2 58h71l-20 -449h-983z" />
<glyph unicode="3" horiz-adv-x="1251" d="M98 225q0 70 35 121t113 51q66 0 114 -36.5t48 -106.5q0 -47 -17.5 -72.5t-38.5 -42.5q-23 -16 -40 -24.5t-17 -24.5q0 -18 27.5 -29.5t62.5 -18.5t67.5 -10t43.5 -3q125 0 189.5 79.5t64.5 219.5q0 190 -73 272t-243 82q-33 0 -61.5 -2t-57.5 -2q-12 0 -17 9t-5 20.5 t4 20.5t14 11q31 4 61.5 5t61.5 6q78 8 129 28.5t81 57t42 91t12 130.5q0 139 -40 193.5t-150 54.5q-12 0 -37 -1t-48.5 -6.5t-42 -16.5t-18.5 -30q0 -10 15.5 -18t34.5 -23q18 -14 33.5 -37.5t15.5 -68.5q0 -66 -41 -103.5t-105 -37.5q-57 0 -97 40.5t-40 98.5 q0 59 27.5 107t79 82t124 52.5t160.5 18.5q70 0 150 -15.5t147.5 -52.5t112.5 -95t45 -144q0 -78 -38 -133.5t-96.5 -92t-128 -59t-132.5 -37.5v-4q82 -14 166 -34.5t152.5 -58.5t111.5 -102.5t43 -166.5t-54.5 -177t-142.5 -124.5t-198.5 -73t-221.5 -23.5 q-90 0 -161.5 23.5t-121.5 61.5t-77 83t-27 88z" />
<glyph unicode="4" horiz-adv-x="1251" d="M45 431q0 11 4 23.5t19 30.5l630 877h203v-930h137q39 0 53.5 13.5t17.5 35t0 48t1 55.5h55v-357h-55q0 51 1 80t-8 43.5t-35 17.5t-77 3h-90v-310h162v-61h-655v61h184v310h-545q2 23 0 36t-2 24zM104 432h488v694z" />
<glyph unicode="5" horiz-adv-x="1251" d="M100 258q0 33 14.5 58.5t37 42t52 25.5t58.5 9q66 0 105 -43t39 -106q0 -45 -16.5 -68.5t-37.5 -38.5q-20 -14 -36.5 -23.5t-16.5 -25.5q0 -8 11.5 -20.5t35 -24.5t57 -20.5t80.5 -8.5q80 0 132.5 26t83 70t43 104t12.5 132q0 193 -74 283t-219 90q-51 0 -101.5 -11.5 t-99.5 -21.5q-23 -4 -33 6t-13 26.5t-2 35t1 34.5l10 418q0 35 4 60.5t14.5 42t33 24.5t59.5 8h518q27 0 44 2.5t27.5 9.5t14.5 23.5t6 46.5h51v-39q0 -78 -9 -132t-31.5 -88t-63.5 -50t-103 -16h-514l-6 -346q150 57 299 57q88 0 183.5 -22.5t175.5 -70.5t132 -123t52 -179 q0 -125 -57.5 -210t-146.5 -137.5t-198.5 -75t-213.5 -22.5q-90 0 -162 22.5t-124 60.5t-80 91.5t-28 114.5z" />
<glyph unicode="6" horiz-adv-x="1251" d="M90 555q0 168 78 313.5t205 254t291.5 172t341.5 67.5v-62q-127 -2 -225.5 -48t-168 -122.5t-109.5 -177t-48 -213.5q59 53 118.5 86t145.5 33q82 0 163 -31.5t143 -87t101 -130t39 -160.5q0 -80 -33.5 -165t-102 -155t-172 -115t-243.5 -45q-131 0 -229 52.5 t-163.5 136.5t-98.5 188.5t-33 208.5zM444 324q0 -84 9.5 -140.5t34 -91.5t65.5 -50t104 -15q98 0 131 64.5t35 203.5v301q0 57 -12 94t-34.5 57.5t-54.5 27.5t-69 7t-74.5 -15t-67.5 -37.5t-48.5 -47.5t-18.5 -43v-315z" />
<glyph unicode="7" horiz-adv-x="1251" d="M137 907l144 455h864v-88l-271 -445q-18 -31 -43.5 -83t-48 -109t-38 -110.5t-15.5 -88.5t13.5 -73.5t29.5 -79.5q16 -39 28.5 -78t12.5 -74q0 -45 -15.5 -76.5t-42 -51t-62.5 -28t-75 -8.5q-92 0 -135 50.5t-43 142.5q0 37 21.5 91t50.5 109.5t60.5 106.5t50.5 82 l338 547h-601q-41 0 -61 -1t-33.5 -17.5t-27 -56.5t-39.5 -116h-62z" />
<glyph unicode="8" horiz-adv-x="1251" d="M70 340q0 86 40 148.5t103 105.5t139 67.5t148 36.5v4q-86 18 -157 45t-121 66t-76.5 91t-26.5 124q0 88 48 150.5t121.5 103.5t161 60.5t164.5 19.5q74 0 161 -19.5t161 -60.5t124 -103.5t50 -150.5q0 -82 -35 -138t-89 -95t-121.5 -60.5t-131.5 -32.5l-4 -4 q72 -12 147.5 -36.5t139 -67.5t103.5 -105.5t40 -148.5q0 -72 -31.5 -139.5t-99 -118.5t-170 -82t-244.5 -31q-141 0 -243.5 31t-170 82t-99 118.5t-31.5 139.5zM416 225q0 -117 48 -159.5t150 -42.5t150.5 43t48.5 159v219q0 16 -9 51t-30.5 71t-60.5 63.5t-99 27.5 q-59 0 -98 -27.5t-61.5 -63.5t-30.5 -70.5t-8 -51.5v-219zM455 891q0 -49 12 -82t33.5 -51.5t50.5 -25.5t63 -7q33 0 63 7t51.5 25.5t33.5 51.5t12 82v237q0 94 -33.5 137.5t-126.5 43.5q-92 0 -125.5 -43t-33.5 -138v-237z" />
<glyph unicode="9" horiz-adv-x="1251" d="M66 891q0 109 50 196t129 148t177 94t196 33q68 0 159 -29.5t172 -98.5t137.5 -181.5t56.5 -280.5q0 -96 -30 -190.5t-80 -177t-119.5 -153.5t-149.5 -122q-133 -84 -262 -120t-275 -40v56q100 -4 190.5 35.5t166.5 101.5q39 31 67.5 65.5t51 82.5t41 115t34.5 163 q-53 -49 -121.5 -84t-142.5 -35q-86 0 -167 33t-143.5 90t-100 134t-37.5 165zM410 739q0 -94 37.5 -144t130.5 -50q37 0 74.5 17.5t69.5 42t51.5 50t19.5 41.5v434q0 80 -51.5 126.5t-166.5 46.5q-78 0 -121.5 -63.5t-43.5 -149.5v-351z" />
<glyph unicode=":" horiz-adv-x="681" d="M170 137q0 33 13.5 63.5t37 54.5t53 37t64.5 13q33 0 64.5 -13t54 -36t37 -53.5t14.5 -65.5q0 -72 -50 -120t-120 -48t-119 50.5t-49 117.5zM170 655q0 33 13.5 64t37 54.5t53 36.5t64.5 13q33 0 64.5 -13t54 -35.5t37 -53.5t14.5 -66q0 -72 -50 -120t-120 -48t-119 50.5 t-49 117.5z" />
<glyph unicode=";" horiz-adv-x="681" d="M168 113q0 74 51 126t125 52q55 0 98 -22.5t72 -60.5t44 -86t15 -97q0 -66 -23.5 -127.5t-63.5 -113.5t-93 -93t-110 -68l-13 53q84 41 144.5 121t60.5 178q0 27 -4 54.5t-20 50.5q-10 -53 -51.5 -82t-94.5 -29q-59 0 -98 43t-39 101zM199 655q0 33 13 64t36.5 54.5 t53.5 36.5t65 13q33 0 64.5 -13t54 -35.5t37 -53.5t14.5 -66q0 -72 -50.5 -120t-119.5 -48q-70 0 -119 50.5t-49 117.5z" />
<glyph unicode="&#x3c;" d="M29 375v160l966 444v-164l-805 -362l805 -357v-162z" />
<glyph unicode="=" d="M59 233v166h908v-166h-908zM59 512v166h908v-166h-908z" />
<glyph unicode="&#x3e;" d="M29 -66v162l805 357l-805 362v164l966 -444v-160z" />
<glyph unicode="?" horiz-adv-x="909" d="M92 1141q0 59 36 110.5t83 83.5q61 41 110.5 52.5t120.5 11.5q74 0 141.5 -22.5t120 -65.5t84 -104.5t31.5 -139.5q0 -63 -17.5 -110.5t-48 -85t-71.5 -69.5t-88 -67q-78 -57 -124 -91t-67.5 -61.5t-22.5 -55t11 -70.5h-53q-12 49 -28.5 109.5t-16.5 109.5q0 88 52 160.5 t116 136.5q63 63 114.5 120.5t51.5 110.5q0 45 -18.5 74t-47.5 45t-66.5 22.5t-74.5 6.5q-18 0 -47 -4.5t-57.5 -14.5t-50 -25.5t-25.5 -39.5q0 -6 7 -9.5t19.5 -7.5t27.5 -13t30 -24q37 -41 36 -94q0 -61 -40.5 -88.5t-96.5 -27.5q-59 0 -95 38.5t-36 98.5zM227 137 q0 33 13.5 63.5t37 54.5t53 37t64.5 13q33 0 65 -13t54.5 -36t36.5 -53.5t14 -65.5q0 -72 -50 -120t-120 -48t-119 50.5t-49 117.5z" />
<glyph unicode="@" horiz-adv-x="1474" d="M63 682q0 152 56.5 283t153 227t226.5 151.5t277 55.5q158 0 278 -50.5t199.5 -132t119.5 -183t40 -202.5q0 -104 -33.5 -200t-105.5 -174q-66 -72 -159 -116t-191 -44q-49 0 -91 24.5t-45 79.5q-43 -41 -96 -70.5t-114 -29.5q-104 0 -156.5 69.5t-52.5 168.5 q0 86 29.5 179t84 171t130 129t169.5 51q80 0 142 -61l10 28h203l-174 -465q-6 -18 -18.5 -47.5t-12.5 -50.5q0 -20 14.5 -28.5t30.5 -8.5q29 0 79 24.5t98 74t84 122t36 168.5q0 39 -18.5 112t-73 144.5t-151.5 125t-253 53.5q-117 0 -221 -44.5t-183 -121t-125 -179 t-46 -221.5q0 -127 45 -233.5t124 -185t185.5 -122.5t228.5 -44q152 0 288 67.5t214 200.5h123q-39 -102 -103.5 -179t-147.5 -128.5t-181 -76t-203 -24.5q-150 0 -279.5 55.5t-226 150.5t-152 225t-55.5 282zM582 485q0 -16 8 -32.5t26 -16.5q25 0 48.5 20.5t44 50.5 t36 60.5t23.5 50.5q10 25 25.5 61t29 72.5t22.5 72.5t9 63q0 18 -7 31.5t-30 13.5q-43 0 -85 -56.5t-75.5 -131t-54 -149.5t-20.5 -110z" />
<glyph unicode="A" horiz-adv-x="1366" d="M4 0v61q18 0 43 1t48.5 6.5t43 17.5t27.5 35l483 1278h80l508 -1338h123v-61h-649v61h157l-110 322h-420l-53 -147q-16 -47 -28.5 -86t-12.5 -54q0 -18 24.5 -26.5t56 -10.5t62.5 0t41 2v-61h-424zM365 444h368l-182 502z" />
<glyph unicode="B" horiz-adv-x="1478" d="M94 1307v61h762q68 0 141.5 -16.5t137 -53t106.5 -94t49 -137.5q1 -10 1 -21q1 -48 -15 -92q-18 -54 -65.5 -99.5t-126 -81.5t-195.5 -58v-4q76 -2 158.5 -22.5t152.5 -62.5t115 -107.5t45 -158.5q0 -111 -64.5 -186.5t-156.5 -120.5q-78 -39 -171.5 -46t-176.5 -7h-691 v61h140v1246h-146zM584 61h241q68 0 100.5 28t44.5 72q11 38 11 83v15q-2 54 -2 110q0 92 -7 153.5t-38 96t-92.5 49t-169.5 14.5h-88v-621zM584 743h88q82 0 133 8.5t79.5 39t40 91t11.5 162.5q0 92 -4 144.5t-25.5 78t-65.5 33t-122 7.5h-135v-564z" />
<glyph unicode="C" horiz-adv-x="1366" d="M109 696q0 63 22.5 140t63.5 156t99 152t130 130t157 91t177 34t175 -25.5t157 -85.5l69 80h70v-381h-60q-29 72 -63.5 135.5t-82.5 111.5t-110.5 75.5t-148.5 27.5q-72 0 -121 -19.5t-78.5 -85t-43 -192.5t-13.5 -344q0 -195 4 -322.5t29.5 -204.5t79 -107.5 t151.5 -30.5q88 0 154.5 28.5t117 79.5t85 120t59.5 147h69v-406h-73l-80 76q-74 -47 -156 -77t-170 -30q-135 0 -257 56.5t-214 153.5t-145 230.5t-53 286.5z" />
<glyph unicode="D" horiz-adv-x="1593" d="M90 0v61h154v1246h-154v61h762q133 0 250 -54t203 -147.5t135 -215.5t49 -257q0 -174 -54.5 -299t-140.5 -208t-190.5 -126t-204.5 -51q-51 -4 -102.5 -7t-104.5 -3h-602zM588 61h194q133 0 199 52.5t92 138.5q14 45 18.5 95t4.5 108v481q0 61 -4.5 102t-9.5 70t-12 47.5 t-13 30.5q-29 66 -90.5 93.5t-184.5 27.5h-194v-1246z" />
<glyph unicode="E" horiz-adv-x="1366" d="M82 0v61h164v1246h-146v61h1121l12 -369h-70q-33 86 -67.5 145.5t-78.5 95.5t-101.5 51.5t-133.5 15.5h-192v-572q76 0 124 12.5t78.5 41t48 75.5t33.5 119h68v-582h-68q-10 74 -27.5 124t-50 81t-81.5 44.5t-125 13.5v-603h201q119 0 193.5 27t119.5 78t70.5 121.5 t46.5 161.5h63l-12 -449h-1190z" />
<glyph unicode="F" horiz-adv-x="1251" d="M51 1307v61h1139l12 -403h-61q-31 100 -66 166.5t-78 105.5t-99 54.5t-130 15.5h-215v-570q76 0 124 12.5t78.5 41t48 75.5t34.5 119h67v-582h-67q-10 74 -27.5 124.5t-50.5 81t-82 44t-125 13.5v-605h192v-61h-690v61h154v1246h-158z" />
<glyph unicode="G" horiz-adv-x="1478" d="M96 664q0 154 57.5 286.5t152.5 233t217 158t253 57.5q86 0 167 -28t151 -75l69 72h72v-395h-72q-20 80 -58 146.5t-86 114.5t-104.5 75.5t-115.5 27.5q-63 0 -110.5 -16t-81.5 -46t-55.5 -71t-33.5 -88t-16 -98t-4 -105v-413q0 -92 5 -186.5t36 -178.5q27 -70 78 -87 t139 -17q102 0 147 47t45 125v258h-176v61h655v-61h-122v-211q0 -12 -17.5 -34.5t-40 -47.5t-45 -45.5t-31.5 -28.5q-31 -25 -67.5 -48t-86.5 -39.5t-118 -27t-160 -10.5q-135 0 -251.5 58.5t-203.5 155t-137.5 222t-50.5 259.5z" />
<glyph unicode="H" horiz-adv-x="1593" d="M68 0v61h149v1246h-149v61h661v-61h-168v-576h451v576h-168v61h682v-61h-170v-1246h170v-61h-682v61h168v609h-451v-609h170v-61h-663z" />
<glyph unicode="I" horiz-adv-x="796" d="M66 0v61h151v1246h-151v61h667v-61h-172v-1246h172v-61h-667z" />
<glyph unicode="J" horiz-adv-x="909" d="M-47 -8q0 70 41 110.5t108 40.5q59 0 100.5 -41t41.5 -100q0 -78 -51 -139q18 -23 67 -23q27 0 44.5 8.5t28.5 50.5t16 128t5 243v1037h-159v61h653v-61h-150v-1047q0 -111 -35.5 -202t-100 -155.5t-156 -100t-199.5 -35.5q-49 0 -95 15t-81 44t-56.5 71t-21.5 95z" />
<glyph unicode="K" horiz-adv-x="1593" d="M76 0v61h157v1246h-153v61h674v-61h-176v-1246h172v-61h-674zM600 721q0 27 21.5 46t40.5 38l417 432q35 35 35 43q0 18 -24.5 22.5t-55.5 4.5h-100v61h498v-61h-150q-23 0 -37 -7.5t-31 -23.5l-356 -371l574 -844h147v-61h-721v61h166l-389 578q-12 18 -23.5 39.5 t-11.5 42.5z" />
<glyph unicode="L" horiz-adv-x="1251" d="M51 0v61h139v1246h-139v61h668v-61h-184v-1246h229q86 0 147.5 33t105.5 87.5t73.5 124t54.5 143.5h57l-20 -449h-1131z" />
<glyph unicode="M" horiz-adv-x="1705" d="M45 0v61h77t57.5 10.5t35.5 36t12 76.5v1123h-182v61h576l237 -825l248 825h555v-61h-170v-1246h170v-61h-682v61h182v1235h-4l-399 -1296h-74l-391 1300h-4v-1116q0 -51 13 -76.5t38 -36t60.5 -10.5h80.5v-61h-436z" />
<glyph unicode="N" horiz-adv-x="1478" d="M61 0v61h99q53 4 63 33t10 74v1012q0 37 1.5 61.5t-7 38.5t-31 20.5t-67.5 6.5h-68v61h541l576 -811v690q0 14 -14.5 25.5t-35 19.5t-44 11.5t-42.5 3.5h-57v61h432v-61h-86q-92 0 -92 -60v-1278h-47l-877 1219v-1051q0 -39 20.5 -55t59.5 -21h117v-61h-451z" />
<glyph unicode="O" horiz-adv-x="1593" d="M96 698q0 174 72 305.5t178.5 219.5t228.5 132t222 44q68 0 145.5 -19.5t155.5 -58.5t150.5 -97.5t128 -136t89 -175t33.5 -214.5q0 -152 -53 -284.5t-147.5 -231t-223.5 -156t-278 -57.5q-150 0 -278 57.5t-222 156t-147.5 231.5t-53.5 284zM502 539q0 -160 6 -259.5 t35.5 -154.5t89 -74.5t164.5 -19.5q104 0 164.5 19.5t89 74.5t36 154.5t7.5 259.5v344q0 139 -14.5 228t-49.5 139t-92 68.5t-141 18.5t-141.5 -18.5t-91.5 -68.5t-48 -139t-14 -228v-344z" />
<glyph unicode="P" horiz-adv-x="1366" d="M78 0v61h153v1246h-149v61h758q131 0 224 -31.5t151.5 -83t86 -113t27.5 -122.5q0 -123 -64.5 -199t-159.5 -118t-204.5 -55t-202.5 -13h-123v-572h185v-61h-682zM575 694h142q135 0 183 50.5t48 152.5v221q0 61 -13 98t-41 56.5t-72 27t-105 7.5h-142v-613z" />
<glyph unicode="Q" horiz-adv-x="1593" d="M96 698q0 174 72 305.5t178.5 219.5t228 132t222.5 44q68 0 145.5 -19.5t155.5 -58.5t150.5 -97.5t128 -136t89 -175t33.5 -214.5q0 -127 -37 -239.5t-104.5 -204.5t-161.5 -158.5t-207 -99.5l-8 -131q-1 -10 -1 -20q0 -87 49 -148q54 -68 173 -68h172v-51 q-43 -10 -89 -14t-91 -4q-188 0 -300 24.5t-172 65.5t-80.5 91t-27.5 103l-16 154q-111 33 -204 99.5t-158.5 158.5t-102.5 204.5t-37 237.5zM502 539q0 -160 6 -259.5t35.5 -154.5t89 -74.5t164.5 -19.5q104 0 164.5 19.5t89 74.5t36 154.5t7.5 259.5v344q0 139 -14.5 228 t-49.5 139t-92 68.5t-141 18.5t-141.5 -18.5t-91.5 -68.5t-48 -139t-14 -228v-344z" />
<glyph unicode="R" horiz-adv-x="1478" d="M68 1307v61h813q76 0 151.5 -18.5t135 -58.5t96 -102.5t36.5 -152.5q0 -84 -47 -140t-116.5 -92t-149.5 -53.5t-143 -23.5v-4q213 -41 308 -128t95 -235q0 -127 7.5 -189t29.5 -85q10 -10 45 -18q11 -2 25 -2q33 0 88 12l12 -43q-49 -27 -116.5 -45.5t-123.5 -18.5 q-94 0 -157.5 22.5t-103.5 73t-58 132.5t-21 200q-2 92 -12 149.5t-33.5 90.5t-63.5 45t-101 12h-89v-635h170v-61h-673v61h159v1246h-163zM575 764h87q78 0 129 7t81.5 27.5t43 55.5t12.5 88v199l1 71q-1 28 -15 48q-16 22 -59.5 34.5t-131.5 12.5h-148v-543z" />
<glyph unicode="S" horiz-adv-x="1138" d="M100 -12v397h74q20 -72 56 -135.5t86.5 -112.5t114 -77.5t140.5 -28.5q86 0 147.5 24.5t101.5 64.5t58.5 88t18.5 97q0 66 -34 105t-90 63.5t-127 39.5t-144 34q-74 18 -145.5 47t-128 78t-90.5 124.5t-34 192.5q0 88 35 163t93.5 130t136 86t166.5 31q74 0 143.5 -25.5 t132.5 -64.5l76 59h63v-362h-65q-12 63 -44 122.5t-78 105.5t-105.5 74.5t-127.5 28.5q-43 0 -90 -12t-87 -36.5t-66.5 -62.5t-26.5 -89q0 -45 15.5 -75t41 -50.5t59.5 -31.5t70 -19q39 -8 89.5 -19.5t100.5 -26t98 -30t83 -29.5q45 -20 86 -52t72 -79t48 -113.5t17 -154.5 q0 -90 -27.5 -177t-86 -157t-149.5 -112t-216 -42q-156 0 -282 97l-105 -78h-74z" />
<glyph unicode="T" horiz-adv-x="1366" d="M41 924l20 444h1246l20 -444h-55q-25 92 -53.5 166.5t-74.5 125t-114 74.5q-52 18 -125 19q-24 0 -49 -2v-1246h168v-61h-680v61h168v1246q-26 2 -49 2q-72 -1 -124 -19q-69 -24 -115 -74.5t-74.5 -125t-53.5 -166.5h-55z" />
<glyph unicode="U" horiz-adv-x="1478" d="M53 1307v61h678v-61h-172v-992q0 -72 11.5 -124t42 -87.5t85 -54t140.5 -18.5q61 0 108 12t83 31.5t61.5 44t42.5 47.5q18 18 27 56t13.5 88t5.5 109.5t1 123.5v688q0 31 -23.5 53.5t-69.5 22.5h-92v61h432v-61h-122q-35 0 -49.5 -22.5t-14.5 -53.5v-842 q0 -78 -13.5 -153.5t-66.5 -135.5q-57 -63 -155.5 -97t-272.5 -34q-127 0 -223 23.5t-161.5 77t-99.5 138.5t-34 210v889h-162z" />
<glyph unicode="V" horiz-adv-x="1366" d="M14 1307v61h635v-61h-157l342 -842l276 797q2 6 0 14t-13.5 14t-36 11.5t-67.5 5.5h-69v61h428v-61h-84q-18 0 -32.5 -5.5t-30 -29t-36 -70.5t-49.5 -131l-383 -1102h-63l-543 1338h-117z" />
<glyph unicode="W" horiz-adv-x="1933" d="M18 1307v61h1416v-61h-74q-16 0 -27.5 -5.5t-23 -19.5t-22.5 -41t-30 -70l-96 -241l213 -527l289 789q9 25 9 46q0 20 -8 36q-17 33 -67 33h-79v61h395v-61h-78q-16 0 -30.5 -4.5t-27 -17.5t-26.5 -40.5t-31 -73.5l-434 -1202h-53l-250 584l-256 -584h-59l-535 1338h-115 zM465 1307l375 -924l110 252l-270 672h-215zM999 1307l125 -301l123 301h-248z" />
<glyph unicode="X" horiz-adv-x="1366" d="M-4 1307v61h655v-61h-141l240 -404l231 346q10 14 8 25.5t-12 18.5t-27.5 10.5t-38.5 3.5h-94v61h457v-61q-25 0 -54.5 2t-59.5 0t-56.5 -12.5t-42.5 -34.5l-281 -416l408 -676q4 -8 14 -25.5t21.5 -36t24 -33t20.5 -14.5h102v-61h-659v61h149l-289 478l-274 -416 q-12 -18 -6 -29.5t18.5 -18.5t26.5 -10.5t22 -3.5h109v-61h-465v61h111q14 0 36.5 6.5t32.5 20.5l359 512l-424 707h-121z" />
<glyph unicode="Y" horiz-adv-x="1366" d="M12 1307v61h654v-61h-154l328 -555l260 501q12 23 -6.5 38.5t-51.5 15.5h-120v61h432v-61h-76q-23 0 -38 -3.5t-29.5 -14.5t-30 -33.5t-35.5 -61.5l-271 -526v-607h181v-61h-697v61h172v555l-393 691h-125z" />
<glyph unicode="Z" horiz-adv-x="1138" d="M37 0v80l688 1227h-184q-57 0 -114.5 -12.5t-109 -47.5t-90.5 -96t-59 -158h-59l18 375h977v-61l-692 -1246h290q78 0 134.5 39t96.5 97.5t65.5 129t41.5 136.5h60v-463h-1063z" />
<glyph unicode="[" horiz-adv-x="681" d="M106 -451v1850h472v-62h-281v-1726h281v-62h-472z" />
<glyph unicode="\" horiz-adv-x="1105" d="M190 1399h181l544 -1399h-180z" />
<glyph unicode="]" horiz-adv-x="681" d="M104 -389h281v1726h-281v62h471v-1850h-471v62z" />
<glyph unicode="^" d="M-10 395l440 967h158l446 -967h-164l-362 793l-356 -793h-162z" />
<glyph unicode="_" d="M0 -154h1024v-102h-1024v102z" />
<glyph unicode="`" horiz-adv-x="681" d="M16 1309q0 37 27 63.5t63 26.5q35 0 63 -14.5t51.5 -37t45 -49t41.5 -51.5l199 -227h-125l-281 180q-31 20 -57.5 44t-26.5 65z" />
<glyph unicode="a" d="M90 160q0 90 56.5 148.5t137.5 92t171 47t157 15.5v137q0 39 -1 70.5t-13 54.5t-42 34t-87 11q-8 0 -26.5 -2t-37 -8t-32 -15.5t-13.5 -23.5q0 -8 6.5 -19.5t14.5 -23.5t14 -25.5t6 -25.5q0 -66 -32.5 -105t-98.5 -39q-53 0 -92 33t-39 90q0 61 37 102.5t90 66.5 t113.5 36.5t107.5 11.5q98 0 170 -12t118 -32.5t67.5 -44t21.5 -46.5v-498q0 -33 8.5 -63.5t51.5 -30.5q10 0 27.5 9.5t23.5 19.5l37 -39q-41 -66 -90.5 -91.5t-122.5 -25.5q-33 0 -62.5 13.5t-54.5 33t-41 45t-25 50.5q-53 -63 -127.5 -102.5t-158.5 -39.5q-41 0 -84 12.5 t-78 36t-56.5 59.5t-21.5 83zM352 248q0 -27 7.5 -55.5t21.5 -52t36.5 -39t53.5 -15.5q72 0 106.5 39t34.5 80v209q-41 -2 -87 -8.5t-85 -22.5t-63.5 -48t-24.5 -87z" />
<glyph unicode="b" horiz-adv-x="1138" d="M63 0v57h119v1264h-114v57h114q72 0 141.5 8.5t141.5 12.5v-723q45 70 103.5 108.5t144.5 38.5q80 0 149.5 -34.5t121.5 -92t83 -132.5t31 -152q0 -80 -28 -159t-79 -142.5t-121.5 -102.5t-156.5 -39q-90 0 -147.5 44t-96.5 118h-4v-131h-402zM465 248q0 -35 17.5 -74 t47 -72.5t67.5 -56t79 -22.5q37 0 56.5 13t29.5 34.5t12 49t2 58.5v500q0 41 -30.5 66.5t-71.5 25.5t-78 -22.5t-66.5 -55.5t-47 -67.5t-17.5 -59.5v-317z" />
<glyph unicode="c" d="M102 387q0 94 39 174t103.5 138.5t149.5 91t175 32.5q84 0 145.5 -23.5t101.5 -58t58.5 -72.5t18.5 -69q0 -66 -41 -103.5t-102 -37.5q-59 0 -97.5 41t-38.5 100q0 23 11.5 46.5t23.5 33.5q10 6 18.5 17.5t8.5 27.5q0 14 -12.5 23.5t-30 14.5t-35.5 6t-31 1 q-35 0 -62.5 -7t-47 -29.5t-30.5 -65.5t-11 -117v-264q0 -80 6 -131.5t23.5 -81t48 -40.5t79.5 -11q121 0 189.5 63.5t116.5 171.5l45 -25q-41 -119 -137.5 -191.5t-223.5 -72.5q-84 0 -167 32t-148.5 87t-105.5 132t-40 167z" />
<glyph unicode="d" horiz-adv-x="1138" d="M39 375q0 119 43 204t106.5 139t133 79.5t124.5 25.5q74 0 137.5 -39t94.5 -102h4v639h-160v57h160q72 0 141.5 8.5t141.5 12.5v-1342h116v-57h-399v117q-49 -68 -112.5 -108t-151.5 -40q-78 0 -146.5 35t-121 92.5t-82 130t-29.5 148.5zM356 133q0 -47 23.5 -78.5 t73.5 -31.5q49 0 91 21.5t72.5 56t48 79.5t17.5 92v248q0 49 -16.5 94t-45 80t-66.5 55.5t-81 20.5q-47 0 -82 -23.5t-35 -74.5v-539z" />
<glyph unicode="e" d="M72 391q0 104 42 185t109.5 135.5t153.5 83t174 28.5q76 0 147.5 -25.5t127 -71.5t89 -111.5t33.5 -145.5q0 -18 -10 -26.5t-25.5 -11.5t-32 -2t-28.5 1h-449v-264q0 -80 43 -111.5t123 -31.5q123 0 212 59t124 180l47 -16q-41 -143 -147.5 -210t-249.5 -67 q-96 0 -183 27t-153.5 80t-106.5 132t-40 183zM403 483h269v201q0 41 -35 63.5t-109 22.5q-66 0 -95.5 -26.5t-29.5 -67.5v-193z" />
<glyph unicode="f" horiz-adv-x="681" d="M20 754v57h140v117q0 125 41 215t104.5 146.5t138 83t142.5 26.5q123 0 181 -52.5t58 -117.5q0 -66 -34.5 -105t-100.5 -39q-47 0 -83 31t-36 82q0 33 7.5 48.5t17.5 25.5t17.5 16t7.5 23q0 18 -21.5 24t-36.5 6q-43 0 -67.5 -19t-35.5 -49t-14.5 -67t-3.5 -69v-326h176 v-57h-176v-697h148v-57h-555v57h125v697h-140z" />
<glyph unicode="g" d="M45 127q0 94 54.5 143t138.5 72q-139 78 -140 207q0 43 26 91t75 89t120.5 67.5t163.5 26.5q78 0 154 -22.5t141 -69.5q16 20 31.5 41t33 38t39 27.5t50.5 10.5q37 0 62.5 -31t25.5 -65q0 -41 -16.5 -70t-63.5 -29q-31 0 -55.5 17.5t-42.5 40.5l-19 -17 q25 -29 41.5 -67.5t16.5 -75.5q0 -80 -42 -131t-104.5 -82t-135.5 -42t-134 -11t-114.5 4t-78.5 10q-16 4 -39.5 -1t-45 -15.5t-38 -27.5t-16.5 -38q0 -16 11.5 -24.5t26.5 -11.5t33.5 -4t31.5 -1h540q53 0 89 -19.5t57.5 -51t31 -74.5t9.5 -90q0 -104 -46.5 -179 t-120 -122.5t-164.5 -69t-181 -21.5q-45 0 -115 11.5t-134.5 37t-110.5 66.5t-46 100q0 47 32 89.5t99 72.5q-57 31 -94 83t-37 118zM198 -224q9 -57 46 -95.5t95 -58t122 -19.5q59 0 133 11t137.5 41t106.5 79t43 127q0 20 -11.5 30.5t-27 15.5t-33.5 6t-33 1h-551v-2 q-29 -62 -29 -111q0 -13 2 -25zM369 395q0 -23 13 -35t31.5 -18t40 -7t38.5 -1q35 0 69.5 13t34.5 48v271q0 66 -28.5 85t-80.5 19q-63 0 -90.5 -19.5t-27.5 -84.5v-271z" />
<glyph unicode="h" horiz-adv-x="1138" d="M10 1321v57h127q72 0 141.5 8.5t141.5 12.5v-791h4q55 102 134 158.5t202 56.5q133 0 187 -61.5t54 -186.5v-518h127v-57h-516v57h107v607q0 35 -30 52t-60 17q-35 0 -72 -23.5t-67.5 -65.5t-50 -97t-19.5 -117v-373h117v-57h-512v57h112v1264h-127z" />
<glyph unicode="i" horiz-adv-x="569" d="M10 754v57h142q35 0 70.5 1t70.5 3t70.5 3t70.5 1v-762h125v-57h-541v57h134v697h-142zM139 1145q0 59 45.5 102t102.5 43t101 -43t44 -102t-43 -103.5t-102 -44.5t-103.5 44t-44.5 104z" />
<glyph unicode="j" horiz-adv-x="645" d="M-100 -293q0 45 32.5 78t79.5 33q37 0 72 -21.5t35 -62.5q0 -10 -1 -20.5t-3 -20.5q-4 -31 -3 -48.5t33 -23.5q31 -6 46.5 19.5t19.5 61.5q3 29 3 58v14q-1 36 -1 52v928h-141v57h141q35 0 70.5 1t70.5 3t71 3t71 1v-637q0 -176 -32 -294.5t-118 -213.5 q-103 -114 -255 -114h-3q-35 0 -68.5 9t-60.5 27.5t-43 46t-16 64.5zM199 1149q0 59 45 102t102 43t101.5 -43t44.5 -102t-43 -103.5t-103 -44.5q-59 0 -103 44.5t-44 103.5z" />
<glyph unicode="k" horiz-adv-x="1138" d="M12 1321v57h109q72 0 141.5 8.5t140.5 12.5v-1342h136v-57h-523v57h105v1264h-109zM432 408v41l344 305h-198v57h434v-57h-146l-221 -195l404 -502h79v-57h-528v57h107z" />
<glyph unicode="l" horiz-adv-x="569" d="M-8 1321v57h143q72 0 141.5 8.5t141.5 12.5v-1342h133v-57h-539v57h123v1264h-143z" />
<glyph unicode="m" horiz-adv-x="1705" d="M20 754v57h132q70 0 137 4t137 4v-196q49 84 126 142t179 58q92 0 164 -47t88 -145q57 84 143 138t191 54q39 0 81 -9t75.5 -28.5t56 -51.5t22.5 -77v-600h134v-57h-515v57h107v570q0 20 -2 40.5t-10.5 36t-24.5 25.5t-43 10q-45 0 -83 -25.5t-65.5 -65.5t-44 -86 t-16.5 -85v-420h107v-57h-488v57h107v508q0 102 -16.5 138t-73.5 36q-25 0 -59 -16t-65.5 -50t-53 -85t-21.5 -119v-412h106v-57h-493v57h113v697h-132z" />
<glyph unicode="n" horiz-adv-x="1138" d="M27 0v57h131v697h-131v57h131q70 0 137 4t137 4v-188q66 113 149 152.5t187 39.5q47 0 89 -8t74 -29.5t50 -60.5t18 -98v-570h127v-57h-512v57h111v523q0 98 -22.5 128.5t-65.5 30.5q-49 0 -87 -27.5t-64.5 -69.5t-40 -91t-13.5 -92v-402h109v-57h-514z" />
<glyph unicode="o" horiz-adv-x="1138" d="M78 389q0 100 42 181t111.5 137.5t157.5 86t180 29.5t180.5 -29.5t158 -86t111.5 -137.5t42 -181q0 -98 -40 -177t-107.5 -132t-156.5 -82t-188 -29q-111 0 -200.5 34t-154 91.5t-100.5 134t-36 160.5zM410 174q0 -90 43 -120.5t116 -30.5q74 0 117 30.5t43 120.5v436 q0 47 -6 78t-22.5 49.5t-48 25.5t-83.5 7q-94 0 -126.5 -32.5t-32.5 -127.5v-436z" />
<glyph unicode="p" horiz-adv-x="1138" d="M43 754v57h141q72 0 141.5 4t141.5 4v-180h4q23 43 47.5 77t54 58.5t67.5 36.5t91 12q88 0 157.5 -36.5t119 -96t76 -137.5t26.5 -160q0 -80 -27.5 -155.5t-79 -135t-121 -96.5t-153.5 -37q-78 0 -147.5 41t-108.5 109h-6v-502h172v-57h-559v57h104v1137h-141zM467 264 q0 -31 18.5 -72.5t49 -79.5t71.5 -63.5t88 -25.5q51 0 74 27.5t23 74.5v508q0 51 -20.5 94t-82.5 43q-43 0 -83 -29.5t-70.5 -72.5t-49 -90.5t-18.5 -79.5v-234z" />
<glyph unicode="q" horiz-adv-x="1138" d="M31 377q0 84 28.5 165t81 144.5t125.5 101.5q68 35 153 35h9q86 -2 142.5 -42t105.5 -105v143q72 0 141.5 -4t140.5 -4h129v-57h-129v-1137h115v-57h-545v57h148v506q-47 -72 -114.5 -113t-153.5 -41q-80 0 -149 35t-120 92.5t-79.5 130t-28.5 150.5zM350 125 q0 -16 2 -34.5t12.5 -34t30 -24.5t54.5 -9q45 0 85.5 25.5t72.5 62t50.5 78.5t18.5 75v234q0 49 -19.5 97t-51.5 87t-72.5 63.5t-81.5 24.5t-71 -29.5t-30 -107.5v-508z" />
<glyph unicode="r" horiz-adv-x="909" d="M57 754v57h109q72 0 141.5 4t141.5 4v-215h4q14 43 35.5 83t53 70.5t71.5 48t92 17.5q78 0 123.5 -46t45.5 -124q0 -61 -41.5 -102t-103.5 -41q-53 0 -91 32.5t-38 90.5q0 29 7 47t18 45q2 6 -6.5 10t-24.5 -4t-41 -33.5t-53 -81.5q-29 -55 -40 -92t-11 -98v-369h153v-57 h-541v57h105v697h-109z" />
<glyph unicode="s" horiz-adv-x="796" d="M68 549q0 66 22.5 117t62.5 85.5t93 53t114 18.5q57 0 96.5 -13t92.5 -28q12 -4 30.5 11.5t28.5 29.5h41v-235h-57q-33 94 -81 138t-151 44q-25 0 -56.5 -5t-61 -17.5t-50 -34t-20.5 -54.5q0 -35 50 -58t118 -28q86 -6 157.5 -21t123 -47t80 -83t28.5 -131 q0 -61 -18.5 -119.5t-55.5 -102.5t-94 -72t-135 -28q-63 0 -125.5 19.5t-116.5 54.5l-57 -43h-51v289h53q10 -55 37 -103.5t66.5 -84t90 -57t105.5 -21.5q27 0 60.5 9t62.5 26.5t49.5 43t20.5 60.5q0 39 -16.5 59.5t-42 29.5t-56.5 10t-62 5q-68 6 -135 19.5t-120.5 43 t-87 82t-33.5 138.5z" />
<glyph unicode="t" horiz-adv-x="681" d="M35 737v58h125v243h121q41 0 80.5 8.5t80.5 12.5v-264h156v-58h-156v-555q0 -16 -1 -33.5t3.5 -34t14.5 -26.5t33 -10q31 0 49 11t29.5 28.5t17.5 41t10 48.5l59 -12q-27 -125 -105.5 -175.5t-201.5 -50.5q-72 0 -110.5 14.5t-56 39t-20.5 58.5t-3 73v583h-125z" />
<glyph unicode="u" horiz-adv-x="1138" d="M6 754v57h141q35 0 71 1t71 3t70.5 3t70.5 1v-571v-78t6 -61.5t23.5 -41t52.5 -14.5q43 0 80 25.5t63.5 61.5t42 74t15.5 62v478h-142v57h142q35 0 70.5 1t70.5 3t71 3t70 1v-762h138v-57h-138q-35 0 -70.5 -3t-70.5 -7t-70.5 -7t-70.5 -3v176h-4q-37 -98 -123 -142.5 t-191 -44.5q-94 0 -144 21.5t-73.5 61.5t-27 99.5t-3.5 135.5v467h-141z" />
<glyph unicode="v" d="M31 754v57h495v-57h-114l211 -484l172 426q10 25 7 37t-12.5 16.5t-22.5 4.5h-26h-84v57h334v-57h-71q-20 0 -34 -13.5t-22 -29.5l-313 -742h-53l-379 785h-88z" />
<glyph unicode="w" horiz-adv-x="1366" d="M16 754v57h498v-57h-102l151 -422h4l203 479h59l207 -483h4l129 377q8 25 -10 37t-39 12h-78v57h310v-57h-76q-29 0 -35 -20.5t-10 -31.5l-264 -733h-43l-234 510h-2l-211 -510h-47l-309 785h-105z" />
<glyph unicode="x" horiz-adv-x="1138" d="M39 754v57h534v-57h-108l164 -217l194 217h-139v57h340v-57h-115l-245 -262l319 -402q14 -16 29.5 -23.5t32 -9.5t31 -1t24.5 1v-57h-537v57h111l-191 242l-188 -207q-12 -14 -2 -21.5t31.5 -10.5t46 -3h41.5v-57h-361v57h96q23 0 44.5 13.5t40 32t36 40t31.5 37.5 l150 166l-316 408h-94z" />
<glyph unicode="y" d="M35 754v57h493v-57h-96l199 -443h8l156 381q14 35 -7.5 48.5t-44.5 13.5h-75v57h323v-57h-63q-16 0 -27.5 -10.5t-21 -26t-16.5 -32.5t-13 -32l-406 -942q-33 -74 -83 -118t-117 -44q-51 0 -91 39t-40 88q0 55 33.5 89t84.5 34q35 0 53.5 -12t30.5 -27q12 -14 22.5 -23 t27.5 -3q31 12 43 38.5t22 51.5l74 174l-379 756h-90z" />
<glyph unicode="z" horiz-adv-x="909" d="M68 0v41l458 713h-120q-90 0 -146.5 -59.5t-103.5 -202.5h-54l11 319h729v-51l-447 -703h142q57 0 97 28t68.5 70t49 92t41.5 95h51l-10 -342h-766z" />
<glyph unicode="{" horiz-adv-x="573" d="M57 477v4q45 12 73 30.5t43 47.5t20.5 67t5.5 91v356q0 61 7 132t48 118q25 31 57.5 46t67.5 22.5t69.5 7.5h67.5v-6q-80 -29 -109.5 -86.5t-29.5 -157.5v-373q0 -59 -5 -107t-21.5 -86t-46.5 -63.5t-81 -38.5v-4q96 -27 125 -96.5t29 -179.5v-402q0 -102 27.5 -159.5 t111.5 -85.5v-5q-33 0 -63.5 -1t-61.5 3.5t-59.5 15.5t-59.5 34q-51 45 -62 107.5t-11 131.5v398q0 53 -4.5 87.5t-32.5 75.5q-20 33 -47 50.5t-58 25.5z" />
<glyph unicode="|" horiz-adv-x="1146" d="M492 -512v2048h165v-2048h-165z" />
<glyph unicode="}" horiz-adv-x="573" d="M57 -446q84 29 112 86t28 159v402q0 111 28.5 180.5t124.5 95.5v4q-51 12 -80.5 38t-46 64t-21.5 86t-5 107v373q0 100 -30 157.5t-110 86.5v6h68t69.5 -7.5t67.5 -22.5t57 -46q41 -47 48.5 -117.5t7.5 -132.5v-356q0 -53 5 -91t20.5 -67t43 -47t72.5 -31v-4 q-31 -8 -57.5 -25.5t-46.5 -50.5q-29 -41 -33 -75.5t-4 -87.5v-398q0 -70 -11.5 -132t-62.5 -107q-31 -23 -59.5 -34t-59 -15.5t-61.5 -3.5t-64 1v5z" />
<glyph unicode="~" d="M2 377q27 43 56.5 83t65.5 70.5t80 50t99 19.5q57 0 116.5 -18.5t115.5 -40.5q57 -23 107 -41.5t89 -18.5q29 0 52.5 13.5t43 34t36 44t30.5 43.5l129 -81q-29 -39 -57.5 -77t-62.5 -69t-76 -49t-95 -18q-49 0 -91 13t-89 30l-86 32q-35 14 -78 29.5t-80 15.5 q-35 0 -60.5 -14t-46 -35.5t-38 -48.5t-33.5 -51z" />
<glyph unicode="&#xa1;" horiz-adv-x="681" d="M166 772q0 33 13.5 63.5t37 54t53 37t64.5 13.5q33 0 64.5 -13.5t54 -36t37 -53t14.5 -65.5q0 -72 -50.5 -120t-119.5 -48q-70 0 -119 50.5t-49 117.5zM172 -264q0 35 13.5 76t27.5 69q35 74 57.5 153t26.5 159q4 70 6 137t0 137h62q-2 -70 0 -137.5t6 -136.5 q4 -80 26.5 -159t57.5 -153q14 -29 27.5 -69.5t13.5 -75.5q0 -37 -9.5 -70t-29 -59.5t-49 -42t-68.5 -15.5q-45 0 -77 15.5t-52.5 42t-29.5 59.5t-9 70z" />
<glyph unicode="&#xa2;" horiz-adv-x="1251" d="M201 389q0 94 39 173t104.5 137.5t149.5 91t174 32.5q35 0 69.5 -5t69.5 -15l92 241h82l-104 -276q45 -29 79.5 -72t34.5 -96q0 -43 -21.5 -75.5t-53 -49t-70.5 -15.5t-76 25l-164 -438q61 -18 117.5 -9t105 38.5t86 77t62.5 106.5l45 -24q-25 -72 -71 -126.5t-105.5 -88 t-127 -44t-136.5 4.5l-105 -279h-82l111 299q-61 20 -117.5 58t-97.5 88.5t-65.5 112t-24.5 128.5zM512 246q0 -43 6 -82t23 -68l176 467q-10 29 1 67t30 50q10 6 19 20.5t7 24.5q-2 16 -14 25.5t-29.5 14.5t-35 7t-29.5 2q-31 0 -58.5 -7t-49 -26.5t-34 -52.5t-12.5 -82 v-360z" />
<glyph unicode="&#xa3;" horiz-adv-x="1251" d="M72 145q0 43 17 78t47 60.5t67 40t78 14.5q33 0 63.5 -8t58 -18.5t50 -20.5t39.5 -12q0 41 -18.5 102t-78.5 172q-16 29 -31.5 56.5t-31.5 56.5h-195v102h174q-12 74 -12 147q0 117 42 202t108.5 139.5t148.5 80t162 25.5q66 0 136.5 -16.5t128.5 -51t95 -90t37 -133.5 q0 -66 -42 -113t-107 -47q-59 0 -104.5 37t-45.5 103q0 35 14.5 59.5t30.5 44.5t29.5 37.5t13.5 40.5q0 20 -16.5 32.5t-39 20.5t-45 11t-36.5 3q-76 0 -125 -17t-70.5 -57t-16.5 -106.5t36 -165.5q16 -53 32.5 -103t22.5 -83h232v-102h-224q8 -29 9.5 -55.5t1.5 -55.5 q0 -78 -21.5 -154.5t-56.5 -146.5q43 -10 88 -15.5t90 -5.5q76 0 129 15.5t88 49.5t54.5 87t29.5 127h63q0 -258 -90 -400.5t-280 -142.5q-74 0 -141.5 32t-122.5 79q-49 -49 -115 -80t-137 -31q-86 0 -149.5 41t-63.5 135zM166 145q0 -59 35 -88.5t94 -29.5 q57 0 109.5 31.5t80.5 78.5q-35 61 -78.5 96t-115.5 35q-53 0 -89 -33.5t-36 -89.5z" />
<glyph unicode="&#xa4;" horiz-adv-x="1251" d="M182 643q0 76 18.5 137.5t61.5 122.5l-74 74l103 106l76 -75q59 43 126.5 62.5t139.5 19.5t132 -20.5t120 -61.5l76 75l104 -106l-76 -74q43 -66 61.5 -128t18.5 -140q0 -72 -20.5 -129t-59.5 -117l76 -76l-104 -104l-76 76q-59 -41 -127 -62.5t-140 -21.5t-133 21.5 t-118 62.5l-76 -76l-103 104l74 76q-41 59 -60.5 119.5t-19.5 134.5zM365 641q0 -55 21.5 -102t58 -81t85 -52.5t101.5 -18.5t99 21.5t81 57.5t54.5 83t19.5 98t-19.5 98.5t-54.5 83t-81 57t-97 21.5q-57 0 -106.5 -20.5t-85 -55t-56 -84t-20.5 -106.5z" />
<glyph unicode="&#xa5;" horiz-adv-x="1251" d="M10 1300v62h590v-62h-137l295 -552l235 499q10 23 -7 38t-46 15h-109v62h392v-62h-70q-18 0 -32.5 -3t-28 -14t-26.5 -33.5t-32 -61.5l-246 -522v-97h250v-90h-250v-90h250v-90h-250v-238h164v-61h-628v61h155v238h-248v90h248v90h-248v90h248v45l-354 686h-115z" />
<glyph unicode="&#xa6;" horiz-adv-x="1146" d="M492 358h165v-716h-165v716zM492 666v716h165v-716h-165z" />
<glyph unicode="&#xa7;" d="M129 586q0 119 67.5 187.5t188.5 57.5v21q-37 31 -67.5 61.5t-53 64.5t-36 74t-13.5 91q0 72 28.5 121t72.5 78.5t95.5 43t98.5 13.5q41 0 90 -12.5t92 -37t72 -61.5t29 -86q0 -51 -31 -90t-86 -39q-47 0 -81 32t-34 79q0 35 25.5 59.5t48.5 46.5q12 8 2 31 q-14 23 -47 32t-62 9q-72 0 -125 -38t-53 -114q0 -31 14.5 -59.5t50.5 -64t96 -83t153 -116.5q63 -49 108 -99.5t72.5 -99.5t40 -92t12.5 -76q0 -115 -66.5 -180.5t-181.5 -60.5v-21q66 -49 116 -119.5t50 -156.5q0 -72 -27.5 -122t-73.5 -83t-105.5 -48.5t-123.5 -15.5 q-43 0 -93 12.5t-93 37t-71.5 62.5t-28.5 91q0 127 127 127q43 0 75.5 -29.5t32.5 -74.5q0 -29 -13 -47.5t-28.5 -31t-28 -21.5t-12.5 -19q0 -18 16.5 -30.5t40 -20t47 -11.5t36.5 -4q74 0 124 36t50 116q0 51 -24 87t-64 64q-35 25 -86.5 66t-103.5 85t-100 87t-75 74 q-45 49 -64.5 100t-19.5 117zM258 664q0 -37 21.5 -72t51 -66.5t63.5 -59.5t59 -48q53 -45 98 -73t86 -28q55 0 91 39t36 93q0 27 -10.5 50t-26.5 44.5t-35.5 41t-38.5 36.5q-25 23 -57.5 52t-69.5 56t-74.5 45.5t-70.5 18.5q-53 0 -88 -38t-35 -91z" />
<glyph unicode="&#xa8;" horiz-adv-x="681" d="M-4 1194q0 53 37 93t90 40t93 -39t40 -94t-39 -94t-94 -39q-53 0 -90 41t-37 92zM428 1194q0 53 37 93t90 40t93 -39t40 -94t-39 -94t-94 -39q-53 0 -90 41t-37 92z" />
<glyph unicode="&#xa9;" horiz-adv-x="1556" d="M76 686q0 147 54 276.5t148.5 226.5t222.5 153.5t273 56.5q147 0 276.5 -55.5t225.5 -150.5t151.5 -226t55.5 -281q0 -152 -56.5 -283t-153.5 -227t-226.5 -151.5t-274.5 -55.5q-143 0 -270 57.5t-221.5 156t-149.5 228.5t-55 275zM199 688q0 -125 46 -233.5t126 -189.5 t186.5 -127t226.5 -46q119 0 223.5 48t183.5 129t124 189.5t45 229.5q0 123 -46 229.5t-126 186.5t-186.5 126t-227.5 46q-119 0 -223.5 -47t-183 -128t-123.5 -187.5t-45 -225.5zM410 707q0 49 27.5 110.5t76.5 116.5t116.5 93t147.5 38q106 0 189 -53l39 37h38v-195h-34 q-16 37 -35 69.5t-45.5 57.5t-62.5 39t-85 14q-41 0 -69.5 -10t-45 -44t-23.5 -98.5t-7 -174.5q0 -100 3 -166t16.5 -105t43 -54t84.5 -15q51 0 89 14t67 39.5t48.5 60.5t33.5 74h41v-207h-45l-41 37q-43 -23 -91 -38t-95 -15q-78 0 -148 28.5t-122 78.5t-81.5 119 t-29.5 149z" />
<glyph unicode="&#xaa;" horiz-adv-x="614" d="M8 1001q0 53 37 88t89 55.5t110.5 29t103.5 10.5v82q0 25 -1 43t-9 31.5t-27.5 20.5t-56.5 7q-6 0 -17.5 -2t-22.5 -5t-20.5 -9t-9.5 -15q0 -8 13 -24q14 -18 14 -31q0 -41 -21.5 -63.5t-64.5 -22.5q-35 0 -59.5 19.5t-24.5 54.5q0 37 23.5 61.5t58.5 39.5t74 21.5 t69 6.5q129 0 187.5 -26.5t58.5 -53.5v-299q0 -20 5 -38.5t34 -18.5q6 0 17.5 5t15.5 13l22 -25q-27 -39 -58.5 -54t-78.5 -15q-43 0 -76 27.5t-43 56.5q-35 -37 -84 -60.5t-102 -23.5q-27 0 -54.5 7t-50 21.5t-37 36t-14.5 49.5zM178 1055q0 -33 18.5 -66t59.5 -33 q47 0 69.5 24t22.5 48v125q-27 -2 -56.5 -5t-55 -13.5t-42 -29t-16.5 -50.5z" />
<glyph unicode="&#xab;" d="M154 408v14q88 74 175 148.5t171 152.5q12 6 22 2t10 -20q0 -8 -27.5 -50.5t-61 -91.5t-66.5 -94t-41 -57q14 -16 47 -59.5t67.5 -91.5t61.5 -91t27 -57q0 -8 -9.5 -12.5t-19.5 3.5q-80 72 -175 152t-181 152zM485 408v14q88 74 175.5 148.5t170.5 152.5q12 6 22.5 2 t10.5 -20q0 -8 -27.5 -50.5t-61.5 -91.5t-66.5 -94t-40.5 -57q14 -16 47 -59.5t67.5 -91.5t61 -91t26.5 -57q0 -8 -9 -12.5t-19 3.5q-80 72 -175.5 152t-181.5 152z" />
<glyph unicode="&#xac;" d="M59 512v166h908v-551h-164v385h-744z" />
<glyph unicode="&#xad;" horiz-adv-x="681" d="M49 307v209h584v-209h-584z" />
<glyph unicode="&#xae;" horiz-adv-x="1556" d="M76 686q0 147 54 276.5t148.5 226.5t222.5 153.5t273 56.5q147 0 276.5 -55.5t225.5 -150.5t151.5 -226t55.5 -281q0 -152 -56.5 -283t-153.5 -227t-226.5 -151.5t-274.5 -55.5q-143 0 -270 57.5t-221.5 156t-149.5 228.5t-55 275zM199 688q0 -125 46 -233.5t126 -189.5 t186.5 -127t226.5 -46q119 0 223.5 48t183.5 129t124 189.5t45 229.5q0 123 -46 229.5t-126 186.5t-186.5 126t-227.5 46q-119 0 -223.5 -47t-183 -128t-123.5 -187.5t-45 -225.5zM418 1030v35h452q43 0 85 -10.5t75 -32t53.5 -55t20.5 -80.5q0 -45 -26.5 -76t-64.5 -49.5 t-83 -28.5t-82 -12v-4q123 -20 174 -66.5t51 -126.5q0 -68 5 -101.5t18 -45.5q6 -6 25.5 -9t62.5 7l6 -25q-29 -14 -66 -23.5t-67 -9.5q-104 0 -146.5 50.5t-44.5 177.5q0 98 -24.5 129t-93.5 31h-50v-340h97v-33h-375v33h90v665h-92zM698 739h47q90 0 120 18.5t30 78.5v106 q0 18 1 34.5t-8 29t-34 18.5t-74 6h-82v-291z" />
<glyph unicode="&#xaf;" horiz-adv-x="681" d="M2 1221v147h678v-147h-678z" />
<glyph unicode="&#xb0;" horiz-adv-x="819" d="M102 1055q0 63 24 118.5t65.5 97.5t98 66.5t120.5 24.5q63 0 118.5 -24.5t97.5 -66.5t66.5 -97.5t24.5 -118.5t-24.5 -119.5t-66.5 -97.5t-97.5 -65.5t-118.5 -24.5t-120 24.5t-97.5 65.5t-65.5 97t-25 120zM217 1055q0 -41 15.5 -76t41 -60.5t60.5 -41t76 -15.5 q39 0 74.5 15.5t61 41t41 60.5t15.5 76q0 39 -15.5 73.5t-42 61.5t-62 42t-74.5 15t-74 -15t-61.5 -42t-41 -61.5t-14.5 -73.5z" />
<glyph unicode="&#xb1;" d="M59 0v166h908v-166h-908zM59 494v165h371v250h166v-250h371v-165h-371v-252h-166v252h-371z" />
<glyph unicode="&#xb2;" horiz-adv-x="749" d="M47 545v108q59 41 117.5 83t118.5 83q49 35 86 67t61.5 67.5t36.5 79.5t12 104q0 35 -10 67.5t-30.5 58t-51.5 41t-72 15.5q-29 0 -61.5 -9.5t-56.5 -23.5q-6 -4 -15.5 -10t-19.5 -15.5t-17.5 -17.5t-7.5 -14q0 -12 12.5 -14.5t20.5 -2.5q47 0 83 -21.5t36 -68.5 q0 -43 -30 -64.5t-75 -21.5q-55 0 -82.5 36t-27.5 83q0 84 81 145.5t234 61.5q55 0 111.5 -11.5t100.5 -37t72.5 -66.5t28.5 -100q0 -66 -36.5 -114t-87.5 -89q-90 -72 -193.5 -127t-202.5 -117h424q23 0 32 12.5t12 30t2 37t1 33.5h47l-14 -268h-639z" />
<glyph unicode="&#xb3;" horiz-adv-x="749" d="M49 680q0 41 22.5 71.5t73.5 30.5q41 0 73 -22.5t32 -63.5q0 -29 -11.5 -43t-23.5 -24q-14 -10 -25.5 -15.5t-11.5 -15.5t17.5 -17.5t40 -11.5t44 -6t27.5 -2q82 0 124 48t42 132q0 115 -47 164t-158 49q-23 0 -41 -1t-37 -1q-16 0 -15 16.5t13 20.5q20 2 40 2t40 4 q100 8 136 51.5t36 133.5q0 84 -26.5 115.5t-98.5 31.5h-23.5t-30.5 -3t-27.5 -9t-12.5 -19q0 -8 10.5 -12t22.5 -12q10 -10 20.5 -23.5t10.5 -42.5q0 -39 -27 -61.5t-68 -22.5q-37 0 -62.5 24.5t-25.5 59.5q0 72 69 114t185 42q45 0 97.5 -9.5t96.5 -31t72.5 -57 t28.5 -86.5q0 -47 -24.5 -80t-62.5 -55.5t-83 -36t-86 -21.5v-4q51 -8 106.5 -20.5t99.5 -35t72.5 -61.5t28.5 -100t-35.5 -105.5t-93 -74t-129 -44t-143.5 -14.5q-59 0 -105 14.5t-79 37t-50.5 49t-17.5 53.5z" />
<glyph unicode="&#xb4;" horiz-adv-x="681" d="M178 1020l199 227q20 25 41.5 51.5t45 49t51.5 37t63 14.5q37 0 63.5 -26.5t26.5 -63.5q0 -41 -27 -64.5t-57 -44.5l-281 -180h-125z" />
<glyph unicode="&#xb5;" horiz-adv-x="1138" d="M6 754v57h141q35 0 71 1t71 3t70.5 3t70.5 1v-571v-78t6 -61.5t23.5 -41t52.5 -14.5q43 0 80 25.5t63.5 61.5t42 74t15.5 62v478h-142v57h142q35 0 70.5 1t70.5 3t71 3t70 1v-762h138v-57h-138q-35 0 -70.5 -3t-70.5 -7t-70.5 -7t-70.5 -3v176h-4q-37 -98 -123 -142.5 t-191 -44.5q-23 0 -20.5 -35.5t12.5 -70.5t24.5 -79t18.5 -91q4 -55 -37 -99.5t-104 -44.5q-59 0 -102.5 39t-39.5 105q2 43 14.5 91t23 94t11.5 91t-20 82q-23 41 -26 100.5t-3 135.5v467h-141z" />
<glyph unicode="&#xb6;" horiz-adv-x="1351" d="M162 952q0 111 41 195t105.5 140t143 84t152.5 28h588v-142h-127v-1542h-152v1542h-157v-1544h-152v789q-74 0 -152.5 28.5t-143 85t-105.5 141.5t-41 195z" />
<glyph unicode="&#xb7;" horiz-adv-x="681" d="M170 455q0 33 13.5 63.5t37 54t53 37t64.5 13.5q33 0 64.5 -13.5t54 -36t37 -53.5t14.5 -65q0 -72 -50 -120t-120 -48t-119 50t-49 118z" />
<glyph unicode="&#xb8;" horiz-adv-x="681" d="M90 -410l33 76q39 -16 72.5 -21t74.5 -5q35 0 63.5 22.5t28.5 58.5q0 39 -26.5 56.5t-61.5 17.5q-16 0 -31.5 -2t-31.5 -6l-21 16l86 197h86l-57 -131q16 6 34.5 8t37.5 2q74 0 126 -34.5t52 -116.5q0 -53 -29.5 -87t-72.5 -53.5t-92.5 -26.5t-90.5 -7q-39 0 -92 11 t-88 25z" />
<glyph unicode="&#xb9;" horiz-adv-x="749" d="M115 545v37h166v690q0 37 -54 37h-112v37l360 16v-780h162v-37h-522z" />
<glyph unicode="&#xba;" horiz-adv-x="684" d="M23 1139q0 61 27.5 109t72.5 82t102.5 51.5t116.5 17.5t116.5 -17.5t102.5 -51.5t73 -82t28 -109q0 -59 -26 -106.5t-70 -79t-102 -49t-122 -17.5q-72 0 -130 20.5t-100 55t-65.5 79.5t-23.5 97zM238 1010q0 -53 28.5 -71.5t75.5 -18.5t75.5 18t28.5 72v262 q0 55 -17 75.5t-83 20.5t-87 -20.5t-21 -75.5v-262z" />
<glyph unicode="&#xbb;" d="M154 113q0 14 26.5 57t61 91t67.5 91t47 60q-6 8 -23.5 31.5t-39 54t-45 64.5t-43 63.5t-32.5 51t-13 28.5q0 16 10 20t23 -2q84 -78 171 -152.5t175 -148.5v-14q-86 -72 -181.5 -152t-175.5 -152q-10 -8 -19 -4t-9 13zM485 113q0 14 27 57t61.5 91t67.5 91t47 60 q-6 8 -23.5 31.5t-39 54t-45 64.5t-43 63.5t-32.5 51t-13 28.5q0 16 10 20t22 -2q84 -78 171 -152.5t175 -148.5v-14q-86 -72 -181 -152t-175 -152q-10 -8 -19.5 -4t-9.5 13z" />
<glyph unicode="&#xbc;" horiz-adv-x="1875" d="M190 545v37h166v690q0 37 -53 37h-113v37l361 16v-780h162v-37h-523zM473 0l920 1362h106l-919 -1362h-107zM956 258q0 6 2.5 13.5t12.5 19.5l409 526h133v-557h89q25 0 35 8t12 20.5t0 29t0 32.5h37v-213h-37v47.5t-6.5 25.5t-22.5 11t-49 2h-58v-186h105v-37h-426v37 h117v186h-351q0 12 -1 20.5t-1 14.5zM999 260h310v404z" />
<glyph unicode="&#xbd;" horiz-adv-x="1875" d="M170 545v37h166v690q0 37 -53 37h-113v37l360 16v-780h162v-37h-522zM410 0l919 1362h107l-920 -1362h-106zM1051 0v109q59 41 117.5 82.5t117.5 82.5q49 35 86 67t61.5 67.5t37 79.5t12.5 104q0 35 -10.5 67.5t-31 58t-51 41t-71.5 15.5q-29 0 -61.5 -9t-57.5 -24 l-15 -10t-19.5 -15t-17.5 -17.5t-7 -14.5q0 -12 12 -14t21 -2q47 0 82.5 -21.5t35.5 -68.5q0 -43 -29.5 -64.5t-74.5 -21.5q-55 0 -83 35.5t-28 82.5q0 84 81 145.5t235 61.5q55 0 111.5 -11t100.5 -37t72.5 -66.5t28.5 -100.5q0 -66 -37 -114t-88 -89q-90 -72 -193.5 -127 t-201.5 -116h424q23 0 32 12t12 29.5t2 37t1 33.5h47l-14 -268h-639z" />
<glyph unicode="&#xbe;" horiz-adv-x="1875" d="M190 698q0 41 23 72t74 31q41 0 72.5 -22.5t31.5 -63.5q0 -29 -11 -43.5t-24 -24.5q-14 -10 -25.5 -15t-11.5 -16q0 -10 17.5 -17t40 -11t44 -6t28.5 -2q82 0 123.5 48t41.5 132q0 115 -47 164t-157 49q-23 0 -41.5 -1t-36.5 -1q-16 0 -15.5 16.5t13.5 20.5q20 2 39.5 2 t40.5 4q100 8 136 51t36 133q0 84 -27 116t-98 32h-23.5t-31 -3.5t-28 -9.5t-12.5 -18q0 -8 10.5 -12.5t22.5 -12.5q10 -10 20.5 -23.5t10.5 -41.5q0 -39 -26.5 -61.5t-67.5 -22.5q-37 0 -62.5 24.5t-25.5 59.5q0 72 68.5 113.5t185.5 41.5q45 0 97 -9t96 -30.5t73 -57.5 t29 -87q0 -47 -25 -80t-62.5 -55.5t-82.5 -35.5t-86 -21v-5q51 -8 106 -20t99 -34.5t73 -61.5t29 -101q0 -61 -36 -105t-93.5 -74t-129 -44t-143.5 -14q-59 0 -105 14t-79 36.5t-50.5 49.5t-17.5 53zM489 0l920 1362h107l-920 -1362h-107zM956 258q0 6 2.5 13.5t12.5 19.5 l409 526h133v-557h89q25 0 35 8t12 20.5t0 29t0 32.5h37v-213h-37v47.5t-6.5 25.5t-22.5 11t-49 2h-58v-186h105v-37h-426v37h117v186h-351q0 12 -1 20.5t-1 14.5zM999 260h310v404z" />
<glyph unicode="&#xbf;" horiz-adv-x="909" d="M92 -119q0 63 17.5 110.5t48 85.5t71.5 69.5t88 66.5q78 57 123 91t66.5 61.5t23.5 55.5t-10 71h53q12 -49 28.5 -109.5t16.5 -110.5q0 -88 -52 -160.5t-115 -136.5q-63 -63 -114.5 -120.5t-51.5 -110.5q0 -45 18.5 -73.5t47 -45t66.5 -22.5t75 -6q18 0 46.5 4t57.5 14 t50.5 25.5t25.5 40.5q0 6 -7.5 9t-19.5 7t-27.5 12t-29.5 25q-37 41 -37 94q0 61 41 89t96 28q59 0 95 -39t36 -99q0 -59 -35.5 -110t-83.5 -84q-61 -41 -110 -52.5t-121 -11.5q-74 0 -141.5 22.5t-119.5 66t-84 104.5t-32 139zM346 772q0 33 13.5 63.5t37 54t53 37 t64.5 13.5q33 0 64.5 -13.5t54 -36t37 -53t14.5 -65.5q0 -72 -50 -120t-120 -48t-119 50.5t-49 117.5z" />
<glyph unicode="&#xc0;" horiz-adv-x="1366" d="M4 0v61q18 0 43 1t48.5 6.5t43 17.5t27.5 35l483 1278h80l508 -1338h123v-61h-649v61h157l-110 322h-420l-53 -147q-16 -47 -28.5 -86t-12.5 -54q0 -18 24.5 -26.5t56 -10.5t62.5 0t41 2v-61h-424zM358 1866q0 37 27 63.5t64 26.5q35 0 62.5 -14.5t51 -37t45 -49 t41.5 -51.5l199 -227h-125l-281 180q-31 20 -57.5 44t-26.5 65zM365 444h368l-182 502z" />
<glyph unicode="&#xc1;" horiz-adv-x="1366" d="M4 0v61q18 0 43 1t48.5 6.5t43 17.5t27.5 35l483 1278h80l508 -1338h123v-61h-649v61h157l-110 322h-420l-53 -147q-16 -47 -28.5 -86t-12.5 -54q0 -18 24.5 -26.5t56 -10.5t62.5 0t41 2v-61h-424zM365 444h368l-182 502zM520 1577l199 227q20 25 41.5 51.5t45 49 t51.5 37t63 14.5q37 0 63.5 -26.5t26.5 -63.5q0 -41 -27 -64.5t-57 -44.5l-281 -180h-125z" />
<glyph unicode="&#xc2;" horiz-adv-x="1366" d="M4 0v61q18 0 43 1t48.5 6.5t43 17.5t27.5 35l483 1278h80l508 -1338h123v-61h-649v61h157l-110 322h-420l-53 -147q-16 -47 -28.5 -86t-12.5 -54q0 -18 24.5 -26.5t56 -10.5t62.5 0t41 2v-61h-424zM340 1569l248 356h190l252 -356l-4 -4h-115l-227 200l-235 -200h-105z M365 444h368l-182 502z" />
<glyph unicode="&#xc3;" horiz-adv-x="1366" d="M4 0v61q18 0 43 1t48.5 6.5t43 17.5t27.5 35l483 1278h80l508 -1338h123v-61h-649v61h157l-110 322h-420l-53 -147q-16 -47 -28.5 -86t-12.5 -54q0 -18 24.5 -26.5t56 -10.5t62.5 0t41 2v-61h-424zM311 1546q6 49 24.5 95.5t48.5 82t72 57t97 21.5q43 0 86 -15t84 -34 q41 -20 77 -35.5t64 -15.5q47 0 68.5 30.5t38.5 69.5h88q-12 -49 -30.5 -95t-47.5 -83t-71 -58.5t-99 -21.5q-47 0 -90 15.5t-84 33.5q-39 18 -76 33.5t-72 15.5q-33 0 -59.5 -28.5t-32.5 -67.5h-86zM365 444h368l-182 502z" />
<glyph unicode="&#xc4;" horiz-adv-x="1366" d="M4 0v61q18 0 43 1t48.5 6.5t43 17.5t27.5 35l483 1278h80l508 -1338h123v-61h-649v61h157l-110 322h-420l-53 -147q-16 -47 -28.5 -86t-12.5 -54q0 -18 24.5 -26.5t56 -10.5t62.5 0t41 2v-61h-424zM338 1669q0 53 37 93t90 40t93 -39t40 -94t-39 -94t-94 -39 q-53 0 -90 41t-37 92zM365 444h368l-182 502zM770 1669q0 53 37 93t90 40t93 -39t40 -94t-39 -94t-94 -39q-53 0 -90 41t-37 92z" />
<glyph unicode="&#xc5;" horiz-adv-x="1366" d="M4 0v61q18 0 43 1t48.5 6.5t43 17.5t27.5 35l483 1278h80l508 -1338h123v-61h-649v61h157l-110 322h-420l-53 -147q-16 -47 -28.5 -86t-12.5 -54q0 -18 24.5 -26.5t56 -10.5t62.5 0t41 2v-61h-424zM365 444h368l-182 502zM465 1677q0 43 17.5 83t47 70t68.5 47t84 17 t85 -17t69.5 -46t47 -69t17.5 -85q0 -47 -17.5 -87t-47 -68.5t-69.5 -46t-85 -17.5t-85 17.5t-68.5 47t-46 69.5t-17.5 85zM563 1677q0 -47 36 -82.5t83 -35.5t84 35.5t37 82.5t-37 82t-84 35t-83 -35t-36 -82z" />
<glyph unicode="&#xc6;" horiz-adv-x="2048" d="M43 0v61h88q35 0 48.5 13.5t27.5 40.5l346 714q16 35 40.5 83.5t48.5 99.5t40 99t16 85q0 47 -40 79t-119 32h-66v61h1401l12 -369h-69q-33 86 -68 145.5t-79 95.5t-101.5 51.5t-132.5 15.5h-193v-572q76 0 124 12.5t79 41t48 75.5t34 119h67v-582h-67q-10 74 -27.5 124 t-50.5 81t-82 44.5t-125 13.5v-603h201q119 0 193.5 27t119.5 78t70.5 121.5t46.5 161.5h63l-12 -449h-1196v61h170v529h-397q-6 -16 -24.5 -57t-43 -93.5t-51.5 -111t-49.5 -108.5t-36.5 -85t-14 -41q0 -10 10 -20.5t20 -10.5h113v-63h-383zM537 651h362v656h-45 q-78 -164 -159 -327t-158 -329z" />
<glyph unicode="&#xc7;" horiz-adv-x="1366" d="M109 696q0 63 22.5 140t63.5 156t99 152t130 130t157 91t177 34t175 -25.5t157 -85.5l69 80h70v-381h-60q-29 72 -63.5 135.5t-82.5 111.5t-110.5 75.5t-148.5 27.5q-72 0 -121 -19.5t-78.5 -85t-43 -192.5t-13.5 -344q0 -195 4 -322.5t29.5 -204.5t79 -107.5 t151.5 -30.5q88 0 154.5 28.5t117 79.5t85 120t59.5 147h69v-406h-73l-80 76q-72 -47 -153 -76t-167 -31l-45 -100q16 6 35 8t37 2q74 0 126 -34.5t52 -116.5q0 -53 -29.5 -87t-72.5 -53.5t-92.5 -26.5t-89.5 -7q-39 0 -92.5 11t-88.5 25l33 76q39 -16 73 -21t75 -5 q35 0 63.5 22.5t28.5 58.5q0 39 -27 56.5t-61 17.5q-16 0 -31.5 -2t-32.5 -6l-20 16l75 172q-123 14 -230.5 76t-187 157t-126.5 220t-47 268z" />
<glyph unicode="&#xc8;" horiz-adv-x="1366" d="M82 0v61h164v1246h-146v61h1121l12 -369h-70q-33 86 -67.5 145.5t-78.5 95.5t-101.5 51.5t-133.5 15.5h-192v-572q76 0 124 12.5t78.5 41t48 75.5t33.5 119h68v-582h-68q-10 74 -27.5 124t-50 81t-81.5 44.5t-125 13.5v-603h201q119 0 193.5 27t119.5 78t70.5 121.5 t46.5 161.5h63l-12 -449h-1190zM358 1866q0 37 27 63.5t64 26.5q35 0 62.5 -14.5t51 -37t45 -49t41.5 -51.5l199 -227h-125l-281 180q-31 20 -57.5 44t-26.5 65z" />
<glyph unicode="&#xc9;" horiz-adv-x="1366" d="M82 0v61h164v1246h-146v61h1121l12 -369h-70q-33 86 -67.5 145.5t-78.5 95.5t-101.5 51.5t-133.5 15.5h-192v-572q76 0 124 12.5t78.5 41t48 75.5t33.5 119h68v-582h-68q-10 74 -27.5 124t-50 81t-81.5 44.5t-125 13.5v-603h201q119 0 193.5 27t119.5 78t70.5 121.5 t46.5 161.5h63l-12 -449h-1190zM520 1577l199 227q20 25 41.5 51.5t45 49t51.5 37t63 14.5q37 0 63.5 -26.5t26.5 -63.5q0 -41 -27 -64.5t-57 -44.5l-281 -180h-125z" />
<glyph unicode="&#xca;" horiz-adv-x="1366" d="M82 0v61h164v1246h-146v61h1121l12 -369h-70q-33 86 -67.5 145.5t-78.5 95.5t-101.5 51.5t-133.5 15.5h-192v-572q76 0 124 12.5t78.5 41t48 75.5t33.5 119h68v-582h-68q-10 74 -27.5 124t-50 81t-81.5 44.5t-125 13.5v-603h201q119 0 193.5 27t119.5 78t70.5 121.5 t46.5 161.5h63l-12 -449h-1190zM340 1569l248 356h190l252 -356l-4 -4h-115l-227 200l-235 -200h-105z" />
<glyph unicode="&#xcb;" horiz-adv-x="1366" d="M82 0v61h164v1246h-146v61h1121l12 -369h-70q-33 86 -67.5 145.5t-78.5 95.5t-101.5 51.5t-133.5 15.5h-192v-572q76 0 124 12.5t78.5 41t48 75.5t33.5 119h68v-582h-68q-10 74 -27.5 124t-50 81t-81.5 44.5t-125 13.5v-603h201q119 0 193.5 27t119.5 78t70.5 121.5 t46.5 161.5h63l-12 -449h-1190zM338 1669q0 53 37 93t90 40t93 -39t40 -94t-39 -94t-94 -39q-53 0 -90 41t-37 92zM770 1669q0 53 37 93t90 40t93 -39t40 -94t-39 -94t-94 -39q-53 0 -90 41t-37 92z" />
<glyph unicode="&#xcc;" horiz-adv-x="796" d="M66 0v61h151v1246h-151v61h667v-61h-172v-1246h172v-61h-667zM74 1866q0 37 26.5 63.5t63.5 26.5q35 0 62.5 -14.5t51 -37t45 -49t42.5 -51.5l198 -227h-125l-280 180q-31 20 -57.5 44t-26.5 65z" />
<glyph unicode="&#xcd;" horiz-adv-x="796" d="M66 0v61h151v1246h-151v61h667v-61h-172v-1246h172v-61h-667zM236 1577l198 227q20 25 42 51.5t45.5 49t51 37t62.5 14.5q37 0 63.5 -26.5t26.5 -63.5q0 -41 -26.5 -64.5t-57.5 -44.5l-281 -180h-124z" />
<glyph unicode="&#xce;" horiz-adv-x="796" d="M55 1569l248 356h191l251 -356l-4 -4h-114l-228 200l-235 -200h-105zM66 0v61h151v1246h-151v61h667v-61h-172v-1246h172v-61h-667z" />
<glyph unicode="&#xcf;" horiz-adv-x="796" d="M53 1669q0 53 37 93t90 40t93 -39t40 -94t-39 -94t-94 -39q-53 0 -90 41t-37 92zM66 0v61h151v1246h-151v61h667v-61h-172v-1246h172v-61h-667zM485 1669q0 53 37 93t90 40t93 -39t40 -94t-39 -94t-94 -39q-53 0 -90 41t-37 92z" />
<glyph unicode="&#xd0;" horiz-adv-x="1593" d="M86 702v80h158v525h-154v61h762q133 0 250 -54t203 -147.5t135 -215.5t49 -257q0 -174 -54.5 -299t-140.5 -208t-190.5 -126t-204.5 -51q-51 -4 -102.5 -7t-104.5 -3h-602v61h154v641h-158zM588 61h194q133 0 199 52.5t92 138.5q14 45 18.5 95t4.5 108v481q0 61 -4.5 102 t-9.5 70t-12 47.5t-13 30.5q-29 66 -90.5 93.5t-184.5 27.5h-194v-525h248v-80h-248v-641z" />
<glyph unicode="&#xd1;" horiz-adv-x="1478" d="M61 0v61h99q53 4 63 33t10 74v1012q0 37 1.5 61.5t-7 38.5t-31 20.5t-67.5 6.5h-68v61h541l576 -811v690q0 14 -14.5 25.5t-35 19.5t-44 11.5t-42.5 3.5h-57v61h432v-61h-86q-92 0 -92 -60v-1278h-47l-877 1219v-1051q0 -39 20.5 -55t59.5 -21h117v-61h-451zM369 1546 q6 49 24.5 95.5t48 82t71.5 57t97 21.5q43 0 86 -15t84 -34q41 -20 77 -35.5t65 -15.5q47 0 68.5 30.5t37.5 69.5h88q-12 -49 -30.5 -95t-47 -83t-70.5 -58.5t-100 -21.5q-47 0 -90 15.5t-84 33.5q-39 18 -75.5 33.5t-71.5 15.5q-33 0 -59.5 -28.5t-32.5 -67.5h-86z" />
<glyph unicode="&#xd2;" horiz-adv-x="1593" d="M96 698q0 174 72 305.5t178.5 219.5t228.5 132t222 44q68 0 145.5 -19.5t155.5 -58.5t150.5 -97.5t128 -136t89 -175t33.5 -214.5q0 -152 -53 -284.5t-147.5 -231t-223.5 -156t-278 -57.5q-150 0 -278 57.5t-222 156t-147.5 231.5t-53.5 284zM473 1866q0 37 26.5 63.5 t63.5 26.5q35 0 62.5 -14.5t51 -37t45 -49t42.5 -51.5l199 -227h-125l-281 180q-31 20 -57.5 44t-26.5 65zM502 539q0 -160 6 -259.5t35.5 -154.5t89 -74.5t164.5 -19.5q104 0 164.5 19.5t89 74.5t36 154.5t7.5 259.5v344q0 139 -14.5 228t-49.5 139t-92 68.5t-141 18.5 t-141.5 -18.5t-91.5 -68.5t-48 -139t-14 -228v-344z" />
<glyph unicode="&#xd3;" horiz-adv-x="1593" d="M96 698q0 174 72 305.5t178.5 219.5t228.5 132t222 44q68 0 145.5 -19.5t155.5 -58.5t150.5 -97.5t128 -136t89 -175t33.5 -214.5q0 -152 -53 -284.5t-147.5 -231t-223.5 -156t-278 -57.5q-150 0 -278 57.5t-222 156t-147.5 231.5t-53.5 284zM502 539q0 -160 6 -259.5 t35.5 -154.5t89 -74.5t164.5 -19.5q104 0 164.5 19.5t89 74.5t36 154.5t7.5 259.5v344q0 139 -14.5 228t-49.5 139t-92 68.5t-141 18.5t-141.5 -18.5t-91.5 -68.5t-48 -139t-14 -228v-344zM635 1577l199 227q20 25 41.5 51.5t45 49t51 37t62.5 14.5q37 0 63.5 -26.5 t26.5 -63.5q0 -41 -26.5 -64.5t-57.5 -44.5l-280 -180h-125z" />
<glyph unicode="&#xd4;" horiz-adv-x="1593" d="M96 698q0 174 72 305.5t178.5 219.5t228.5 132t222 44q68 0 145.5 -19.5t155.5 -58.5t150.5 -97.5t128 -136t89 -175t33.5 -214.5q0 -152 -53 -284.5t-147.5 -231t-223.5 -156t-278 -57.5q-150 0 -278 57.5t-222 156t-147.5 231.5t-53.5 284zM455 1569l247 356h191 l252 -356l-4 -4h-115l-227 200l-236 -200h-104zM502 539q0 -160 6 -259.5t35.5 -154.5t89 -74.5t164.5 -19.5q104 0 164.5 19.5t89 74.5t36 154.5t7.5 259.5v344q0 139 -14.5 228t-49.5 139t-92 68.5t-141 18.5t-141.5 -18.5t-91.5 -68.5t-48 -139t-14 -228v-344z" />
<glyph unicode="&#xd5;" horiz-adv-x="1593" d="M96 698q0 174 72 305.5t178.5 219.5t228.5 132t222 44q68 0 145.5 -19.5t155.5 -58.5t150.5 -97.5t128 -136t89 -175t33.5 -214.5q0 -152 -53 -284.5t-147.5 -231t-223.5 -156t-278 -57.5q-150 0 -278 57.5t-222 156t-147.5 231.5t-53.5 284zM426 1546q6 49 24.5 95.5 t48 82t71.5 57t98 21.5q43 0 86 -15t84 -34q41 -20 76.5 -35.5t64.5 -15.5q47 0 68.5 30.5t37.5 69.5h89q-12 -49 -31 -95t-47.5 -83t-70.5 -58.5t-99 -21.5q-47 0 -90 15.5t-84 33.5q-39 18 -76 33.5t-72 15.5q-33 0 -59.5 -28.5t-32.5 -67.5h-86zM502 539q0 -160 6 -259.5 t35.5 -154.5t89 -74.5t164.5 -19.5q104 0 164.5 19.5t89 74.5t36 154.5t7.5 259.5v344q0 139 -14.5 228t-49.5 139t-92 68.5t-141 18.5t-141.5 -18.5t-91.5 -68.5t-48 -139t-14 -228v-344z" />
<glyph unicode="&#xd6;" horiz-adv-x="1593" d="M96 698q0 174 72 305.5t178.5 219.5t228.5 132t222 44q68 0 145.5 -19.5t155.5 -58.5t150.5 -97.5t128 -136t89 -175t33.5 -214.5q0 -152 -53 -284.5t-147.5 -231t-223.5 -156t-278 -57.5q-150 0 -278 57.5t-222 156t-147.5 231.5t-53.5 284zM453 1669q0 53 36.5 93 t90.5 40q53 0 93 -39t40 -94t-39 -94t-94 -39q-53 0 -90 41t-37 92zM502 539q0 -160 6 -259.5t35.5 -154.5t89 -74.5t164.5 -19.5q104 0 164.5 19.5t89 74.5t36 154.5t7.5 259.5v344q0 139 -14.5 228t-49.5 139t-92 68.5t-141 18.5t-141.5 -18.5t-91.5 -68.5t-48 -139 t-14 -228v-344zM885 1669q0 53 36.5 93t90.5 40q53 0 93 -39t40 -94t-39 -94t-94 -39q-53 0 -90 41t-37 92z" />
<glyph unicode="&#xd7;" d="M59 119l336 338l-336 338l117 116l336 -338l336 338l117 -116l-336 -338l336 -338l-117 -117l-336 338l-336 -338z" />
<glyph unicode="&#xd8;" horiz-adv-x="1593" d="M96 698q0 174 72 305.5t178.5 219.5t228 132t222.5 44q80 0 174 -28t186 -85l111 160h106l-145 -209q57 -43 106 -98.5t86 -123t57.5 -146t20.5 -171.5q0 -152 -53 -284.5t-147.5 -231t-223.5 -156t-278 -57.5q-104 0 -198.5 28t-174.5 81l-154 -221h-106l188 274 q-121 102 -188.5 247.5t-67.5 319.5zM502 432.5q0 -47.5 4 -82.5l561 807q-27 106 -91.5 143t-178.5 37q-84 0 -141.5 -18.5t-91.5 -68.5t-48 -139t-14 -228v-344v-106.5zM518 215q10 -55 29.5 -91t51.5 -56.5t81 -28.5t117 -8q104 0 164.5 19.5t89 74.5t36 154.5t7.5 259.5 v344q0 90 -7 151z" />
<glyph unicode="&#xd9;" horiz-adv-x="1478" d="M53 1307v61h678v-61h-172v-992q0 -72 11.5 -124t42 -87.5t85 -54t140.5 -18.5q61 0 108 12t83 31.5t61.5 44t42.5 47.5q18 18 27 56t13.5 88t5.5 109.5t1 123.5v688q0 31 -23.5 53.5t-69.5 22.5h-92v61h432v-61h-122q-35 0 -49.5 -22.5t-14.5 -53.5v-842 q0 -78 -13.5 -153.5t-66.5 -135.5q-57 -63 -155.5 -97t-272.5 -34q-127 0 -223 23.5t-161.5 77t-99.5 138.5t-34 210v889h-162zM416 1866q0 37 26.5 63.5t63.5 26.5q35 0 62.5 -14.5t51 -37t45 -49t42.5 -51.5l198 -227h-125l-280 180q-31 20 -57.5 44t-26.5 65z" />
<glyph unicode="&#xda;" horiz-adv-x="1478" d="M53 1307v61h678v-61h-172v-992q0 -72 11.5 -124t42 -87.5t85 -54t140.5 -18.5q61 0 108 12t83 31.5t61.5 44t42.5 47.5q18 18 27 56t13.5 88t5.5 109.5t1 123.5v688q0 31 -23.5 53.5t-69.5 22.5h-92v61h432v-61h-122q-35 0 -49.5 -22.5t-14.5 -53.5v-842 q0 -78 -13.5 -153.5t-66.5 -135.5q-57 -63 -155.5 -97t-272.5 -34q-127 0 -223 23.5t-161.5 77t-99.5 138.5t-34 210v889h-162zM578 1577l198 227q20 25 42 51.5t45.5 49t51 37t62.5 14.5q37 0 63.5 -26.5t26.5 -63.5q0 -41 -26.5 -64.5t-57.5 -44.5l-281 -180h-124z" />
<glyph unicode="&#xdb;" horiz-adv-x="1478" d="M53 1307v61h678v-61h-172v-992q0 -72 11.5 -124t42 -87.5t85 -54t140.5 -18.5q61 0 108 12t83 31.5t61.5 44t42.5 47.5q18 18 27 56t13.5 88t5.5 109.5t1 123.5v688q0 31 -23.5 53.5t-69.5 22.5h-92v61h432v-61h-122q-35 0 -49.5 -22.5t-14.5 -53.5v-842 q0 -78 -13.5 -153.5t-66.5 -135.5q-57 -63 -155.5 -97t-272.5 -34q-127 0 -223 23.5t-161.5 77t-99.5 138.5t-34 210v889h-162zM397 1569l248 356h191l251 -356l-4 -4h-114l-228 200l-235 -200h-105z" />
<glyph unicode="&#xdc;" horiz-adv-x="1478" d="M53 1307v61h678v-61h-172v-992q0 -72 11.5 -124t42 -87.5t85 -54t140.5 -18.5q61 0 108 12t83 31.5t61.5 44t42.5 47.5q18 18 27 56t13.5 88t5.5 109.5t1 123.5v688q0 31 -23.5 53.5t-69.5 22.5h-92v61h432v-61h-122q-35 0 -49.5 -22.5t-14.5 -53.5v-842 q0 -78 -13.5 -153.5t-66.5 -135.5q-57 -63 -155.5 -97t-272.5 -34q-127 0 -223 23.5t-161.5 77t-99.5 138.5t-34 210v889h-162zM395 1669q0 53 37 93t90 40t93 -39t40 -94t-39 -94t-94 -39q-53 0 -90 41t-37 92zM827 1669q0 53 37 93t90 40t93 -39t40 -94t-39 -94t-94 -39 q-53 0 -90 41t-37 92z" />
<glyph unicode="&#xdd;" horiz-adv-x="1366" d="M12 1307v61h654v-61h-154l328 -555l260 501q12 23 -6.5 38.5t-51.5 15.5h-120v61h432v-61h-76q-23 0 -38 -3.5t-29.5 -14.5t-30 -33.5t-35.5 -61.5l-271 -526v-607h181v-61h-697v61h172v555l-393 691h-125zM582 1577l198 227q20 25 42 51.5t45.5 49t51 37t62.5 14.5 q37 0 63.5 -26.5t26.5 -63.5q0 -41 -26.5 -64.5t-57.5 -44.5l-280 -180h-125z" />
<glyph unicode="&#xde;" horiz-adv-x="1366" d="M78 0v61h153v1246h-153v61h682v-61h-185v-189h265q131 0 224 -31.5t151.5 -83t86 -113t27.5 -122.5q0 -123 -64.5 -198.5t-159.5 -117.5t-204.5 -55.5t-202.5 -13.5h-123v-322h185v-61h-682zM575 444h142q61 0 105 7.5t72 27t41 56t13 98.5v235q0 61 -13 98.5t-41 56.5 t-72 26.5t-105 7.5h-142v-613z" />
<glyph unicode="&#xdf;" horiz-adv-x="1138" d="M20 0v61h111v920q0 182 120 284.5t324 102.5q115 0 197 -31.5t134 -78t77 -98.5t25 -93q0 -82 -26 -136t-71 -91t-106.5 -58.5t-130.5 -38.5v-4q88 -10 162.5 -35.5t129 -71.5t85 -114.5t30.5 -167.5q0 -70 -22.5 -137.5t-68.5 -121.5t-113.5 -87t-157.5 -33 q-41 0 -83 11.5t-77 34t-56.5 56t-21.5 81.5q0 43 27 79.5t74 36.5q43 0 67.5 -25.5t24.5 -68.5q0 -25 -9.5 -43t-19.5 -32.5t-19.5 -24.5t-9.5 -19q0 -18 17.5 -23t32.5 -5q47 0 75.5 35.5t28.5 76.5v353q0 125 -54 172t-177 47q-10 0 -16.5 7t-8.5 16t1 17.5t9 8.5 q39 4 74 8t61.5 16.5t42 36t15.5 68.5v270q0 76 -41 113t-115 37q-53 0 -82.5 -22.5t-44 -57.5t-17.5 -78t-3 -84v-1069h-394z" />
<glyph unicode="&#xe0;" d="M90 160q0 90 56.5 148.5t137.5 92t171 47t157 15.5v137q0 39 -1 70.5t-13 54.5t-42 34t-87 11q-8 0 -26.5 -2t-37 -8t-32 -15.5t-13.5 -23.5q0 -8 6.5 -19.5t14.5 -23.5t14 -25.5t6 -25.5q0 -66 -32.5 -105t-98.5 -39q-53 0 -92 33t-39 90q0 61 37 102.5t90 67 t113.5 36.5t107.5 11q98 0 170 -12t118 -32.5t67.5 -44t21.5 -46.5v-498q0 -33 8.5 -63.5t51.5 -30.5q10 0 27.5 9.5t23.5 19.5l37 -39q-41 -66 -90.5 -91.5t-122.5 -25.5q-33 0 -62.5 13.5t-54.5 33t-41 45t-25 50.5q-53 -63 -127.5 -102.5t-158.5 -39.5q-41 0 -84 12.5 t-78 36t-56.5 59.5t-21.5 83zM188 1309q0 37 27 63.5t64 26.5q35 0 62.5 -14.5t51 -37t45 -49t41.5 -51.5l199 -227h-125l-281 180q-31 20 -57.5 44t-26.5 65zM352 248q0 -27 7.5 -55.5t21.5 -52t36.5 -39t53.5 -15.5q72 0 106.5 39t34.5 80v209q-41 -2 -87 -8.5t-85 -22.5 t-63.5 -48t-24.5 -87z" />
<glyph unicode="&#xe1;" d="M90 160q0 90 56.5 148.5t137.5 92t171 47t157 15.5v137q0 39 -1 70.5t-13 54.5t-42 34t-87 11q-8 0 -26.5 -2t-37 -8t-32 -15.5t-13.5 -23.5q0 -8 6.5 -19.5t14.5 -23.5t14 -25.5t6 -25.5q0 -66 -32.5 -105t-98.5 -39q-53 0 -92 33t-39 90q0 61 37 102.5t90 67 t113.5 36.5t107.5 11q98 0 170 -12t118 -32.5t67.5 -44t21.5 -46.5v-498q0 -33 8.5 -63.5t51.5 -30.5q10 0 27.5 9.5t23.5 19.5l37 -39q-41 -66 -90.5 -91.5t-122.5 -25.5q-33 0 -62.5 13.5t-54.5 33t-41 45t-25 50.5q-53 -63 -127.5 -102.5t-158.5 -39.5q-41 0 -84 12.5 t-78 36t-56.5 59.5t-21.5 83zM350 1020l199 227q20 25 41.5 51.5t45 49t51.5 37t63 14.5q37 0 63.5 -26.5t26.5 -63.5q0 -41 -27 -64.5t-57 -44.5l-281 -180h-125zM352 248q0 -27 7.5 -55.5t21.5 -52t36.5 -39t53.5 -15.5q72 0 106.5 39t34.5 80v209q-41 -2 -87 -8.5 t-85 -22.5t-63.5 -48t-24.5 -87z" />
<glyph unicode="&#xe2;" d="M90 160q0 90 56.5 148.5t137.5 92t171 47t157 15.5v137q0 39 -1 70.5t-13 54.5t-42 34t-87 11q-8 0 -26.5 -2t-37 -8t-32 -15.5t-13.5 -23.5q0 -8 6.5 -19.5t14.5 -23.5t14 -25.5t6 -25.5q0 -66 -32.5 -105t-98.5 -39q-53 0 -92 33t-39 90q0 61 37 102.5t90 67 t113.5 36.5t107.5 11q98 0 170 -12t118 -32.5t67.5 -44t21.5 -46.5v-498q0 -33 8.5 -63.5t51.5 -30.5q10 0 27.5 9.5t23.5 19.5l37 -39q-41 -66 -90.5 -91.5t-122.5 -25.5q-33 0 -62.5 13.5t-54.5 33t-41 45t-25 50.5q-53 -63 -127.5 -102.5t-158.5 -39.5q-41 0 -84 12.5 t-78 36t-56.5 59.5t-21.5 83zM170 1012l248 356h190l252 -356l-4 -4h-115l-227 200l-235 -200h-105zM352 248q0 -27 7.5 -55.5t21.5 -52t36.5 -39t53.5 -15.5q72 0 106.5 39t34.5 80v209q-41 -2 -87 -8.5t-85 -22.5t-63.5 -48t-24.5 -87z" />
<glyph unicode="&#xe3;" d="M90 160q0 90 56.5 148.5t137.5 92t171 47t157 15.5v137q0 39 -1 70.5t-13 54.5t-42 34t-87 11q-8 0 -26.5 -2t-37 -8t-32 -15.5t-13.5 -23.5q0 -8 6.5 -19.5t14.5 -23.5t14 -25.5t6 -25.5q0 -66 -32.5 -105t-98.5 -39q-53 0 -92 33t-39 90q0 61 37 102.5t90 67 t113.5 36.5t107.5 11q98 0 170 -12t118 -32.5t67.5 -44t21.5 -46.5v-498q0 -33 8.5 -63.5t51.5 -30.5q10 0 27.5 9.5t23.5 19.5l37 -39q-41 -66 -90.5 -91.5t-122.5 -25.5q-33 0 -62.5 13.5t-54.5 33t-41 45t-25 50.5q-53 -63 -127.5 -102.5t-158.5 -39.5q-41 0 -84 12.5 t-78 36t-56.5 59.5t-21.5 83zM141 1030q6 49 24.5 95t48.5 82t72 57.5t97 21.5q43 0 86 -15.5t84 -33.5q41 -20 77 -35.5t64 -15.5q47 0 68.5 30.5t38.5 69.5h88q-12 -49 -30.5 -95t-47.5 -83t-71 -58.5t-99 -21.5q-47 0 -90 15.5t-84 33.5q-39 18 -76 33.5t-72 15.5 q-33 0 -59.5 -28.5t-32.5 -67.5h-86zM352 248q0 -27 7.5 -55.5t21.5 -52t36.5 -39t53.5 -15.5q72 0 106.5 39t34.5 80v209q-41 -2 -87 -8.5t-85 -22.5t-63.5 -48t-24.5 -87z" />
<glyph unicode="&#xe4;" d="M90 160q0 90 56.5 148.5t137.5 92t171 47t157 15.5v137q0 39 -1 70.5t-13 54.5t-42 34t-87 11q-8 0 -26.5 -2t-37 -8t-32 -15.5t-13.5 -23.5q0 -8 6.5 -19.5t14.5 -23.5t14 -25.5t6 -25.5q0 -66 -32.5 -105t-98.5 -39q-53 0 -92 33t-39 90q0 61 37 102.5t90 67 t113.5 36.5t107.5 11q98 0 170 -12t118 -32.5t67.5 -44t21.5 -46.5v-498q0 -33 8.5 -63.5t51.5 -30.5q10 0 27.5 9.5t23.5 19.5l37 -39q-41 -66 -90.5 -91.5t-122.5 -25.5q-33 0 -62.5 13.5t-54.5 33t-41 45t-25 50.5q-53 -63 -127.5 -102.5t-158.5 -39.5q-41 0 -84 12.5 t-78 36t-56.5 59.5t-21.5 83zM168 1153q0 53 37 93t90 40t93 -39t40 -94t-39 -94t-94 -39q-53 0 -90 41t-37 92zM352 248q0 -27 7.5 -55.5t21.5 -52t36.5 -39t53.5 -15.5q72 0 106.5 39t34.5 80v209q-41 -2 -87 -8.5t-85 -22.5t-63.5 -48t-24.5 -87zM600 1153q0 53 37 93 t90 40t93 -39t40 -94t-39 -94t-94 -39q-53 0 -90 41t-37 92z" />
<glyph unicode="&#xe5;" d="M90 160q0 90 56.5 148.5t137.5 92t171 47t157 15.5v137q0 39 -1 70.5t-13 54.5t-42 34t-87 11q-8 0 -26.5 -2t-37 -8t-32 -15.5t-13.5 -23.5q0 -8 6.5 -19.5t14.5 -23.5t14 -25.5t6 -25.5q0 -66 -32.5 -105t-98.5 -39q-53 0 -92 33t-39 90q0 61 37 102.5t90 67 t113.5 36.5t107.5 11q98 0 170 -12t118 -32.5t67.5 -44t21.5 -46.5v-498q0 -33 8.5 -63.5t51.5 -30.5q10 0 27.5 9.5t23.5 19.5l37 -39q-41 -66 -90.5 -91.5t-122.5 -25.5q-33 0 -62.5 13.5t-54.5 33t-41 45t-25 50.5q-53 -63 -127.5 -102.5t-158.5 -39.5q-41 0 -84 12.5 t-78 36t-56.5 59.5t-21.5 83zM295 1182q0 43 17.5 83t47 69.5t68.5 47t84 17.5t85 -17.5t69.5 -46t47 -68.5t17.5 -85q0 -47 -17.5 -87t-47 -69t-69.5 -46t-85 -17t-85 17t-68.5 47t-46 70t-17.5 85zM352 248q0 -27 7.5 -55.5t21.5 -52t36.5 -39t53.5 -15.5q72 0 106.5 39 t34.5 80v209q-41 -2 -87 -8.5t-85 -22.5t-63.5 -48t-24.5 -87zM393 1182q0 -47 36 -83t83 -36t84 36t37 83t-37 81.5t-84 34.5t-83 -34.5t-36 -81.5z" />
<glyph unicode="&#xe6;" horiz-adv-x="1478" d="M74 158q0 94 54 151.5t133 91t167 47t158 19.5v225q0 29 -14.5 44.5t-35 23.5t-43 9t-38.5 1q-10 0 -29.5 -1t-38 -5t-33 -12.5t-14.5 -22.5q0 -10 6 -20.5t16 -24.5q20 -33 21 -72q0 -61 -42 -92t-95 -31t-86 40t-33 89q0 63 37 103.5t90 63t114.5 30.5t108.5 8 q88 0 150.5 -20.5t132.5 -73.5q47 49 110.5 71.5t128.5 22.5q70 0 141.5 -25.5t130 -71.5t95.5 -108.5t37 -138.5q0 -18 -3 -33.5t-20 -15.5h-524v-264q0 -80 43 -111.5t123 -31.5q123 0 212 59t124 180l47 -16q-41 -143 -147.5 -210t-249.5 -67q-51 0 -107.5 8.5t-109 29 t-97.5 54t-76 82.5q-45 -84 -130 -129t-177 -45q-43 0 -86 10.5t-76.5 33t-54 58t-20.5 87.5zM330 240q0 -70 38 -112t105 -42q47 0 80 43t33 109v176q-51 -6 -97.5 -9.5t-82 -18.5t-56 -49t-20.5 -97zM856 483h268v201q0 41 -34.5 63.5t-108.5 22.5q-66 0 -95.5 -26.5 t-29.5 -67.5v-193z" />
<glyph unicode="&#xe7;" d="M102 387q0 94 39 174t103.5 138.5t149.5 91t175 32.5q84 0 145.5 -23.5t101.5 -58t58.5 -72.5t18.5 -69q0 -66 -41 -103.5t-102 -37.5q-59 0 -97.5 41t-38.5 100q0 23 11.5 46.5t23.5 33.5q10 6 18.5 17.5t8.5 27.5q0 14 -12.5 23.5t-30 14.5t-35.5 6t-31 1 q-35 0 -62.5 -7t-47 -29.5t-30.5 -65.5t-11 -117v-264q0 -80 6 -131.5t23.5 -81t48 -40.5t79.5 -11q121 0 189.5 63.5t116.5 171.5l45 -25q-41 -115 -130 -186.5t-210 -75.5l-45 -102q16 6 34.5 8t36.5 2q74 0 126 -34.5t52 -116.5q0 -53 -29.5 -87t-72.5 -53.5t-92 -26.5 t-90 -7q-39 0 -92.5 11t-87.5 25l32 76q39 -16 73 -21t75 -5q35 0 63.5 22.5t28.5 58.5q0 39 -26.5 56.5t-61.5 17.5q-16 0 -31.5 -2t-32.5 -6l-20 16l76 172q-76 10 -147.5 45t-127 89.5t-89.5 125t-34 152.5z" />
<glyph unicode="&#xe8;" d="M72 391q0 104 42 185t109.5 135.5t153.5 83t174 28.5q76 0 147.5 -25.5t127 -71.5t89 -111.5t33.5 -145.5q0 -18 -10 -26.5t-25.5 -11.5t-32 -2t-28.5 1h-449v-264q0 -80 43 -111.5t123 -31.5q123 0 212 59t124 180l47 -16q-41 -143 -147.5 -210t-249.5 -67 q-96 0 -183 27t-153.5 80t-106.5 132t-40 183zM188 1309q0 37 27 63.5t64 26.5q35 0 62.5 -14.5t51 -37t45 -49t41.5 -51.5l199 -227h-125l-281 180q-31 20 -57.5 44t-26.5 65zM403 483h269v201q0 41 -35 63.5t-109 22.5q-66 0 -95.5 -26.5t-29.5 -67.5v-193z" />
<glyph unicode="&#xe9;" d="M72 391q0 104 42 185t109.5 135.5t153.5 83t174 28.5q76 0 147.5 -25.5t127 -71.5t89 -111.5t33.5 -145.5q0 -18 -10 -26.5t-25.5 -11.5t-32 -2t-28.5 1h-449v-264q0 -80 43 -111.5t123 -31.5q123 0 212 59t124 180l47 -16q-41 -143 -147.5 -210t-249.5 -67 q-96 0 -183 27t-153.5 80t-106.5 132t-40 183zM350 1020l199 227q20 25 41.5 51.5t45 49t51.5 37t63 14.5q37 0 63.5 -26.5t26.5 -63.5q0 -41 -27 -64.5t-57 -44.5l-281 -180h-125zM403 483h269v201q0 41 -35 63.5t-109 22.5q-66 0 -95.5 -26.5t-29.5 -67.5v-193z" />
<glyph unicode="&#xea;" d="M72 391q0 104 42 185t109.5 135.5t153.5 83t174 28.5q76 0 147.5 -25.5t127 -71.5t89 -111.5t33.5 -145.5q0 -18 -10 -26.5t-25.5 -11.5t-32 -2t-28.5 1h-449v-264q0 -80 43 -111.5t123 -31.5q123 0 212 59t124 180l47 -16q-41 -143 -147.5 -210t-249.5 -67 q-96 0 -183 27t-153.5 80t-106.5 132t-40 183zM170 1012l248 356h190l252 -356l-4 -4h-115l-227 200l-235 -200h-105zM403 483h269v201q0 41 -35 63.5t-109 22.5q-66 0 -95.5 -26.5t-29.5 -67.5v-193z" />
<glyph unicode="&#xeb;" d="M72 391q0 104 42 185t109.5 135.5t153.5 83t174 28.5q76 0 147.5 -25.5t127 -71.5t89 -111.5t33.5 -145.5q0 -18 -10 -26.5t-25.5 -11.5t-32 -2t-28.5 1h-449v-264q0 -80 43 -111.5t123 -31.5q123 0 212 59t124 180l47 -16q-41 -143 -147.5 -210t-249.5 -67 q-96 0 -183 27t-153.5 80t-106.5 132t-40 183zM168 1153q0 53 37 93t90 40t93 -39t40 -94t-39 -94t-94 -39q-53 0 -90 41t-37 92zM403 483h269v201q0 41 -35 63.5t-109 22.5q-66 0 -95.5 -26.5t-29.5 -67.5v-193zM600 1153q0 53 37 93t90 40t93 -39t40 -94t-39 -94t-94 -39 q-53 0 -90 41t-37 92z" />
<glyph unicode="&#xec;" horiz-adv-x="569" d="M-39 1309q0 37 26.5 63.5t63.5 26.5q35 0 62.5 -14.5t51 -37t45 -49t42.5 -51.5l199 -227h-125l-281 180q-31 20 -57.5 44t-26.5 65zM10 754v57h142q35 0 70.5 1t70.5 3t70.5 3t70.5 1v-762h125v-57h-541v57h134v697h-142z" />
<glyph unicode="&#xed;" horiz-adv-x="569" d="M10 754v57h142q35 0 70.5 1t70.5 3t70.5 3t70.5 1v-762h125v-57h-541v57h134v697h-142zM123 1020l199 227q20 25 41.5 51.5t45 49t51 37t62.5 14.5q37 0 63.5 -26.5t26.5 -63.5q0 -41 -26.5 -64.5t-57.5 -44.5l-280 -180h-125z" />
<glyph unicode="&#xee;" horiz-adv-x="569" d="M-57 1012l247 356h191l252 -356l-4 -4h-115l-227 200l-236 -200h-104zM10 754v57h142q35 0 70.5 1t70.5 3t70.5 3t70.5 1v-762h125v-57h-541v57h134v697h-142z" />
<glyph unicode="&#xef;" horiz-adv-x="569" d="M-59 1153q0 53 36.5 93t90.5 40q53 0 93 -39t40 -94t-39 -94t-94 -39q-53 0 -90 41t-37 92zM10 754v57h142q35 0 70.5 1t70.5 3t70.5 3t70.5 1v-762h125v-57h-541v57h134v697h-142zM373 1153q0 53 36.5 93t90.5 40q53 0 93 -39t40 -94t-39 -94t-94 -39q-53 0 -90 41 t-37 92z" />
<glyph unicode="&#xf0;" horiz-adv-x="1138" d="M78 389q0 100 42 181t111.5 137.5t157.5 86t180 29.5q57 0 92 -9t68 -32q-14 94 -58 186.5t-91 157.5l-197 -108l-59 72l192 106q-23 18 -52.5 35.5t-60 33t-57.5 25.5t-45 15l25 63q86 -12 166.5 -37.5t166.5 -66.5l189 104l55 -68l-164 -90q150 -125 236 -301t86 -422 q0 -94 -28.5 -186t-88 -166t-153 -120t-222.5 -46q-111 0 -200.5 34t-154 91.5t-100.5 134t-36 160.5zM410 174q0 -90 43 -120.5t116 -30.5q74 0 117 30.5t43 120.5v436q0 94 -37 127t-123 33q-76 0 -117.5 -32.5t-41.5 -127.5v-436z" />
<glyph unicode="&#xf1;" horiz-adv-x="1138" d="M27 0v57h131v697h-131v57h131q70 0 137 4t137 4v-188q66 113 149 152.5t187 39.5q47 0 89 -8t74 -29.5t50 -60.5t18 -98v-570h127v-57h-512v57h111v523q0 98 -22.5 128.5t-65.5 30.5q-49 0 -87 -27.5t-64.5 -69.5t-40 -91t-13.5 -92v-402h109v-57h-514zM199 1030 q6 49 24.5 95t48 82t71.5 57.5t97 21.5q43 0 86 -15.5t84 -33.5q41 -20 77 -35.5t65 -15.5q47 0 68.5 30.5t37.5 69.5h88q-12 -49 -30.5 -95t-47 -83t-70.5 -58.5t-100 -21.5q-47 0 -90 15.5t-84 33.5q-39 18 -75.5 33.5t-71.5 15.5q-33 0 -59.5 -28.5t-32.5 -67.5h-86z" />
<glyph unicode="&#xf2;" horiz-adv-x="1138" d="M78 389q0 100 42 181t111.5 137.5t157.5 86t180 29.5t180.5 -29.5t158 -86t111.5 -137.5t42 -181q0 -98 -40 -177t-107.5 -132t-156.5 -82t-188 -29q-111 0 -200.5 34t-154 91.5t-100.5 134t-36 160.5zM246 1309q0 37 26.5 63.5t63.5 26.5q35 0 62.5 -14.5t51 -37t45 -49 t42.5 -51.5l198 -227h-125l-280 180q-31 20 -57.5 44t-26.5 65zM410 174q0 -90 43 -120.5t116 -30.5q74 0 117 30.5t43 120.5v436q0 47 -6 78t-22.5 49.5t-48 25.5t-83.5 7q-94 0 -126.5 -32.5t-32.5 -127.5v-436z" />
<glyph unicode="&#xf3;" horiz-adv-x="1138" d="M78 389q0 100 42 181t111.5 137.5t157.5 86t180 29.5t180.5 -29.5t158 -86t111.5 -137.5t42 -181q0 -98 -40 -177t-107.5 -132t-156.5 -82t-188 -29q-111 0 -200.5 34t-154 91.5t-100.5 134t-36 160.5zM408 1020l198 227q20 25 42 51.5t45.5 49t51 37t62.5 14.5 q37 0 63.5 -26.5t26.5 -63.5q0 -41 -26.5 -64.5t-57.5 -44.5l-281 -180h-124zM410 174q0 -90 43 -120.5t116 -30.5q74 0 117 30.5t43 120.5v436q0 47 -6 78t-22.5 49.5t-48 25.5t-83.5 7q-94 0 -126.5 -32.5t-32.5 -127.5v-436z" />
<glyph unicode="&#xf4;" horiz-adv-x="1138" d="M78 389q0 100 42 181t111.5 137.5t157.5 86t180 29.5t180.5 -29.5t158 -86t111.5 -137.5t42 -181q0 -98 -40 -177t-107.5 -132t-156.5 -82t-188 -29q-111 0 -200.5 34t-154 91.5t-100.5 134t-36 160.5zM227 1012l248 356h191l252 -356l-5 -4h-114l-228 200l-235 -200 h-105zM410 174q0 -90 43 -120.5t116 -30.5q74 0 117 30.5t43 120.5v436q0 47 -6 78t-22.5 49.5t-48 25.5t-83.5 7q-94 0 -126.5 -32.5t-32.5 -127.5v-436z" />
<glyph unicode="&#xf5;" horiz-adv-x="1138" d="M78 389q0 100 42 181t111.5 137.5t157.5 86t180 29.5t180.5 -29.5t158 -86t111.5 -137.5t42 -181q0 -98 -40 -177t-107.5 -132t-156.5 -82t-188 -29q-111 0 -200.5 34t-154 91.5t-100.5 134t-36 160.5zM199 1030q6 49 24.5 95t48 82t71.5 57.5t97 21.5q43 0 86 -15.5 t84 -33.5q41 -20 77 -35.5t65 -15.5q47 0 68.5 30.5t37.5 69.5h88q-12 -49 -30.5 -95t-47 -83t-70.5 -58.5t-100 -21.5q-47 0 -90 15.5t-84 33.5q-39 18 -75.5 33.5t-71.5 15.5q-33 0 -59.5 -28.5t-32.5 -67.5h-86zM410 174q0 -90 43 -120.5t116 -30.5q74 0 117 30.5 t43 120.5v436q0 47 -6 78t-22.5 49.5t-48 25.5t-83.5 7q-94 0 -126.5 -32.5t-32.5 -127.5v-436z" />
<glyph unicode="&#xf6;" horiz-adv-x="1138" d="M78 389q0 100 42 181t111.5 137.5t157.5 86t180 29.5t180.5 -29.5t158 -86t111.5 -137.5t42 -181q0 -98 -40 -177t-107.5 -132t-156.5 -82t-188 -29q-111 0 -200.5 34t-154 91.5t-100.5 134t-36 160.5zM225 1153q0 53 37 93t90 40t93 -39t40 -94t-39 -94t-94 -39 q-53 0 -90 41t-37 92zM410 174q0 -90 43 -120.5t116 -30.5q74 0 117 30.5t43 120.5v436q0 47 -6 78t-22.5 49.5t-48 25.5t-83.5 7q-94 0 -126.5 -32.5t-32.5 -127.5v-436zM657 1153q0 53 37 93t90 40t93.5 -39t40.5 -94t-39.5 -94t-94.5 -39q-53 0 -90 41t-37 92z" />
<glyph unicode="&#xf7;" d="M59 373v166h908v-166h-908zM387 135q0 53 37 93t90 40t93 -39t40 -94t-39 -94t-94 -39q-53 0 -90 41t-37 92zM387 776q0 53 37 93t90 40t93 -39t40 -94t-39 -94t-94 -39q-53 0 -90 41t-37 92z" />
<glyph unicode="&#xf8;" horiz-adv-x="1138" d="M78 389q0 100 42 181t111.5 137.5t157.5 86t180 29.5q100 0 193 -35l119 197h90l-137 -229q98 -53 162.5 -146.5t64.5 -220.5q0 -98 -40 -177t-107.5 -132t-156.5 -82t-188 -29q-104 0 -188 33l-131 -217h-90l149 248q-111 53 -171 148t-60 208zM410 201l307 512 q-14 33 -48 45t-100 12q-94 0 -126.5 -32.5t-32.5 -127.5v-409zM430 84q18 -35 54 -48t85 -13q74 0 117 30.5t43 120.5v408z" />
<glyph unicode="&#xf9;" horiz-adv-x="1138" d="M6 754v57h141q35 0 71 1t71 3t70.5 3t70.5 1v-571v-78t6 -61.5t23.5 -41t52.5 -14.5q43 0 80 25.5t63.5 61.5t42 74t15.5 62v478h-142v57h142q35 0 70.5 1t70.5 3t71 3t70 1v-762h138v-57h-138q-35 0 -70.5 -3t-70.5 -7t-70.5 -7t-70.5 -3v176h-4q-37 -98 -123 -142.5 t-191 -44.5q-94 0 -144 21.5t-73.5 61.5t-27 99.5t-3.5 135.5v467h-141zM246 1309q0 37 26.5 63.5t63.5 26.5q35 0 62.5 -14.5t51 -37t45 -49t42.5 -51.5l198 -227h-125l-280 180q-31 20 -57.5 44t-26.5 65z" />
<glyph unicode="&#xfa;" horiz-adv-x="1138" d="M6 754v57h141q35 0 71 1t71 3t70.5 3t70.5 1v-571v-78t6 -61.5t23.5 -41t52.5 -14.5q43 0 80 25.5t63.5 61.5t42 74t15.5 62v478h-142v57h142q35 0 70.5 1t70.5 3t71 3t70 1v-762h138v-57h-138q-35 0 -70.5 -3t-70.5 -7t-70.5 -7t-70.5 -3v176h-4q-37 -98 -123 -142.5 t-191 -44.5q-94 0 -144 21.5t-73.5 61.5t-27 99.5t-3.5 135.5v467h-141zM408 1020l198 227q20 25 42 51.5t45.5 49t51 37t62.5 14.5q37 0 63.5 -26.5t26.5 -63.5q0 -41 -26.5 -64.5t-57.5 -44.5l-281 -180h-124z" />
<glyph unicode="&#xfb;" horiz-adv-x="1138" d="M6 754v57h141q35 0 71 1t71 3t70.5 3t70.5 1v-571v-78t6 -61.5t23.5 -41t52.5 -14.5q43 0 80 25.5t63.5 61.5t42 74t15.5 62v478h-142v57h142q35 0 70.5 1t70.5 3t71 3t70 1v-762h138v-57h-138q-35 0 -70.5 -3t-70.5 -7t-70.5 -7t-70.5 -3v176h-4q-37 -98 -123 -142.5 t-191 -44.5q-94 0 -144 21.5t-73.5 61.5t-27 99.5t-3.5 135.5v467h-141zM227 1012l248 356h191l252 -356l-5 -4h-114l-228 200l-235 -200h-105z" />
<glyph unicode="&#xfc;" horiz-adv-x="1138" d="M6 754v57h141q35 0 71 1t71 3t70.5 3t70.5 1v-571v-78t6 -61.5t23.5 -41t52.5 -14.5q43 0 80 25.5t63.5 61.5t42 74t15.5 62v478h-142v57h142q35 0 70.5 1t70.5 3t71 3t70 1v-762h138v-57h-138q-35 0 -70.5 -3t-70.5 -7t-70.5 -7t-70.5 -3v176h-4q-37 -98 -123 -142.5 t-191 -44.5q-94 0 -144 21.5t-73.5 61.5t-27 99.5t-3.5 135.5v467h-141zM225 1153q0 53 37 93t90 40t93 -39t40 -94t-39 -94t-94 -39q-53 0 -90 41t-37 92zM657 1153q0 53 37 93t90 40t93.5 -39t40.5 -94t-39.5 -94t-94.5 -39q-53 0 -90 41t-37 92z" />
<glyph unicode="&#xfd;" d="M35 754v57h493v-57h-96l199 -443h8l156 381q14 35 -7.5 48.5t-44.5 13.5h-75v57h323v-57h-63q-16 0 -27.5 -10.5t-21 -26t-16.5 -32.5t-13 -32l-406 -942q-33 -74 -83 -118t-117 -44q-51 0 -91 39t-40 88q0 55 33.5 89t84.5 34q35 0 53.5 -12t30.5 -27q12 -14 22.5 -23 t27.5 -3q31 12 43 38.5t22 51.5l74 174l-379 756h-90zM350 1020l199 227q20 25 41.5 51.5t45 49t51.5 37t63 14.5q37 0 63.5 -26.5t26.5 -63.5q0 -41 -27 -64.5t-57 -44.5l-281 -180h-125z" />
<glyph unicode="&#xfe;" horiz-adv-x="1138" d="M43 1321v57h141q72 0 141.5 5.5t141.5 15.5v-760h4q23 43 47.5 77t54 58.5t67.5 36.5t91 12q88 0 157.5 -36.5t119 -96t76 -137.5t26.5 -160q0 -80 -27.5 -155.5t-79 -135t-121 -96.5t-153.5 -37q-78 0 -147.5 41t-108.5 109h-6v-502h172v-57h-559v57h104v1704h-141z M467 264q0 -31 18.5 -72.5t49 -79.5t71.5 -63.5t88 -25.5q51 0 74 27.5t23 74.5v508q0 51 -20.5 94t-82.5 43q-43 0 -83 -29.5t-70.5 -72.5t-49 -90.5t-18.5 -79.5v-234z" />
<glyph unicode="&#xff;" d="M35 754v57h493v-57h-96l199 -443h8l156 381q14 35 -7.5 48.5t-44.5 13.5h-75v57h323v-57h-63q-16 0 -27.5 -10.5t-21 -26t-16.5 -32.5t-13 -32l-406 -942q-33 -74 -83 -118t-117 -44q-51 0 -91 39t-40 88q0 55 33.5 89t84.5 34q35 0 53.5 -12t30.5 -27q12 -14 22.5 -23 t27.5 -3q31 12 43 38.5t22 51.5l74 174l-379 756h-90zM229 1194q0 53 37 93t90 40t93 -39t40 -94t-39 -94t-94 -39q-53 0 -90 41t-37 92zM662 1194q0 53 36.5 93t89.5 40t93.5 -39t40.5 -94t-39.5 -94t-94.5 -39q-53 0 -89.5 41t-36.5 92z" />
<glyph unicode="&#x152;" horiz-adv-x="2162" d="M70 662q0 143 52 271t143 225t214 153.5t266 56.5h1248l12 -369h-70q-33 86 -67.5 145.5t-78.5 95.5t-101.5 51.5t-133.5 15.5h-192v-572q76 0 124 12.5t78.5 41t48 75.5t34.5 119h67v-582h-67q-10 74 -27.5 124t-50.5 81t-82 44.5t-125 13.5v-603h201q119 0 193.5 27 t119.5 78t70.5 121.5t46.5 161.5h63l-12 -449h-1194q-131 0 -219 14.5t-152.5 41t-113 64.5t-97.5 83q-98 92 -148 210.5t-50 248.5zM469 438q0 -111 21.5 -183.5t59.5 -115.5t91 -60.5t115 -17.5q78 0 129 14.5t80.5 50.5t41 96.5t11.5 152.5v590q0 90 -9.5 154.5 t-37 106.5t-78.5 61.5t-135 19.5q-147 0 -217 -87t-72 -247v-535z" />
<glyph unicode="&#x153;" horiz-adv-x="1593" d="M63 393q0 94 40 174t104.5 136.5t148.5 88t174 31.5q78 0 128.5 -11t84 -28.5t55 -36t42.5 -32.5q53 66 120.5 87t147.5 21q94 0 172 -26.5t131 -73.5t83 -109.5t30 -134.5q0 -35 -22.5 -42t-47.5 -7h-477v-264q0 -80 43 -111.5t123 -31.5q123 0 212 59t124 180l47 -16 q-41 -143 -147.5 -210t-250.5 -67q-80 0 -154.5 28t-135.5 81q-72 -63 -155 -86t-177 -23q-61 0 -138 27t-144.5 80t-114 132t-46.5 185zM395 127q0 -61 44 -82.5t100 -21.5q59 0 107 22.5t48 81.5v483q0 96 -34.5 128t-116.5 32q-86 0 -117 -39t-31 -121v-483zM977 483h268 v201q0 41 -34.5 63.5t-108.5 22.5q-66 0 -95.5 -26.5t-29.5 -67.5v-193z" />
<glyph unicode="&#x178;" horiz-adv-x="1366" d="M12 1307v61h654v-61h-154l328 -555l260 501q12 23 -6.5 38.5t-51.5 15.5h-120v61h432v-61h-76q-23 0 -38 -3.5t-29.5 -14.5t-30 -33.5t-35.5 -61.5l-271 -526v-607h181v-61h-697v61h172v555l-393 691h-125zM338 1669q0 53 37 93t90 40t93 -39t40 -94t-39 -94t-94 -39 q-53 0 -90 41t-37 92zM770 1669q0 53 37 93t90 40t93 -39t40 -94t-39 -94t-94 -39q-53 0 -90 41t-37 92z" />
<glyph unicode="&#x2c6;" horiz-adv-x="681" d="M-2 1012l248 356h190l252 -356l-4 -4h-115l-227 200l-236 -200h-104z" />
<glyph unicode="&#x2dc;" horiz-adv-x="681" d="M-31 1071q6 49 24.5 95t48.5 82t72 57.5t97 21.5q43 0 86 -15.5t84 -33.5q41 -20 77 -35.5t64 -15.5q47 0 68.5 30.5t38.5 69.5h88q-12 -49 -30.5 -95t-47.5 -83t-71 -58.5t-99 -21.5q-47 0 -90 15.5t-84 33.5q-39 18 -76 33.5t-72 15.5q-33 0 -59.5 -28.5t-32.5 -67.5 h-86z" />
<glyph unicode="&#x2000;" horiz-adv-x="978" />
<glyph unicode="&#x2001;" horiz-adv-x="1956" />
<glyph unicode="&#x2002;" horiz-adv-x="978" />
<glyph unicode="&#x2003;" horiz-adv-x="1956" />
<glyph unicode="&#x2004;" horiz-adv-x="652" />
<glyph unicode="&#x2005;" horiz-adv-x="489" />
<glyph unicode="&#x2006;" horiz-adv-x="326" />
<glyph unicode="&#x2007;" horiz-adv-x="326" />
<glyph unicode="&#x2008;" horiz-adv-x="244" />
<glyph unicode="&#x2009;" horiz-adv-x="391" />
<glyph unicode="&#x200a;" horiz-adv-x="108" />
<glyph unicode="&#x2010;" horiz-adv-x="681" d="M49 307v209h584v-209h-584z" />
<glyph unicode="&#x2011;" horiz-adv-x="681" d="M49 307v209h584v-209h-584z" />
<glyph unicode="&#x2012;" horiz-adv-x="681" d="M49 307v209h584v-209h-584z" />
<glyph unicode="&#x2013;" d="M0 307v209h1024v-209h-1024z" />
<glyph unicode="&#x2014;" horiz-adv-x="2048" d="M0 307v209h2048v-209h-2048z" />
<glyph unicode="&#x2018;" horiz-adv-x="681" d="M139 995q0 68 22.5 129.5t62.5 113.5t93.5 93t112.5 68l12 -51q-82 -43 -143 -122t-61 -177q0 -27 4 -56.5t20 -50.5q12 55 50 83t94 28q59 0 99 -44t40 -102q0 -76 -51.5 -126t-124.5 -50q-55 0 -98.5 21.5t-73 58.5t-44 85t-14.5 99z" />
<glyph unicode="&#x2019;" horiz-adv-x="681" d="M139 1221q0 74 49.5 126t124.5 52q55 0 98.5 -22.5t73 -59.5t45 -85t15.5 -99q0 -66 -23.5 -127.5t-64.5 -114.5t-94.5 -95t-110.5 -65l-10 51q84 45 143 123t59 176q0 29 -3 55.5t-19 51.5q-31 -111 -146 -111q-59 0 -98 42t-39 102z" />
<glyph unicode="&#x201a;" horiz-adv-x="681" d="M139 113q0 76 50.5 127t125.5 51q55 0 97.5 -22.5t72 -60.5t45 -86t15.5 -97q0 -66 -23.5 -127.5t-63.5 -113.5t-93.5 -93t-110.5 -68l-12 53q86 47 144 123t58 176q0 29 -3 55.5t-19 49.5q-10 -53 -51 -82t-95 -29q-59 0 -98 43t-39 101z" />
<glyph unicode="&#x201c;" d="M39 995q0 68 22.5 129.5t62.5 113.5t93 93t113 68l12 -51q-82 -43 -143.5 -122t-61.5 -177q0 -27 4 -56.5t21 -50.5q12 55 50 83t93 28q59 0 99 -44t40 -102q0 -76 -51 -126t-125 -50q-55 0 -98 21.5t-72.5 58.5t-44 85t-14.5 99zM580 995q0 68 22.5 129.5t62.5 113.5 t93 93t112 68l13 -51q-82 -43 -143.5 -122t-61.5 -177q0 -27 4 -56.5t20 -50.5q12 55 50.5 83t93.5 28q59 0 99 -44t40 -102q0 -76 -51 -126t-125 -50q-55 0 -98 21.5t-73 58.5t-44 85t-14 99z" />
<glyph unicode="&#x201d;" d="M39 1221q0 74 49 126t125 52q55 0 98 -22.5t73 -59.5t45 -85t15 -99q0 -66 -23.5 -127.5t-64.5 -114.5t-94 -95t-110 -65l-11 51q84 45 143.5 123t59.5 176q0 29 -3 55.5t-19 51.5q-31 -111 -146 -111q-59 0 -98 42t-39 102zM580 1221q0 74 49 126t125 52q55 0 98 -22.5 t72.5 -59.5t45 -85t15.5 -99q0 -66 -23.5 -127.5t-64.5 -114.5t-94 -95t-111 -65l-10 51q84 45 143.5 123t59.5 176q0 29 -3 55.5t-20 51.5q-31 -111 -145 -111q-59 0 -98 42t-39 102z" />
<glyph unicode="&#x201e;" d="M41 113q0 76 50 127t126 51q55 0 97 -22.5t72 -60.5t45 -86t15 -97q0 -66 -23.5 -127.5t-63.5 -113.5t-93 -93t-110 -68l-13 53q86 47 144.5 123t58.5 176q0 29 -3 55.5t-19 49.5q-10 -53 -51.5 -82t-94.5 -29q-59 0 -98 43t-39 101zM580 113q0 76 50 127t126 51 q55 0 97 -22.5t71.5 -60.5t45 -86t15.5 -97q0 -66 -23.5 -127.5t-63.5 -113.5t-93 -93t-111 -68l-12 53q86 47 144.5 123t58.5 176q0 29 -3 55.5t-20 49.5q-10 -53 -51 -82t-94 -29q-59 0 -98 43t-39 101z" />
<glyph unicode="&#x2022;" horiz-adv-x="1269" d="M283 684q0 66 27.5 123t75.5 100t112.5 68.5t136.5 25.5t136.5 -25.5t112.5 -68.5t75.5 -100t27.5 -123t-27.5 -123t-75.5 -100t-112.5 -68.5t-136.5 -25.5t-136.5 25.5t-112.5 68.5t-75.5 100t-27.5 123z" />
<glyph unicode="&#x2026;" horiz-adv-x="2048" d="M172 137q0 33 13.5 63.5t37 54.5t53 37t64.5 13q33 0 64.5 -13t54 -36t37 -53.5t14.5 -65.5q0 -72 -50 -120t-120 -48t-119 50.5t-49 117.5zM854 137q0 33 13.5 63.5t37 54.5t53 37t64.5 13q33 0 64.5 -13t54 -36t37 -53.5t14.5 -65.5q0 -72 -50 -120t-120 -48t-119 50.5 t-49 117.5zM1536 137q0 33 13.5 63.5t37 54.5t53 37t64.5 13q33 0 64.5 -13t54 -36t37 -53.5t14.5 -65.5q0 -72 -50 -120t-120 -48t-119 50.5t-49 117.5z" />
<glyph unicode="&#x202f;" horiz-adv-x="391" />
<glyph unicode="&#x2039;" horiz-adv-x="681" d="M150 408v14q88 74 175 148.5t171 152.5q12 6 22 2t10 -20q0 -8 -27.5 -50.5t-61 -91.5t-66.5 -94t-41 -57q14 -16 47 -59.5t67.5 -91.5t61.5 -91t27 -57q0 -8 -9.5 -12.5t-19.5 3.5q-80 72 -175 152t-181 152z" />
<glyph unicode="&#x203a;" horiz-adv-x="681" d="M147 113q0 14 27 57t61.5 91t67.5 91t47 60q-6 8 -23.5 31.5t-39 54t-45 64.5t-43 63.5t-32.5 51t-13 28.5q0 16 10 20t22 -2q84 -78 171 -152.5t175 -148.5v-14q-86 -72 -181 -152t-175 -152q-10 -8 -19.5 -4t-9.5 13z" />
<glyph unicode="&#x205f;" horiz-adv-x="489" />
<glyph unicode="&#x20ac;" horiz-adv-x="1251" d="M43 741l47 111h117q25 104 76 196.5t124.5 162t169 110.5t207.5 41q76 0 129.5 -14.5t88 -32t52 -32.5t21.5 -19l53 67h70v-340h-61q-18 66 -43 124.5t-63 101.5t-97.5 67.5t-149.5 24.5q-113 0 -178 -84t-65 -256v-117h571l-47 -111h-524v-141h465l-45 -111h-420v-127 q0 -172 65.5 -255.5t177.5 -83.5q86 0 144.5 23.5t96.5 65.5t63.5 100t48.5 128h61v-340h-70l-51 68q-6 -6 -23.5 -21.5t-52 -33t-88 -31t-129.5 -13.5q-111 0 -206 40t-169.5 109.5t-127 165t-76.5 205.5h-154l45 111h86q-2 16 -2 31.5v32.5q0 20 1 38.5t3 38.5h-141z" />
<glyph unicode="&#x2122;" horiz-adv-x="1761" d="M45 1143l12 225h686l9 -225h-29q-14 47 -30.5 85t-41 63.5t-62.5 36.5t-95 7v-630h94v-31h-377v31h94v630q-59 4 -96 -7t-61.5 -36.5t-41 -63.5t-30.5 -85h-31zM829 674v31h43.5t32 5t20.5 18t7 40v567h-103v33h320l129 -420l135 420h305v-33h-92v-630h92v-31h-372v31h98 v628h-4l-217 -659h-41l-215 659h-2v-565q0 -27 7 -40t21.5 -18t34 -5h43.5v-31h-242z" />
<glyph unicode="&#xe000;" horiz-adv-x="808" d="M0 0v809h809v-809h-809z" />
</font>
</defs>
</svg>
