<?xml version="1.0" standalone="no"?>
<!DOCTYPE svg PUBLIC "-//W3C//DTD SVG 1.1//EN" "http://www.w3.org/Graphics/SVG/1.1/DTD/svg11.dtd" >
<svg>
<metadata>
Created by FontForge 20090914 at Wed Aug 29 16:47:38 2012
 By www-data
Copyright &#194;&#169; 1981 - 2006 Linotype GmbH, www.linotype.com. All rights reserved. Copyright &#194;&#169; 1989 - 2002 Adobe Systems Incorporated.  All Rights Reserved.
</metadata>
<defs>
<font id="AvenirLTStd-Medium" horiz-adv-x="556" >
  <font-face 
    font-family="Avenir LT Std 65 Medium"
    font-weight="500"
    font-stretch="normal"
    units-per-em="1000"
    panose-1="2 11 6 3 2 2 3 2 2 4"
    ascent="756"
    descent="-244"
    x-height="474"
    cap-height="708"
    bbox="-166 -282 1036 924"
    underline-thickness="50"
    underline-position="-100"
    unicode-range="U+0020-U+FB02"
  />
<missing-glyph horiz-adv-x="500" 
d="M0 0v700h500v-700h-500zM250 395l170 255h-340zM280 350l170 -255v510zM80 50h340l-170 255zM50 605v-510l170 255z" />
    <glyph glyph-name="fi" unicode="fi" 
d="M390 0v474h90v-474h-90zM370 643c0 18 6.5 33.5 19.5 46.5s28.5 19.5 46.5 19.5s33.5 -6.5 46.5 -19.5s19.5 -28.5 19.5 -46.5s-6.5 -33.5 -19.5 -46.5s-28.5 -19.5 -46.5 -19.5s-33.5 6.5 -46.5 19.5s-19.5 28.5 -19.5 46.5zM103 0l0.000976562 396h-102v78h102v106
c0 64.667 12.5 112.167 37.5 142.5s66.5 45.5 124.5 45.5c25.333 0 47.666 -2.33301 66.999 -7l-10 -80c-14.667 6 -31.667 9 -51 9c-30.667 0 -51.167 -8.66699 -61.5 -26s-15.5 -44.333 -15.5 -81v-109h107v-78h-108v-396h-90z" />
    <glyph glyph-name="fl" unicode="fl" 
d="M391 0v756h90v-756h-90zM103 0l0.000976562 396h-102v78h102v106c0 64.667 12.5 112.167 37.5 142.5s66.5 45.5 124.5 45.5c25.333 0 47.666 -2.33301 66.999 -7l-10 -80c-14.667 6 -31.667 9 -51 9c-30.667 0 -51.167 -8.66699 -61.5 -26s-15.5 -44.333 -15.5 -81v-109
h107v-78h-108v-396h-90z" />
    <glyph glyph-name=".notdef" horiz-adv-x="500" 
d="M0 0v700h500v-700h-500zM250 395l170 255h-340zM280 350l170 -255v510zM80 50h340l-170 255zM50 605v-510l170 255z" />
    <glyph glyph-name="space" unicode=" " horiz-adv-x="278" 
 />
    <glyph glyph-name="exclam" unicode="!" horiz-adv-x="278" 
d="M185 708v-504h-96v504h96zM73 60c0 18 6.5 33.5 19.5 46.5s28.5 19.5 46.5 19.5s33.5 -6.5 46.5 -19.5s19.5 -28.5 19.5 -46.5s-6.5 -33.5 -19.5 -46.5s-28.5 -19.5 -46.5 -19.5s-33.5 6.5 -46.5 19.5s-19.5 28.5 -19.5 46.5z" />
    <glyph glyph-name="quotedbl" unicode="&#x22;" horiz-adv-x="519" 
d="M146 462v246h78v-246h-78zM295 462v246h78v-246h-78z" />
    <glyph glyph-name="numbersign" unicode="#" 
d="M92 0l28 204h-95v78h106l20 144h-95v78h106l28 204h79l-28 -204h116l28 204h79l-28 -204h95v-78h-106l-20 -144h95v-78h-106l-28 -204h-79l28 204h-116l-28 -204h-79zM346 426h-116l-20 -144h116z" />
    <glyph glyph-name="dollar" unicode="$" 
d="M300 792l-0.000976562 -72c82.667 0 148.667 -25.667 198 -77l-72 -70c-31.333 40.667 -73.333 61.667 -126 63v-236l-2 -1c34.667 -9.33301 62.834 -18.333 84.501 -27s43.834 -20.667 66.501 -36s39.5 -34.666 50.5 -57.999s16.5 -51.333 16.5 -84
c0 -58.667 -20.833 -106.834 -62.5 -144.501s-92.834 -58.167 -153.501 -61.5v-72h-54v72c-97.333 0 -170.666 32 -219.999 96l77 69c14.667 -24.667 35 -44 61 -58s53.333 -21.667 82 -23v246c-62.667 16 -112.334 39.667 -149.001 71s-55 76 -55 134
c0 54.667 20 100 60 136s88 56.333 144 61v72h54zM245.999 414l0.000976562 222.001c-32.667 -5.33301 -58.834 -17.833 -78.501 -37.5s-29.5 -44.834 -29.5 -75.501c0 -52 36 -88.333 108 -109zM300 304.001l-0.00195312 -231.999c34.667 4 63.334 16.5 86.001 37.5
s34 47.833 34 80.5c0 31.333 -10.667 55.166 -32 71.499s-50.666 30.5 -87.999 42.5z" />
    <glyph glyph-name="percent" unicode="%" horiz-adv-x="852" 
d="M37 549c0 48.667 17.167 90.334 51.5 125.001s76.166 52 125.499 52s91.166 -17.333 125.499 -52s51.5 -76.334 51.5 -125.001s-17.167 -90.334 -51.5 -125.001s-76.166 -52 -125.499 -52s-91.166 17.333 -125.499 52s-51.5 76.334 -51.5 125.001zM115 549
c0 -27.333 9.66699 -50.666 29 -69.999s42.666 -29 69.999 -29s50.666 9.66699 69.999 29s29 42.666 29 69.999s-9.66699 50.666 -29 69.999s-42.666 29 -69.999 29s-50.666 -9.66699 -69.999 -29s-29 -42.666 -29 -69.999zM461 159c0 48.667 17.167 90.334 51.5 125.001
s76.166 52 125.499 52s91.166 -17.333 125.499 -52s51.5 -76.334 51.5 -125.001s-17.167 -90.334 -51.5 -125.001s-76.166 -52 -125.499 -52s-91.166 17.333 -125.499 52s-51.5 76.334 -51.5 125.001zM539 159c0 -27.333 9.66699 -50.666 29 -69.999s42.666 -29 69.999 -29
s50.666 9.66699 69.999 29s29 42.666 29 69.999s-9.66699 50.666 -29 69.999s-42.666 29 -69.999 29s-50.666 -9.66699 -69.999 -29s-29 -42.666 -29 -69.999zM680 709l-445 -740l-60 31l445 740z" />
    <glyph glyph-name="ampersand" unicode="&#x26;" horiz-adv-x="722" 
d="M551 165l161 -164.998h-129l-87 94c-31.333 -38 -64 -66.167 -98 -84.5s-73.667 -27.5 -119 -27.5c-75.333 0 -132.833 20 -172.5 60s-59.5 88.333 -59.5 145c0 84 53.667 151.667 161 203c-27.333 29.333 -48 56.166 -62 80.499s-21 52.166 -21 83.499
c0 52 18.167 92.667 54.5 122s81.166 44 134.499 44c52.667 0 96.334 -13.833 131.001 -41.5s52 -67.167 52 -118.5c0 -70 -49 -130.667 -147 -182l140 -146l89 145h109zM401 560.002c0 23.333 -8 41.833 -24 55.5s-36.667 20.5 -62 20.5c-26.667 0 -49 -7.5 -67 -22.5
s-27 -35.167 -27 -60.5c0 -32 23.333 -71.333 70 -118c22.667 12.667 40.167 23 52.5 31s25 20.667 38 38s19.5 36 19.5 56zM439 156.002l-171.001 178c-18 -10.667 -32.5 -19.667 -43.5 -27s-23.167 -17 -36.5 -29s-23.166 -25.333 -29.499 -40s-9.5 -30.667 -9.5 -48
c0 -34 13.5 -63.167 40.5 -87.5s57.833 -36.5 92.5 -36.5c54 0 106.333 30 157 90z" />
    <glyph glyph-name="quotesingle" unicode="'" horiz-adv-x="278" 
d="M178 708v-246h-78v246h78z" />
    <glyph glyph-name="parenleft" unicode="(" horiz-adv-x="278" 
d="M194 732l60 -38.001c-44.667 -70.667 -77.167 -136.667 -97.5 -198s-30.5 -130.666 -30.5 -207.999c0 -152 42.667 -286.667 128 -404l-60 -40c-97.333 132 -146 280 -146 444c0 77.333 12.5 154.333 37.5 231s61.167 147.667 108.5 213z" />
    <glyph glyph-name="parenright" unicode=")" horiz-adv-x="278" 
d="M84 -156l-60 38.001c44.667 70.667 77.167 136.667 97.5 198s30.5 130.666 30.5 207.999c0 152 -42.667 286.667 -128 404l60 40c97.333 -132 146 -280 146 -444c0 -77.333 -12.5 -154.333 -37.5 -231s-61.167 -147.667 -108.5 -213z" />
    <glyph glyph-name="asterisk" unicode="*" horiz-adv-x="464" 
d="M269 708v-147l139 47l21 -67l-139 -45l88 -119l-55 -41l-91 122l-89 -120l-55 41l89 117l-142 48l21 65l141 -48v147h72z" />
    <glyph glyph-name="plus" unicode="+" horiz-adv-x="666" 
d="M66 264v78h228v228h78v-228h228v-78h-228v-228h-78v228h-228z" />
    <glyph glyph-name="comma" unicode="," horiz-adv-x="278" 
d="M214 114l-84 -246h-82l69 246h97z" />
    <glyph glyph-name="hyphen" unicode="-" horiz-adv-x="316" 
d="M281 284v-84h-246v84h246z" />
    <glyph glyph-name="period" unicode="." horiz-adv-x="278" 
d="M139 -6c-18 0 -33.5 6.5 -46.5 19.5s-19.5 28.5 -19.5 46.5s6.5 33.5 19.5 46.5s28.5 19.5 46.5 19.5s33.5 -6.5 46.5 -19.5s19.5 -28.5 19.5 -46.5s-6.5 -33.5 -19.5 -46.5s-28.5 -19.5 -46.5 -19.5z" />
    <glyph glyph-name="slash" unicode="/" horiz-adv-x="389" 
d="M389 726l-319 -770l-70 26l320 770z" />
    <glyph glyph-name="zero" unicode="0" 
d="M34 354c0 34 1.99805 66.667 5.99805 98s11.5 63.833 22.5 97.5s25.167 62.667 42.5 87s40.833 44.333 70.5 60s63.834 23.5 102.501 23.5s72.834 -7.83301 102.501 -23.5s53.167 -35.667 70.5 -60s31.5 -53.333 42.5 -87s18.5 -66.167 22.5 -97.5s6 -64 6 -98
c0 -42 -3.5 -82.333 -10.5 -121s-18.833 -77.5 -35.5 -116.5s-42 -70.167 -76 -93.5s-74.667 -35 -122 -35s-88 11.667 -122 35s-59.333 54.5 -76 93.5s-28.5 77.833 -35.5 116.5s-10.5 79 -10.5 121zM129.998 354c0 -29.333 1.66895 -57.5 5.00195 -84.5
s9.5 -56.833 18.5 -89.5s24.167 -58.834 45.5 -78.501s47.666 -29.5 78.999 -29.5s57.666 9.83301 78.999 29.5s36.5 45.834 45.5 78.501s15.167 62.5 18.5 89.5s5 55.167 5 84.5c0 188 -49.333 282 -148 282s-148 -94 -148 -282z" />
    <glyph glyph-name="one" unicode="1" 
d="M270 0v598l-130 -120l-56 67l197 163h85v-708h-96z" />
    <glyph glyph-name="two" unicode="2" 
d="M46 0l-0.000976562 102l284 282c52 50.667 78 99 78 145c0 34 -11.667 61.333 -35 82s-52.333 31 -87 31c-34 0 -62.5 -9.66699 -85.5 -29s-37.5 -46 -43.5 -80l-104 9c9.33301 60.667 34.833 106.5 76.5 137.5s94.167 46.5 157.5 46.5c64 0 117.167 -17 159.5 -51
s63.5 -82.333 63.5 -145c0 -42 -10.667 -79.833 -32 -113.5s-51.666 -69.5 -90.999 -107.5l-233 -225h356v-84h-464z" />
    <glyph glyph-name="three" unicode="3" 
d="M46 142l101 30.998c12 -35.333 27.667 -61 47 -77s47 -24 83 -24c38 0 70.333 12 97 36s40 54.667 40 92c0 28 -5.83301 51.333 -17.5 70s-28.167 32.167 -49.5 40.5s-42 14 -62 17s-43.333 4.5 -70 4.5v84c69.333 0 116.833 9 142.5 27s38.5 46 38.5 84
c0 36.667 -11 65 -33 85s-50.667 30 -86 30c-26 0 -49.5 -7.5 -70.5 -22.5s-36.833 -34.833 -47.5 -59.5l-98 33c18 43.333 46 76.333 84 99s81.333 34 130 34c62 0 113.667 -16.5 155 -49.5s62 -80.833 62 -143.5c0 -37.333 -11.167 -70.666 -33.5 -99.999
s-51.5 -49.333 -87.5 -60v-2c43.333 -7.33301 77.333 -27.666 102 -60.999s37 -72.333 37 -117c0 -64.667 -22.667 -115 -68 -151s-101.333 -54 -168 -54c-56.667 0 -105 12.833 -145 38.5s-67.667 64.167 -83 115.5z" />
    <glyph glyph-name="four" unicode="4" 
d="M336 0v156h-302v98l282 454h116v-468h100v-84h-100v-156h-96zM336 240v354h-2l-216 -354h218z" />
    <glyph glyph-name="five" unicode="5" 
d="M471 708l0.00292969 -90.002h-287l-3 -177c22 10 53.667 15 95 15c66 0 119.167 -21.667 159.5 -65s60.5 -99.666 60.5 -168.999s-23.833 -125.666 -71.5 -168.999s-106.834 -65 -177.501 -65c-48.667 0 -92.334 12.5 -131.001 37.5s-66 60.167 -82 105.5l97 33
c23.333 -61.333 67 -92 131 -92c39.333 0 72.166 13.167 98.499 39.5s39.5 61.5 39.5 105.5c0 50 -15.5 88.333 -46.5 115s-72.5 40 -124.5 40c-48 0 -96.667 -12.333 -146 -37l8 373h380z" />
    <glyph glyph-name="six" unicode="6" 
d="M398 708l-177.999 -273.999h4c22 10.667 48 16 78 16c57.333 0 108.166 -19.333 152.499 -58s66.5 -94 66.5 -166c0 -75.333 -23 -133.833 -69 -175.5s-104 -62.5 -174 -62.5c-68 0 -125.5 21.167 -172.5 63.5s-70.5 97.166 -70.5 164.499c0 40 5.66699 75.167 17 105.5
s29.333 64.833 54 103.5l179 283h113zM131.001 219.001c0 -43.333 13.5 -78.666 40.5 -105.999s62.5 -41 106.5 -41s79.5 13.667 106.5 41s40.5 62.666 40.5 105.999s-13.5 78.666 -40.5 105.999s-62.5 41 -106.5 41s-79.5 -13.667 -106.5 -41s-40.5 -62.666 -40.5 -105.999
z" />
    <glyph glyph-name="seven" unicode="7" 
d="M97 0l287 624h-342v84h445v-82l-282 -626h-108z" />
    <glyph glyph-name="eight" unicode="8" 
d="M278 -12c-66 0 -120.998 19.5 -164.998 58.5s-66 91.167 -66 156.5c0 42.667 12.5 79.5 37.5 110.5s57.5 51.833 97.5 62.5v3c-30 8 -56 26.167 -78 54.5s-33 65.166 -33 110.499c0 52 20.167 94.333 60.5 127s89.166 49 146.499 49s106.166 -16.333 146.499 -49
s60.5 -75 60.5 -127c0 -45.333 -11 -82.166 -33 -110.499s-48 -46.5 -78 -54.5v-3c40 -10.667 72.5 -31.5 97.5 -62.5s37.5 -67.833 37.5 -110.5c0 -65.333 -22 -117.5 -66 -156.5s-99 -58.5 -165 -58.5zM167.002 530c0 -29.333 10.001 -55.333 30.001 -78s47 -34 81 -34
c35.333 0 62.666 10.833 81.999 32.5s29 48.167 29 79.5c0 32.667 -10.333 59.5 -31 80.5s-47.334 31.5 -80.001 31.5c-31.333 0 -57.666 -10.5 -78.999 -31.5s-32 -47.833 -32 -80.5zM278.003 72c40 0 72.498 12.167 97.498 36.5s37.5 55.833 37.5 94.5
c0 41.333 -12.667 73.333 -38 96s-57.666 34.334 -96.999 35.001c-39.333 -0.666992 -71.666 -13.334 -96.999 -38.001s-38 -55.667 -38 -93c0 -40 13 -71.833 39 -95.5s58 -35.5 96 -35.5z" />
    <glyph glyph-name="nine" unicode="9" 
d="M158 0l177.999 273.999h-4c-22 -10.667 -48 -16 -78 -16c-57.333 0 -108.166 19.333 -152.499 58s-66.5 94 -66.5 166c0 75.333 23 133.833 69 175.5s104 62.5 174 62.5c68 0 125.5 -21.167 172.5 -63.5s70.5 -97.166 70.5 -164.499c0 -40 -5.66699 -75.167 -17 -105.5
s-29.333 -64.833 -54 -103.5l-179 -283h-113zM424.999 488.999c0 43.333 -13.5 78.666 -40.5 105.999s-62.5 41 -106.5 41s-79.5 -13.667 -106.5 -41s-40.5 -62.666 -40.5 -105.999s13.5 -78.666 40.5 -105.999s62.5 -41 106.5 -41s79.5 13.667 106.5 41
s40.5 62.666 40.5 105.999z" />
    <glyph glyph-name="colon" unicode=":" horiz-adv-x="278" 
d="M139 348c-18 0 -33.5 6.5 -46.5 19.5s-19.5 28.5 -19.5 46.5s6.5 33.5 19.5 46.5s28.5 19.5 46.5 19.5s33.5 -6.5 46.5 -19.5s19.5 -28.5 19.5 -46.5s-6.5 -33.5 -19.5 -46.5s-28.5 -19.5 -46.5 -19.5zM73 60c0 18 6.5 33.5 19.5 46.5s28.5 19.5 46.5 19.5
s33.5 -6.5 46.5 -19.5s19.5 -28.5 19.5 -46.5s-6.5 -33.5 -19.5 -46.5s-28.5 -19.5 -46.5 -19.5s-33.5 6.5 -46.5 19.5s-19.5 28.5 -19.5 46.5z" />
    <glyph glyph-name="semicolon" unicode=";" horiz-adv-x="278" 
d="M214 114l-84 -246h-82l69 246h97zM73 413c0 18 6.5 33.5 19.5 46.5s28.5 19.5 46.5 19.5s33.5 -6.5 46.5 -19.5s19.5 -28.5 19.5 -46.5s-6.5 -33.5 -19.5 -46.5s-28.5 -19.5 -46.5 -19.5s-33.5 6.5 -46.5 19.5s-19.5 28.5 -19.5 46.5z" />
    <glyph glyph-name="less" unicode="&#x3c;" horiz-adv-x="666" 
d="M600 121v-78l-534 219v82l534 220v-79l-452 -182z" />
    <glyph glyph-name="equal" unicode="=" horiz-adv-x="666" 
d="M66 420h534v-78h-534v78zM66 263h534v-78h-534v78z" />
    <glyph glyph-name="greater" unicode="&#x3e;" horiz-adv-x="666" 
d="M66 485v78l534 -219v-82l-534 -220v79l452 182z" />
    <glyph glyph-name="question" unicode="?" horiz-adv-x="500" 
d="M306 198l-96.002 0.00390625v61c0 24 2.83301 43.667 8.5 59s12 27.166 19 35.499s21.5 22.833 43.5 43.5l42 40.5c13.333 12.333 24.833 27.166 34.5 44.499s14.5 35.333 14.5 54c0 30 -10.167 55.167 -30.5 75.5s-45.5 30.5 -75.5 30.5c-32 0 -58.333 -10.333 -79 -31
s-33 -47.667 -37 -81l-102 10c8.66699 57.333 32.834 102.666 72.501 135.999s88.834 50 147.501 50c58 0 105.833 -16.5 143.5 -49.5s56.5 -78.167 56.5 -135.5c0 -52 -14 -92 -42 -120l-70 -71c-21.333 -22 -35 -38.833 -41 -50.5s-9 -30.834 -9 -57.501v-44z
M190.998 60.0039c0 18 6.5 33.5 19.5 46.5s28.5 19.5 46.5 19.5s33.5 -6.5 46.5 -19.5s19.5 -28.5 19.5 -46.5s-6.5 -33.5 -19.5 -46.5s-28.5 -19.5 -46.5 -19.5s-33.5 6.5 -46.5 19.5s-19.5 28.5 -19.5 46.5z" />
    <glyph glyph-name="at" unicode="@" horiz-adv-x="800" 
d="M422 485c-44.667 0 -80 -18.333 -106 -55s-39 -80.667 -39 -132c0 -53.333 23.667 -80 71 -80c38 0 70.333 19.5 97 58.5s40 79.167 40 120.5c0 24.667 -5.5 45.5 -16.5 62.5s-26.5 25.5 -46.5 25.5zM615 544l-84 -277c-3.33301 -11.333 -5 -19.666 -5 -24.999
c0 -16 9.66699 -24 29 -24c29.333 0 57.166 19.833 83.499 59.5s39.5 85.167 39.5 136.5c0 76 -25.167 136 -75.5 180s-112.5 66 -186.5 66c-84.667 0 -154.834 -29.5 -210.501 -88.5s-83.5 -132.167 -83.5 -219.5c0 -88 28.667 -160.667 86 -218s128.333 -86 213 -86
c48.667 0 93.834 8.83301 135.501 26.5s74.167 42.5 97.5 74.5h79c-28 -50 -71.167 -90.333 -129.5 -121s-119.833 -46 -184.5 -46c-105.333 0 -194.166 36.167 -266.499 108.5s-108.5 160.833 -108.5 265.5c0 102 36.333 189.167 109 261.5s160 108.5 262 108.5
c94.667 0 175.167 -29 241.5 -87s99.5 -130.333 99.5 -217c0 -40.667 -7.83301 -79.167 -23.5 -115.5s-35.334 -66.333 -59.001 -90s-49 -42.334 -76 -56.001s-52.5 -20.5 -76.5 -20.5c-17.333 0 -32 5.66699 -44 17s-18.333 27 -19 47h-4c-40 -42.667 -81.333 -64 -124 -64
c-41.333 0 -74.5 15 -99.5 45s-37.5 67.333 -37.5 112c0 69.333 21 131 63 185s95.667 81 161 81c54.667 0 90.334 -25.333 107.001 -76h2l16 57h73z" />
    <glyph glyph-name="A" unicode="A" horiz-adv-x="704" 
d="M1 0l312 708h87l303 -708h-112l-71 175h-337l-70 -175h-112zM217 259h268l-132 325h-2z" />
    <glyph glyph-name="B" unicode="B" horiz-adv-x="630" 
d="M91 0l-0.000976562 707.998h246c64.667 0 116.667 -15 156 -45s59 -74 59 -132c0 -76.667 -40.667 -128.667 -122 -156v-2c42.667 -3.33301 78.834 -21.666 108.501 -54.999s44.5 -73.666 44.5 -120.999c0 -61.333 -23.5 -109.5 -70.5 -144.5s-106.5 -52.5 -178.5 -52.5
h-243zM186.999 623.998l0.000976562 -210h131c39.333 0 71.166 8.5 95.499 25.5s36.5 43.833 36.5 80.5c0 30 -9.5 54.833 -28.5 74.5s-46.833 29.5 -83.5 29.5h-151zM187 329.998v-245.998h141c23.333 0 45.5 2.66699 66.5 8s40.667 17.666 59 36.999s27.5 44.333 27.5 75
c0 41.333 -13.5 72.666 -40.5 93.999s-64.167 32 -111.5 32h-142z" />
    <glyph glyph-name="C" unicode="C" horiz-adv-x="704" 
d="M664 616l-80.0029 -61.002c-20 25.333 -45.167 45.166 -75.5 59.499s-62.166 21.5 -95.499 21.5c-78 0 -141.5 -27.5 -190.5 -82.5s-73.5 -123.5 -73.5 -205.5c0 -77.333 24 -142.666 72 -195.999s112 -80 192 -80c78 0 139.667 31.667 185 95l81 -61
c-7.33301 -10 -17 -20.667 -29 -32s-28.833 -24.666 -50.5 -39.999s-49.167 -27.833 -82.5 -37.5s-68.666 -14.5 -105.999 -14.5c-72 0 -136.333 18.333 -193 55s-99.334 82.5 -128.001 137.5s-43 112.833 -43 173.5c0 110.667 34.333 201.334 103 272.001
s157.334 106 266.001 106c48.667 0 95.334 -9.33301 140.001 -28s80.667 -46 108 -82z" />
    <glyph glyph-name="D" unicode="D" horiz-adv-x="741" 
d="M75 0l0.000976562 708.002h247c57.333 0 108.5 -8.16699 153.5 -24.5s80.833 -37 107.5 -62s48.667 -53.833 66 -86.5s29.166 -63.834 35.499 -93.501s9.5 -58.834 9.5 -87.501c0 -46 -8.5 -90 -25.5 -132s-41.333 -79.667 -73 -113s-72.5 -59.833 -122.5 -79.5
s-105.667 -29.5 -167 -29.5h-231zM171.001 618.002v-528h121c85.333 0 156.666 23 213.999 69s86 111 86 195c0 20.667 -2.16699 41.5 -6.5 62.5s-12.666 44 -24.999 69s-28.333 47 -48 66s-46.5 34.833 -80.5 47.5s-73 19 -117 19h-144z" />
    <glyph glyph-name="E" unicode="E" horiz-adv-x="611" 
d="M91 0v708h457v-90h-361v-211h336v-90h-336v-227h379v-90h-475z" />
    <glyph glyph-name="F" unicode="F" horiz-adv-x="574" 
d="M91 0v708h445v-90h-349v-222h325v-90h-325v-306h-96z" />
    <glyph glyph-name="G" unicode="G" horiz-adv-x="778" 
d="M441 396l253 -0.00195312v-349c-33.333 -20 -75 -35.833 -125 -47.5s-97.667 -17.5 -143 -17.5c-116 0 -208.167 35.833 -276.5 107.5s-102.5 159.834 -102.5 264.501c0 106 34.667 194.5 104 265.5s157.666 106.5 264.999 106.5c116.667 0 204.667 -30.667 264 -92
l-68 -73c-52 50 -117.333 75 -196 75c-79.333 0 -143.666 -27.167 -192.999 -81.5s-74 -121.166 -74 -200.499c0 -80 26.333 -147 79 -201s118 -81 196 -81c72 0 130 12.333 174 37v197h-157v90z" />
    <glyph glyph-name="H" unicode="H" horiz-adv-x="741" 
d="M91 0v708h96v-294h367v294h96v-708h-96v324h-367v-324h-96z" />
    <glyph glyph-name="I" unicode="I" horiz-adv-x="278" 
d="M91 0v708h96v-708h-96z" />
    <glyph glyph-name="J" unicode="J" horiz-adv-x="482" 
d="M312 233l-0.00390625 474.999h96v-506c0 -34 -4.66699 -64.333 -14 -91s-21.166 -47.834 -35.499 -63.501s-31.166 -28.667 -50.499 -39s-37.666 -17.333 -54.999 -21s-34.666 -5.5 -51.999 -5.5c-51.333 0 -93.833 13.167 -127.5 39.5s-55.167 64.833 -64.5 115.5l94 21
c12 -57.333 44.667 -86 98 -86c30 0 53.667 8.33301 71 25s28.333 35.834 33 57.501s7 47.834 7 78.501z" />
    <glyph glyph-name="K" unicode="K" horiz-adv-x="648" 
d="M91 0v708h96v-306h8l313 306h134l-342 -327l365 -381h-140l-330 354h-8v-354h-96z" />
    <glyph glyph-name="L" unicode="L" horiz-adv-x="519" 
d="M91 0v708h96v-618h325v-90h-421z" />
    <glyph glyph-name="M" unicode="M" horiz-adv-x="906" 
d="M84 0v708h143l225 -536h4l223 536h143v-708h-96v582h-2l-239 -582h-64l-239 582h-2v-582h-96z" />
    <glyph glyph-name="N" unicode="N" horiz-adv-x="796" 
d="M91 0v708h126l390 -582h2v582h96v-708h-122l-394 582h-2v-582h-96z" />
    <glyph glyph-name="O" unicode="O" horiz-adv-x="832" 
d="M416 -18c-107.333 0 -195.666 35.5 -264.999 106.5s-104 159.5 -104 265.5s34.667 194.5 104 265.5s157.666 106.5 264.999 106.5s195.666 -35.5 264.999 -106.5s104 -159.5 104 -265.5s-34.667 -194.5 -104 -265.5s-157.666 -106.5 -264.999 -106.5zM416 72
c79.333 0 143.666 27.167 192.999 81.5s74 121.166 74 200.499s-24.667 146.166 -74 200.499s-113.666 81.5 -192.999 81.5s-143.666 -27.167 -192.999 -81.5s-74 -121.166 -74 -200.499s24.667 -146.166 74 -200.499s113.666 -81.5 192.999 -81.5z" />
    <glyph glyph-name="P" unicode="P" horiz-adv-x="593" 
d="M91 0v707.998h249c43.333 0 80.5 -6 111.5 -18s54.5 -28.167 70.5 -48.5s27.5 -41.166 34.5 -62.499s10.5 -44.333 10.5 -69s-3.5 -47.667 -10.5 -69s-18.5 -42.166 -34.5 -62.499s-39.5 -36.5 -70.5 -48.5s-68.167 -18 -111.5 -18h-153v-312h-96zM187 623.998v-228h126
c101.333 0 152 38 152 114s-50.667 114 -152 114h-126z" />
    <glyph glyph-name="Q" unicode="Q" horiz-adv-x="832" 
d="M822 84l0.000976562 -84h-408c-102 -0 -188.667 34.333 -260 103s-107 155 -107 259s35 190.667 105 260s157 104 261 104c100 0 185.167 -34 255.5 -102s105.5 -152 105.5 -252c0 -62 -14.333 -119.333 -43 -172s-68.334 -90.667 -119.001 -114v-2h210zM410.001 90
c76.667 0 139.499 26.667 188.499 80s73.5 119.333 73.5 198c0 75.333 -25 138.833 -75 190.5s-112.333 77.5 -187 77.5c-73.333 0 -135.166 -25.833 -185.499 -77.5s-75.5 -114.5 -75.5 -188.5c0 -78.667 24.5 -145 73.5 -199s111.5 -81 187.5 -81z" />
    <glyph glyph-name="R" unicode="R" horiz-adv-x="611" 
d="M91 0v707.999h249c43.333 0 80.5 -6 111.5 -18s54.5 -28.167 70.5 -48.5s27.5 -41.166 34.5 -62.499s10.5 -44.333 10.5 -69c0 -46.667 -16 -88 -48 -124s-74 -57 -126 -63l201 -323h-120l-180 312h-107v-312h-96zM187 623.999v-228h126c101.333 0 152 38 152 114
s-50.667 114 -152 114h-126z" />
    <glyph glyph-name="S" unicode="S" 
d="M33 80l79.001 68.0029c33.333 -50.667 83.333 -76 150 -76c35.333 0 67.666 10.667 96.999 32s44 50 44 86c0 29.333 -12 52.666 -36 69.999s-53.167 31 -87.5 41s-68.5 21.667 -102.5 35s-63 36 -87 68s-36 73.333 -36 124c0 22 4.66699 44.167 14 66.5
s23.166 43.5 41.499 63.5s43.5 36.333 75.5 49s68.333 19 109 19c92 0 160 -27 204 -81l-78 -71c-12 18.667 -29.167 33.667 -51.5 45s-47.166 17 -74.499 17c-48 0 -83 -11.167 -105 -33.5s-33 -47.166 -33 -74.499c0 -28 8.66699 -51 26 -69s38.833 -30.833 64.5 -38.5
s53.667 -16.834 84 -27.501s58.333 -21.834 84 -33.501s47.167 -31 64.5 -58s26 -60.5 26 -100.5c0 -66.667 -23.5 -119.834 -70.5 -159.501s-105.5 -59.5 -175.5 -59.5c-47.333 0 -91 8.16699 -131 24.5s-71.667 40.833 -95 73.5z" />
    <glyph glyph-name="T" unicode="T" horiz-adv-x="574" 
d="M239 0v618h-228v90h552v-90h-228v-618h-96z" />
    <glyph glyph-name="U" unicode="U" horiz-adv-x="704" 
d="M78 708h96v-434c0 -52.667 14.5 -99.5 43.5 -140.5s73.833 -61.5 134.5 -61.5s105.5 20.5 134.5 61.5s43.5 87.833 43.5 140.5v434h96v-449c0 -81.333 -26 -147.833 -78 -199.5s-117.333 -77.5 -196 -77.5s-144 25.833 -196 77.5s-78 118.167 -78 199.5v449z" />
    <glyph glyph-name="V" unicode="V" horiz-adv-x="630" 
d="M267 0l-273 708h111l208 -576h2l216 576h105l-279 -708h-90z" />
    <glyph glyph-name="W" unicode="W" horiz-adv-x="962" 
d="M208 0l-207 708h100l156 -566h2l167 566h110l167 -566h2l156 566h100l-206 -708h-101l-172 578h-2l-171 -578h-101z" />
    <glyph glyph-name="X" unicode="X" horiz-adv-x="648" 
d="M-2 0l257 372l-238 336h123l184 -272l182 272h120l-236 -335l260 -373h-126l-203 307l-204 -307h-119z" />
    <glyph glyph-name="Y" unicode="Y" horiz-adv-x="612" 
d="M258 0v302l-268 406h123l193 -311l199 311h117l-268 -406v-302h-96z" />
    <glyph glyph-name="Z" unicode="Z" horiz-adv-x="593" 
d="M32 0v90l403 528h-391v90h511v-90l-401 -528h407v-90h-529z" />
    <glyph glyph-name="bracketleft" unicode="[" horiz-adv-x="278" 
d="M72 -156v888h174v-66h-90v-756h90v-66h-174z" />
    <glyph glyph-name="backslash" unicode="\" horiz-adv-x="389" 
d="M319 -44l-319 770l69 26l320 -770z" />
    <glyph glyph-name="bracketright" unicode="]" horiz-adv-x="278" 
d="M32 -156v66h90v756h-90v66h174v-888h-174z" />
    <glyph glyph-name="asciicircum" unicode="^" horiz-adv-x="666" 
d="M80 276l213 432h80l213 -432h-83l-170 353l-170 -353h-83z" />
    <glyph glyph-name="underscore" unicode="_" horiz-adv-x="500" 
d="M0 -125v50h500v-50h-500z" />
    <glyph glyph-name="grave" unicode="`" horiz-adv-x="240" 
d="M82 708l104 -144h-83l-149 144h128z" />
    <glyph glyph-name="a" unicode="a" horiz-adv-x="519" 
d="M124 360l-54.001 56.001c49.333 46.667 112 70 188 70c66 0 115.5 -15.167 148.5 -45.5s49.5 -67.833 49.5 -112.5v-242c0 -35.333 1.33301 -64 4 -86h-80c-2 24 -3 48 -3 72h-2c-36.667 -56 -92 -84 -166 -84c-46 0 -84.833 12.667 -116.5 38s-47.5 60 -47.5 104
c0 57.333 23.833 99 71.5 125s110.834 39 189.501 39h66v20c0 26.667 -9.83301 50 -29.5 70s-47.5 30 -83.5 30c-21.333 0 -41.5 -3.33301 -60.5 -10s-31.833 -12.334 -38.5 -17.001s-18.667 -13.667 -36 -27zM371.999 228.001l-48 0.000976562
c-126 0 -189 -30.333 -189 -91c0 -51.333 34 -77 102 -77c46 0 80 13.667 102 41s33 59.666 33 96.999v30z" />
    <glyph glyph-name="b" unicode="b" horiz-adv-x="611" 
d="M68 0v755.999h90v-350h2c16 24.667 39 44.167 69 58.5s62 21.5 96 21.5c72 0 130.167 -23.5 174.5 -70.5s66.5 -106.5 66.5 -178.5c0 -71.333 -22.167 -130.666 -66.5 -177.999s-102.5 -71 -174.5 -71c-32.667 0 -64 7.16699 -94 21.5s-53.667 33.833 -71 58.5h-2v-68
h-90zM314 71.999c47.333 0 85.166 15.333 113.499 46s42.5 70.334 42.5 119.001s-14.167 88.334 -42.5 119.001s-66.166 46 -113.499 46s-85.166 -15.333 -113.499 -46s-42.5 -70.334 -42.5 -119.001s14.167 -88.334 42.5 -119.001s66.166 -46 113.499 -46z" />
    <glyph glyph-name="c" unicode="c" horiz-adv-x="482" 
d="M475 410l-68 -62.001c-33.333 35.333 -72.666 53 -117.999 53c-46.667 0 -83 -16.167 -109 -48.5s-39 -72.166 -39 -119.499c0 -45.333 14.167 -83.5 42.5 -114.5s65.166 -46.5 110.499 -46.5c46.667 0 85 17.667 115 53l64 -64c-44 -48.667 -104 -73 -180 -73
c-73.333 0 -133 23 -179 69s-69 105.333 -69 178c0 73.333 23 133.333 69 180s105.667 70 179 70c75.333 0 136 -25 182 -75z" />
    <glyph glyph-name="d" unicode="d" horiz-adv-x="611" 
d="M543 756v-755.999h-90v68h-2c-17.333 -24.667 -41 -44.167 -71 -58.5s-61.333 -21.5 -94 -21.5c-72 0 -130.167 23.667 -174.5 71s-66.5 106.666 -66.5 177.999c0 72 22.167 131.5 66.5 178.5s102.5 70.5 174.5 70.5c34 0 66 -7.16699 96 -21.5s53 -33.833 69 -58.5h2
v350h90zM297 72.001c47.333 0 85.166 15.333 113.499 46s42.5 70.334 42.5 119.001s-14.167 88.334 -42.5 119.001s-66.166 46 -113.499 46s-85.166 -15.333 -113.499 -46s-42.5 -70.334 -42.5 -119.001s14.167 -88.334 42.5 -119.001s66.166 -46 113.499 -46z" />
    <glyph glyph-name="e" unicode="e" 
d="M516 204l-379.999 0.000976562c0 -40 15.833 -73 47.5 -99s69.167 -39 112.5 -39c48 0 91.333 23.667 130 71l68 -52c-50 -64.667 -120 -97 -210 -97c-73.333 0 -132.333 23.5 -177 70.5s-67 106.5 -67 178.5c0 71.333 23.167 130.666 69.5 177.999s104.833 71 175.5 71
c77.333 0 135.166 -24.5 173.499 -73.5s57.5 -107.833 57.5 -176.5v-32zM136.001 276.001l284 0.000976562c-1.33301 41.333 -13.5 74.666 -36.5 99.999s-56.5 38 -100.5 38c-42 0 -77 -14.5 -105 -43.5s-42 -60.5 -42 -94.5z" />
    <glyph glyph-name="f" unicode="f" horiz-adv-x="333" 
d="M103 0l0.000976562 396h-102v78h102v106c0 64.667 12.5 112.167 37.5 142.5s66.5 45.5 124.5 45.5c25.333 0 47.666 -2.33301 66.999 -7l-10 -80c-14.667 6 -31.667 9 -51 9c-30.667 0 -51.167 -8.66699 -61.5 -26s-15.5 -44.333 -15.5 -81v-109h107v-78h-108v-396h-90z
" />
    <glyph glyph-name="g" unicode="g" horiz-adv-x="611" 
d="M543 474v-469.999c0 -72 -23.833 -130.667 -71.5 -176s-110.167 -68 -187.5 -68c-93.333 0 -170.666 28.333 -231.999 85l61 76c48 -51.333 104.333 -77 169 -77c61.333 0 105.166 15.667 131.499 47s39.5 70.333 39.5 117v70h-3
c-16.667 -27.333 -39.667 -48.166 -69 -62.499s-61 -21.5 -95 -21.5c-69.333 0 -127 23.167 -173 69.5s-68.667 104.166 -68 173.499c0 71.333 22.167 130.666 66.5 177.999s102.5 71 174.5 71c32.667 0 64 -7.16699 94 -21.5s53.667 -33.833 71 -58.5h2v68h90zM297 402.001
c-47.333 0 -85.168 -15.333 -113.501 -46s-42.5 -70.334 -42.5 -119.001c0 -48 14 -86.5 42 -115.5s66 -43.5 114 -43.5s86 14.5 114 43.5s42 67.5 42 115.5c0 48.667 -14.167 88.334 -42.5 119.001s-66.166 46 -113.499 46z" />
    <glyph glyph-name="h" unicode="h" 
d="M68 0l-0.00195312 756h90v-355h2c12 25.333 32 45.833 60 61.5s60 23.5 96 23.5c49.333 0 90.333 -15.167 123 -45.5s49 -75.5 49 -135.5v-305h-90v280c0 42 -10.167 72.833 -30.5 92.5s-46.166 29.5 -77.499 29.5c-39.333 0 -71.166 -13.167 -95.499 -39.5
s-36.5 -65.833 -36.5 -118.5v-244h-90z" />
    <glyph glyph-name="i" unicode="i" horiz-adv-x="240" 
d="M75 0v474h90v-474h-90zM54 644c0 18 6.5 33.5 19.5 46.5s28.5 19.5 46.5 19.5s33.5 -6.5 46.5 -19.5s19.5 -28.5 19.5 -46.5s-6.5 -33.5 -19.5 -46.5s-28.5 -19.5 -46.5 -19.5s-33.5 6.5 -46.5 19.5s-19.5 28.5 -19.5 46.5z" />
    <glyph glyph-name="j" unicode="j" horiz-adv-x="240" 
d="M75 474l89.9971 0.000976562v-542c0 -14.667 -0.333008 -27.167 -1 -37.5s-3.66699 -24.833 -9 -43.5s-12.666 -33.834 -21.999 -45.501s-23.666 -22.167 -42.999 -31.5s-42.666 -14 -69.999 -14c-22.667 0 -42 3 -58 9l10 83c14.667 -5.33301 27 -8 37 -8
c24 0 41 7.5 51 22.5s15 38.167 15 69.5v538zM53.9971 644.001c0 18 6.5 33.5 19.5 46.5s28.5 19.5 46.5 19.5s33.5 -6.5 46.5 -19.5s19.5 -28.5 19.5 -46.5s-6.5 -33.5 -19.5 -46.5s-28.5 -19.5 -46.5 -19.5s-33.5 6.5 -46.5 19.5s-19.5 28.5 -19.5 46.5z" />
    <glyph glyph-name="k" unicode="k" horiz-adv-x="519" 
d="M68 0v756h90v-488l204 205h125l-221 -215l240 -258h-128l-220 246v-246h-90z" />
    <glyph glyph-name="l" unicode="l" horiz-adv-x="240" 
d="M75 0v756h90v-756h-90z" />
    <glyph glyph-name="m" unicode="m" horiz-adv-x="852" 
d="M68 0l0.000976562 474.001h84v-74h2c6 18 23.333 36.833 52 56.5s62 29.5 100 29.5c68 0 117.333 -29.333 148 -88c14.667 28 35.834 49.667 63.501 65s56.5 23 86.5 23c120 0 180 -70 180 -210v-276h-90v264c0 20 -1.33301 37.5 -4 52.5s-7.33398 29.333 -14.001 43
s-17.167 24.167 -31.5 31.5s-31.833 11 -52.5 11c-80.667 0 -121 -47.667 -121 -143v-259h-90v248c0 51.333 -6.66699 89.833 -20 115.5s-40 38.5 -80 38.5c-34.667 0 -63.834 -13.333 -87.501 -40s-35.5 -65.334 -35.5 -116.001v-246h-90z" />
    <glyph glyph-name="n" unicode="n" 
d="M68 0l-0.00195312 474h90v-73h2c12 25.333 32 45.833 60 61.5s60 23.5 96 23.5c49.333 0 90.333 -15.167 123 -45.5s49 -75.5 49 -135.5v-305h-90v280c0 42 -10.167 72.833 -30.5 92.5s-46.166 29.5 -77.499 29.5c-39.333 0 -71.166 -13.167 -95.499 -39.5
s-36.5 -65.833 -36.5 -118.5v-244h-90z" />
    <glyph glyph-name="o" unicode="o" horiz-adv-x="594" 
d="M141 237c0 -48.667 14.167 -88.334 42.5 -119.001s66.166 -46 113.499 -46s85.166 15.333 113.499 46s42.5 70.334 42.5 119.001s-14.167 88.334 -42.5 119.001s-66.166 46 -113.499 46s-85.166 -15.333 -113.499 -46s-42.5 -70.334 -42.5 -119.001zM45 237
c0 69.333 24.333 128.166 73 176.499s108.334 72.5 179.001 72.5s130.334 -24.167 179.001 -72.5s73 -107.166 73 -176.499s-24.333 -128.166 -73 -176.499s-108.334 -72.5 -179.001 -72.5s-130.334 24.167 -179.001 72.5s-73 107.166 -73 176.499z" />
    <glyph glyph-name="p" unicode="p" horiz-adv-x="611" 
d="M68 -282v755.999h90v-68h2c17.333 24.667 41 44.167 71 58.5s61.333 21.5 94 21.5c72 0 130.167 -23.667 174.5 -71s66.5 -106.666 66.5 -177.999c0 -72 -22.167 -131.5 -66.5 -178.5s-102.5 -70.5 -174.5 -70.5c-34 0 -66 7.16699 -96 21.5s-53 33.833 -69 58.5h-2v-350
h-90zM314 401.999c-47.333 0 -85.166 -15.333 -113.499 -46s-42.5 -70.334 -42.5 -119.001s14.167 -88.334 42.5 -119.001s66.166 -46 113.499 -46s85.166 15.333 113.499 46s42.5 70.334 42.5 119.001s-14.167 88.334 -42.5 119.001s-66.166 46 -113.499 46z" />
    <glyph glyph-name="q" unicode="q" horiz-adv-x="611" 
d="M543 474v-701.999h-90v296h-2c-16 -24.667 -39 -44.167 -69 -58.5s-62 -21.5 -96 -21.5c-72 0 -130.167 23.5 -174.5 70.5s-66.5 106.5 -66.5 178.5c0 71.333 22.167 130.666 66.5 177.999s102.5 71 174.5 71c32.667 0 64 -7.16699 94 -21.5s53.667 -33.833 71 -58.5h2
v68h90zM297 402.001c-47.333 0 -85.166 -15.333 -113.499 -46s-42.5 -70.334 -42.5 -119.001s14.167 -88.334 42.5 -119.001s66.166 -46 113.499 -46s85.166 15.333 113.499 46s42.5 70.334 42.5 119.001s-14.167 88.334 -42.5 119.001s-66.166 46 -113.499 46z" />
    <glyph glyph-name="r" unicode="r" horiz-adv-x="370" 
d="M68 0v474h90v-73h2c11.333 24.667 30.333 45 57 61s55 24 85 24c14.667 0 28 -2 40 -6l-4 -97c-17.333 4.66699 -32 7 -44 7c-90.667 0 -136 -50.667 -136 -152v-238h-90z" />
    <glyph glyph-name="s" unicode="s" horiz-adv-x="444" 
d="M390 408l-69.999 -52.999c-25.333 31.333 -57.666 47 -96.999 47c-22 0 -40.667 -4.66699 -56 -14s-23 -22.333 -23 -39c0 -17.333 7.5 -31.5 22.5 -42.5s31.5 -18 49.5 -21s34.333 -6.5 49 -10.5c44.667 -10.667 78.834 -26 102.501 -46s35.5 -50.667 35.5 -92
c0 -50 -18.833 -87.333 -56.5 -112s-82.834 -37 -135.501 -37c-40.667 0 -75.667 6.33301 -105 19s-55.333 34.334 -78 65.001l68 56c37.333 -37.333 75.666 -56 114.999 -56c25.333 0 47.666 5.16699 66.999 15.5s29 25.166 29 44.499c0 12.667 -4.16699 23.667 -12.5 33
s-18.333 16.166 -30 20.499s-24 8.33301 -37 12s-24.5 6.16699 -34.5 7.5c-22.667 5.33301 -41.334 10.833 -56.001 16.5s-29.5 13.5 -44.5 23.5s-26.167 22.833 -33.5 38.5s-11 34.5 -11 56.5c0 46.667 17.833 82.667 53.5 108s77.834 38 126.501 38
c76.667 0 130.667 -26 162 -78z" />
    <glyph glyph-name="t" unicode="t" horiz-adv-x="370" 
d="M322 474l0.00195312 -78h-129v-215c0 -18 0.5 -31.5 1.5 -40.5s3.33301 -19.833 7 -32.5s10.5 -21.834 20.5 -27.501s23 -8.5 39 -8.5c27.333 0 48.666 4.66699 63.999 14v-82c-18.667 -10.667 -45.667 -16 -81 -16c-26.667 0 -49.334 3.5 -68.001 10.5
s-32.667 14.833 -42 23.5s-16.5 21.334 -21.5 38.001s-7.83301 30.667 -8.5 42s-1 27 -1 47v247h-104v78h104v133h90v-133h129z" />
    <glyph glyph-name="u" unicode="u" 
d="M488 474l0.00195312 -474h-90v73h-2c-12 -25.333 -32 -45.833 -60 -61.5s-60 -23.5 -96 -23.5c-49.333 0 -90.333 15.167 -123 45.5s-49 75.5 -49 135.5v305h90v-280c0 -42 10.167 -72.833 30.5 -92.5s46.166 -29.5 77.499 -29.5c39.333 0 71.166 13.167 95.499 39.5
s36.5 65.833 36.5 118.5v244h90z" />
    <glyph glyph-name="v" unicode="v" horiz-adv-x="500" 
d="M204 0l-193 474h104l142 -363l136 363h96l-186 -474h-99z" />
    <glyph glyph-name="w" unicode="w" horiz-adv-x="759" 
d="M167 0l-156 474h101l107 -354h2l113 354h95l120 -354h2l102 354h95l-153 -474h-91l-125 354h-2l-113 -354h-97z" />
    <glyph glyph-name="x" unicode="x" horiz-adv-x="519" 
d="M6 0l192 253l-168 221h116l115 -168l113 168h109l-162 -221l192 -253h-116l-140 199l-140 -199h-111z" />
    <glyph glyph-name="y" unicode="y" horiz-adv-x="500" 
d="M208 -3l-197 477.001h104l141 -370h2l134 370h97l-225 -576c-18.667 -48 -39 -83 -61 -105s-55.667 -33 -101 -33c-32 0 -58.667 4.33301 -80 13l11 82c18 -7.33301 36 -11 54 -11c26 0 45.167 6.16699 57.5 18.5s23.833 32.166 34.5 59.499z" />
    <glyph glyph-name="z" unicode="z" horiz-adv-x="463" 
d="M35 0v81l269 315h-260v78h370v-80l-271 -316h285v-78h-393z" />
    <glyph glyph-name="braceleft" unicode="{" horiz-adv-x="333" 
d="M304 732l0.00292969 -71.9961h-45c-34 0 -51 -29 -51 -87v-151c1.33301 -40.667 -7.66699 -71.834 -27 -93.501s-38.333 -34.834 -57 -39.501v-3c7.33301 -0.666992 15.166 -3.33398 23.499 -8.00098s17.5 -11.834 27.5 -21.501s18.167 -23.5 24.5 -41.5
s9.16602 -39 8.49902 -63v-150c0 -24 4 -44.333 12 -61s21 -25 39 -25h45v-72h-75c-28 0 -52.5 13 -73.5 39s-31.5 64 -31.5 114v134c-1.33301 36 -9.83301 64.5 -25.5 85.5s-35.167 31.5 -58.5 31.5v78c23.333 0 42.833 10.5 58.5 31.5s24.167 49.5 25.5 85.5v158
c0 40 10.667 71.833 32 95.5s45.666 35.5 72.999 35.5h75z" />
    <glyph glyph-name="bar" unicode="|" horiz-adv-x="222" 
d="M72 750h78v-1000h-78v1000z" />
    <glyph glyph-name="braceright" unicode="}" horiz-adv-x="333" 
d="M29 -156l-0.00292969 71.9941h45c34 0 51 29 51 87v151c-1.33301 40.667 7.66699 71.834 27 93.501s38.333 34.834 57 39.501v3c-7.33301 0.666992 -15.166 3.33398 -23.499 8.00098s-17.5 11.834 -27.5 21.501s-18.167 23.5 -24.5 41.5s-9.16602 39 -8.49902 63v150
c0 24 -4 44.333 -12 61s-21 25 -39 25h-45v72h75c28 0 52.5 -13 73.5 -39s31.5 -64 31.5 -114v-134c0 -35.333 8.16699 -63.666 24.5 -84.999s36.166 -32 59.499 -32v-78c-23.333 0 -43.166 -10.667 -59.499 -32s-24.5 -49.666 -24.5 -84.999v-158
c0 -40 -10.667 -71.833 -32 -95.5s-45.666 -35.5 -72.999 -35.5h-75z" />
    <glyph glyph-name="asciitilde" unicode="~" horiz-adv-x="666" 
d="M530 378l40 -62c-34.667 -58.667 -77.334 -88 -128.001 -88c-26.667 0 -65.334 12 -116.001 36s-86 36 -106 36c-32 0 -60 -24 -84 -72l-40 62c34.667 58.667 79 88 133 88c28.667 0 66.334 -12 113.001 -36c48 -24.667 81 -37 99 -37c34.667 0 64.334 24.333 89.001 73z
" />
    <glyph glyph-name="uni00A0" unicode="&#xa0;" horiz-adv-x="278" 
 />
    <glyph glyph-name="exclamdown" unicode="&#xa1;" horiz-adv-x="278" 
d="M93 -222v504h96v-504h-96zM205 426c0 -18 -6.5 -33.5 -19.5 -46.5s-28.5 -19.5 -46.5 -19.5s-33.5 6.5 -46.5 19.5s-19.5 28.5 -19.5 46.5s6.5 33.5 19.5 46.5s28.5 19.5 46.5 19.5s33.5 -6.5 46.5 -19.5s19.5 -28.5 19.5 -46.5z" />
    <glyph glyph-name="cent" unicode="&#xa2;" 
d="M342 408l-0.00292969 -342.001c42 1.33301 77.333 18.666 106 51.999l59 -58c-38 -42.667 -93 -66.667 -165 -72v-66h-54v66c-65.333 6.66699 -117.666 33.167 -156.999 79.5s-59 102.833 -59 169.5c0 67.333 19.333 123.333 58 168s91.334 71.667 158.001 81v66h54v-66
c71.333 -3.33301 127 -28.666 167 -75.999l-65 -59c-13.333 16 -29.166 29.333 -47.499 40s-36.5 16.334 -54.5 17.001zM287.997 65.999l-0.000976562 342.001c-40 -6 -71 -25 -93 -57s-33 -69.333 -33 -112s11.333 -80.334 34 -113.001s53.334 -52.667 92.001 -60z" />
    <glyph glyph-name="sterling" unicode="&#xa3;" 
d="M432 400l0.000976562 -72h-162v-244h246v-84h-444v84h102v244h-96v72h96v100c0 62 19.333 114.167 58 156.5s92.667 63.5 162 63.5s125.666 -20.667 168.999 -62l-61 -70c-33.333 32 -66 48 -98 48c-38.667 0 -70.667 -13 -96 -39s-38 -66.333 -38 -121v-76h162z" />
    <glyph glyph-name="currency" unicode="&#xa4;" 
d="M21 555l57 56l49 -48c46.667 32.667 97 49 151 49c55.333 0 105.666 -16.333 150.999 -49l49 48l57 -56l-49 -49c32.667 -44.667 49 -95 49 -151s-16.333 -106.333 -49 -151l49 -49l-57 -57l-49 49c-43.333 -32.667 -93.666 -49 -150.999 -49
c-54.667 0 -105 16.333 -151 49l-49 -49l-57 57l49 49c-32.667 44.667 -49 95 -49 151s16.333 106.333 49 151zM99 355c0 -49.333 17.5 -91.5 52.5 -126.5s77.167 -52.5 126.5 -52.5s91.5 17.5 126.5 52.5s52.5 77.167 52.5 126.5s-17.5 91.5 -52.5 126.5
s-77.167 52.5 -126.5 52.5s-91.5 -17.5 -126.5 -52.5s-52.5 -77.167 -52.5 -126.5z" />
    <glyph glyph-name="yen" unicode="&#xa5;" 
d="M236 0v186h-171v66h171v53l-17 28h-154v66h114l-184 309h100l179 -316l185 316h102l-186 -309h116v-66h-154l-17 -28v-53h171v-66h-171v-186h-84z" />
    <glyph glyph-name="brokenbar" unicode="&#xa6;" horiz-adv-x="222" 
d="M72 675h78v-350h-78v350zM72 175h78v-350h-78v350z" />
    <glyph glyph-name="section" unicode="&#xa7;" 
d="M483 626l-84 -46.0039c-16 40 -49.667 60.667 -101 62c-28 0 -51.5 -6.66699 -70.5 -20s-28.5 -32.666 -28.5 -57.999c0 -21.333 10.167 -40.333 30.5 -57s44.833 -31.167 73.5 -43.5s57.5 -25.5 86.5 -39.5s53.667 -33.333 74 -58s30.5 -53.667 30.5 -87
c0 -58 -27.667 -101.667 -83 -131c43.333 -29.333 65 -69.666 65 -120.999c0 -54 -20.667 -96 -62 -126s-90.666 -45 -147.999 -45c-46.667 0 -88 10 -124 30s-62.667 50.333 -80 91l87 41c17.333 -52 58.666 -78 123.999 -78c28 0 51.833 7.33301 71.5 22
s29.5 36.334 29.5 65.001c0 18.667 -10.167 35.834 -30.5 51.501s-45 29.834 -74 42.501s-57.833 26.167 -86.5 40.5s-53.167 32.666 -73.5 54.999s-30.5 47.833 -30.5 76.5c0 68.667 32.667 119 98 151c-53.333 30 -80 69.333 -80 118c0 50.667 20.333 90.667 61 120
s88 44 142 44c39.333 0 75.833 -8.33301 109.5 -25s58.167 -41.667 73.5 -75zM322 361.996l-79.001 37.999c-49.333 -19.333 -74 -45.666 -74 -78.999c0 -14.667 3.16699 -27.667 9.5 -39s14.166 -20.333 23.499 -27s19.833 -13.167 31.5 -19.5s22.834 -11.833 33.501 -16.5
l77 -37c16.667 10 30.834 23 42.501 39s17.5 32.333 17.5 49c0 15.333 -4.83301 29.333 -14.5 42s-19.167 22 -28.5 28s-22.333 13.333 -39 22z" />
    <glyph glyph-name="dieresis" unicode="&#xa8;" horiz-adv-x="240" 
d="M18 714c16 0 30.333 -5.5 43 -16.5s19 -24.5 19 -40.5c0 -18 -5.83301 -33 -17.5 -45s-26.5 -18 -44.5 -18s-32.833 6 -44.5 18s-17.5 27 -17.5 45c0 16 6.33301 29.5 19 40.5s27 16.5 43 16.5zM222 714c16 0 30.333 -5.5 43 -16.5s19 -24.5 19 -40.5
c0 -18 -5.83301 -33 -17.5 -45s-26.5 -18 -44.5 -18s-32.833 6 -44.5 18s-17.5 27 -17.5 45c0 16 6.33301 29.5 19 40.5s27 16.5 43 16.5z" />
    <glyph glyph-name="copyright" unicode="&#xa9;" horiz-adv-x="800" 
d="M28 354c0 102.667 36.333 190.334 109 263.001s160.334 109 263.001 109s190.334 -36.333 263.001 -109s109 -160.334 109 -263.001s-36.333 -190.334 -109 -263.001s-160.334 -109 -263.001 -109s-190.334 36.333 -263.001 109s-109 160.334 -109 263.001zM512 286
l77.001 -0.00195312c-10.667 -48 -32.5 -86.167 -65.5 -114.5s-73.167 -42.5 -120.5 -42.5c-68.667 0 -122.834 20.833 -162.501 62.5s-59.5 96.834 -59.5 165.501c0 70 19.167 125.5 57.5 166.5s92.166 61.5 161.499 61.5c50.667 0 92.834 -13.167 126.501 -39.5
s54.5 -64.166 62.5 -113.499h-77c-14 54 -51 81 -111 81c-46.667 0 -82 -13.5 -106 -40.5s-36 -64.833 -36 -113.5c0 -45.333 13 -83 39 -113s61 -45 105 -45c60.667 0 97 28.333 109 85zM94.001 353.998c0 -84.667 29.833 -156.834 89.5 -216.501
s131.834 -89.5 216.501 -89.5s156.834 29.833 216.501 89.5s89.5 131.834 89.5 216.501s-29.833 156.834 -89.5 216.501s-131.834 89.5 -216.501 89.5s-156.834 -29.833 -216.501 -89.5s-89.5 -131.834 -89.5 -216.501z" />
    <glyph glyph-name="ordfeminine" unicode="&#xaa;" horiz-adv-x="337" 
d="M308 425h-66v44l-2 1c-16 -34 -49.333 -51 -100 -51c-29.333 0 -54.333 7.5 -75 22.5s-31 36.167 -31 63.5c0 18.667 4.66699 34.834 14 48.501s20.166 23.834 32.499 30.501s28.5 12 48.5 16s37 6.33301 51 7s30.667 1 50 1h12v10c0 13.333 -6 24.666 -18 33.999
s-28.667 14 -50 14c-35.333 0 -65 -11 -89 -33l-35 45c32 28 73 42 123 42c52.667 0 88.334 -8.83301 107.001 -26.5s28 -41.834 28 -72.501v-196zM242 560l-1.99902 0.00195312c-20 0 -35.833 -0.333008 -47.5 -1s-25.834 -2.33398 -42.501 -5.00098
s-29.167 -7.83398 -37.5 -15.501s-12.5 -17.5 -12.5 -29.5c0 -24 20 -36 60 -36c27.333 0 47.833 6.16699 61.5 18.5s20.5 28.833 20.5 49.5v19z" />
    <glyph glyph-name="guillemotleft" unicode="&#xab;" horiz-adv-x="500" 
d="M193 27l-146 216l145 216l62 -41l-117 -175l118 -175zM391 27l-146 216l145 216l62 -41l-117 -175l118 -175z" />
    <glyph glyph-name="logicalnot" unicode="&#xac;" horiz-adv-x="666" 
d="M600 420v-279h-78v201h-456v78h534z" />
    <glyph glyph-name="uni00AD" unicode="&#xad;" horiz-adv-x="316" 
d="M281 284v-84h-246v84h246z" />
    <glyph glyph-name="registered" unicode="&#xae;" horiz-adv-x="800" 
d="M257 144l0.000976562 424.999h164c100 0 150 -42.667 150 -128c0 -35.333 -9.33301 -62.666 -28 -81.999s-43.334 -31 -74.001 -35l111 -180h-82l-106 174h-57v-174h-78zM335.001 502.999l-0.000976562 -119h57c20.667 0 37 0.833008 49 2.5s23.667 7.16699 35 16.5
s17 23 17 41s-5.66699 31.667 -17 41s-23.166 14.833 -35.499 16.5s-28.5 2.16699 -48.5 1.5h-57zM28 353.999c0 102.667 36.333 190.334 109 263.001s160.334 109 263.001 109s190.334 -36.333 263.001 -109s109 -160.334 109 -263.001s-36.333 -190.334 -109 -263.001
s-160.334 -109 -263.001 -109s-190.334 36.333 -263.001 109s-109 160.334 -109 263.001zM94 353.999c0 -84.667 29.833 -156.834 89.5 -216.501s131.834 -89.5 216.501 -89.5s156.834 29.833 216.501 89.5s89.5 131.834 89.5 216.501s-29.833 156.834 -89.5 216.501
s-131.834 89.5 -216.501 89.5s-156.834 -29.833 -216.501 -89.5s-89.5 -131.834 -89.5 -216.501z" />
    <glyph glyph-name="macron" unicode="&#xaf;" horiz-adv-x="240" 
d="M264 666v-66h-288v66h288z" />
    <glyph glyph-name="degree" unicode="&#xb0;" horiz-adv-x="400" 
d="M51 571c0 40.667 14.5 75.667 43.5 105s64.167 44 105.5 44s76.5 -14.667 105.5 -44s43.5 -64.333 43.5 -105s-14.5 -75.667 -43.5 -105s-64.167 -44 -105.5 -44s-76.5 14.667 -105.5 44s-43.5 64.333 -43.5 105zM117 571c0 -23.333 8.16699 -43 24.5 -59
s35.833 -24 58.5 -24s42.167 8 58.5 24s24.5 35.667 24.5 59s-8.16699 43 -24.5 59s-35.833 24 -58.5 24s-42.167 -8 -58.5 -24s-24.5 -35.667 -24.5 -59z" />
    <glyph glyph-name="plusminus" unicode="&#xb1;" horiz-adv-x="666" 
d="M66 315v78h228v163h78v-163h228v-78h-228v-150h-78v150h-228zM66 51v78h534v-78h-534z" />
    <glyph glyph-name="twosuperior" unicode="&#xb2;" horiz-adv-x="361" 
d="M26 289l-0.00292969 76.002l179 160c30 27.333 45 51.666 45 72.999c0 17.333 -6.16699 31 -18.5 41s-27.833 15 -46.5 15c-19.333 0 -35.166 -5.33301 -47.499 -16s-19.166 -25 -20.499 -43l-84 6c3.33301 38 18.833 67.333 46.5 88s62.834 31 105.501 31
c44 0 79.833 -10.333 107.5 -31s41.5 -50.334 41.5 -89.001c0 -42 -23.667 -83.333 -71 -124l-141 -121h213v-66h-309z" />
    <glyph glyph-name="threesuperior" unicode="&#xb3;" horiz-adv-x="361" 
d="M140 477l0.000976562 66h18c18 0 32.833 1 44.5 3s22.167 7.5 31.5 16.5s14 21.5 14 37.5s-6 29 -18 39s-27.667 15 -47 15c-34.667 0 -57.667 -15 -69 -45l-83 20c9.33301 30 27.333 52.667 54 68s58 23 94 23c42 0 77 -9.83301 105 -29.5s42 -47.167 42 -82.5
c0 -23.333 -7 -43.833 -21 -61.5s-33 -29.167 -57 -34.5v-2c28 -3.33301 49.833 -14.5 65.5 -33.5s23.5 -42.167 23.5 -69.5c0 -38.667 -15 -69 -45 -91s-66.667 -33 -110 -33c-86.667 0 -139.334 33 -158.001 99l83 20c10.667 -35.333 35.667 -53 75 -53
c21.333 0 39.5 6 54.5 18s22.5 27.333 22.5 46c0 44 -34 65.333 -102 64h-17z" />
    <glyph glyph-name="acute" unicode="&#xb4;" horiz-adv-x="240" 
d="M54 564l104 144h128l-149 -144h-83z" />
    <glyph glyph-name="mu" unicode="&#xb5;" 
d="M68 -228l0.00195312 702h90v-280c0 -42 10.167 -72.833 30.5 -92.5s46.166 -29.5 77.499 -29.5c39.333 0 71.166 13.167 95.499 39.5s36.5 65.833 36.5 118.5v244h90v-474h-90v73h-2c-12 -25.333 -32 -45.833 -60 -61.5s-60 -23.5 -96 -23.5c-30.667 0 -58 6 -82 18v-234
h-90z" />
    <glyph glyph-name="paragraph" unicode="&#xb6;" horiz-adv-x="600" 
d="M260 -126l-0.000976562 444c-60.667 0 -110.667 17.667 -150 53s-59 79.333 -59 132c0 64.667 20.333 115 61 151s96.334 54 167.001 54h249v-834h-78v768h-112v-768h-78z" />
    <glyph glyph-name="periodcentered" unicode="&#xb7;" horiz-adv-x="278" 
d="M73 303c0 18 6.5 33.5 19.5 46.5s28.5 19.5 46.5 19.5s33.5 -6.5 46.5 -19.5s19.5 -28.5 19.5 -46.5s-6.5 -33.5 -19.5 -46.5s-28.5 -19.5 -46.5 -19.5s-33.5 6.5 -46.5 19.5s-19.5 28.5 -19.5 46.5z" />
    <glyph glyph-name="cedilla" unicode="&#xb8;" horiz-adv-x="240" 
d="M5 -205l19 40c25.333 -10 51.333 -15 78 -15c15.333 0 29.333 3.16699 42 9.5s19 17.166 19 32.499c0 22.667 -11 35.834 -33 39.501s-42.333 1.5 -61 -6.5l-21 18l61 87h49l-44 -61h29c24.667 0.666992 46.167 -5.33301 64.5 -18s27.5 -30.667 27.5 -54
c0 -32.667 -12.5 -56.667 -37.5 -72s-54.167 -23 -87.5 -23c-38.667 0 -73.667 7.66699 -105 23z" />
    <glyph glyph-name="onesuperior" unicode="&#xb9;" horiz-adv-x="361" 
d="M154 289v359l-85 -72l-42 46l128 98h71v-431h-72z" />
    <glyph glyph-name="ordmasculine" unicode="&#xba;" horiz-adv-x="386" 
d="M193 720c50 0 89.833 -13.833 119.5 -41.5s44.5 -64.167 44.5 -109.5s-14.833 -81.666 -44.5 -108.999s-69.5 -41 -119.5 -41s-89.833 13.667 -119.5 41s-44.5 63.666 -44.5 108.999s14.833 81.833 44.5 109.5s69.5 41.5 119.5 41.5zM193 660
c-29.333 0 -52 -8.16699 -68 -24.5s-24 -38.5 -24 -66.5s8 -50 24 -66s38.667 -24 68 -24s52 8 68 24s24 38 24 66s-8 50.167 -24 66.5s-38.667 24.5 -68 24.5z" />
    <glyph glyph-name="guillemotright" unicode="&#xbb;" horiz-adv-x="500" 
d="M307 459l146 -216l-145 -216l-62 41l117 175l-118 175zM109 459l146 -216l-145 -216l-62 41l117 175l-118 175z" />
    <glyph glyph-name="onequarter" unicode="&#xbc;" horiz-adv-x="834" 
d="M673 0v94h-196v58l183 279h79v-271h62v-66h-62v-94h-66zM667 160v187h-2l-116 -187h118zM152 0l439 740l60 -32l-439 -740zM160 289v359l-85 -72l-42 46l128 98h71v-431h-72z" />
    <glyph glyph-name="onehalf" unicode="&#xbd;" horiz-adv-x="834" 
d="M158 289v359l-85 -72l-42 46l128 98h71v-431h-72zM494 0l-0.00292969 76.001l179 160c30 26.667 45 51 45 73c0 17.333 -6.16699 31 -18.5 41s-27.833 15 -46.5 15c-19.333 0 -35.166 -5.33301 -47.499 -16s-19.166 -25 -20.499 -43l-84 6
c3.33301 38 18.833 67.333 46.5 88s62.834 31 105.501 31c44 0 79.833 -10.333 107.5 -31s41.5 -50.334 41.5 -89.001c0 -42 -23.667 -83.333 -71 -124l-141 -121h213v-66h-309zM139.997 0.000976562l439 740l60 -32l-439 -740z" />
    <glyph glyph-name="threequarters" unicode="&#xbe;" horiz-adv-x="834" 
d="M693 0v94h-196v58l183 279h79v-271h62v-66h-62v-94h-66zM693 160v187h-2l-116 -187h118zM192 0l439 740l60 -32l-439 -740zM139 477l0.000976562 66h18c18 0 32.833 1 44.5 3s22.167 7.5 31.5 16.5s14 21.5 14 37.5s-6 29 -18 39s-27.667 15 -47 15
c-34.667 0 -57.667 -15 -69 -45l-83 20c9.33301 30 27.333 52.667 54 68s58 23 94 23c42 0 77 -9.83301 105 -29.5s42 -47.167 42 -82.5c0 -23.333 -7 -43.833 -21 -61.5s-33 -29.167 -57 -34.5v-2c28 -3.33301 49.833 -14.5 65.5 -33.5s23.5 -42.167 23.5 -69.5
c0 -38.667 -15 -69 -45 -91s-66.667 -33 -110 -33c-86.667 0 -139.334 33 -158.001 99l83 20c10.667 -35.333 35.667 -53 75 -53c21.333 0 39.5 6 54.5 18s22.5 27.333 22.5 46c0 44 -34 65.333 -102 64h-17z" />
    <glyph glyph-name="questiondown" unicode="&#xbf;" horiz-adv-x="500" 
d="M194 288l96.002 -0.00390625v-61c0 -24 -2.83301 -43.667 -8.5 -59s-12 -27.166 -19 -35.499s-21.5 -22.833 -43.5 -43.5l-42 -40.5c-13.333 -12.333 -24.833 -27.166 -34.5 -44.499s-14.5 -35.333 -14.5 -54c0 -30 10.167 -55.167 30.5 -75.5s45.5 -30.5 75.5 -30.5
c32 0 58.333 10.333 79 31s33 47.667 37 81l102 -10c-8.66699 -57.333 -32.834 -102.666 -72.501 -135.999s-88.834 -50 -147.501 -50c-58 0 -105.833 16.5 -143.5 49.5s-56.5 78.167 -56.5 135.5c0 52 14 92 42 120l70 71c21.333 22 35 38.833 41 50.5s9 30.834 9 57.501
v44zM309.002 425.996c0 -18 -6.5 -33.5 -19.5 -46.5s-28.5 -19.5 -46.5 -19.5s-33.5 6.5 -46.5 19.5s-19.5 28.5 -19.5 46.5s6.5 33.5 19.5 46.5s28.5 19.5 46.5 19.5s33.5 -6.5 46.5 -19.5s19.5 -28.5 19.5 -46.5z" />
    <glyph glyph-name="Agrave" unicode="&#xc0;" horiz-adv-x="704" 
d="M1 0l312 708h87l303 -708h-112l-71 175h-337l-70 -175h-112zM217 259h268l-132 325h-2zM314 892l104 -144h-83l-149 144h128z" />
    <glyph glyph-name="Aacute" unicode="&#xc1;" horiz-adv-x="704" 
d="M1 0l312 708h87l303 -708h-112l-71 175h-337l-70 -175h-112zM217 259h268l-132 325h-2zM286 748l104 144h128l-149 -144h-83z" />
    <glyph glyph-name="Acircumflex" unicode="&#xc2;" horiz-adv-x="704" 
d="M1 0l312 708h87l303 -708h-112l-71 175h-337l-70 -175h-112zM217 259h268l-132 325h-2zM517 748h-91l-74 96l-74 -96h-91l112 144h106z" />
    <glyph glyph-name="Atilde" unicode="&#xc3;" horiz-adv-x="704" 
d="M1 0l312 708h87l303 -708h-112l-71 175h-337l-70 -175h-112zM217 259h268l-132 325h-2zM232 760h-48.0029c4.66699 28.667 15.834 53.167 33.501 73.5s40.167 30.5 67.5 30.5c18.667 0 46.667 -7.66699 84 -23c8 -4 16.833 -7.83301 26.5 -11.5s18.834 -5.5 27.501 -5.5
c24 0 40.333 14.667 49 44h48c-4.66699 -29.333 -14.667 -54 -30 -74s-36.666 -30 -63.999 -30c-18.667 0 -45.667 7 -81 21c-31.333 12.667 -53.333 19 -66 19c-22 0 -37.667 -14.667 -47 -44z" />
    <glyph glyph-name="Adieresis" unicode="&#xc4;" horiz-adv-x="704" 
d="M1 0l312 708h87l303 -708h-112l-71 175h-337l-70 -175h-112zM217 259h268l-132 325h-2zM250 898c16 0 30.333 -5.5 43 -16.5s19 -24.5 19 -40.5c0 -18 -5.83301 -33 -17.5 -45s-26.5 -18 -44.5 -18s-32.833 6 -44.5 18s-17.5 27 -17.5 45c0 16 6.33301 29.5 19 40.5
s27 16.5 43 16.5zM454 898c16 0 30.333 -5.5 43 -16.5s19 -24.5 19 -40.5c0 -18 -5.83301 -33 -17.5 -45s-26.5 -18 -44.5 -18s-32.833 6 -44.5 18s-17.5 27 -17.5 45c0 16 6.33301 29.5 19 40.5s27 16.5 43 16.5z" />
    <glyph glyph-name="Aring" unicode="&#xc5;" horiz-adv-x="704" 
d="M1 0l312 708h87l303 -708h-112l-71 175h-337l-70 -175h-112zM217 259h268l-132 325h-2zM250 825c0 27.333 10.167 50.667 30.5 70s44.166 29 71.499 29c28 0 52.167 -9.5 72.5 -28.5s30.166 -42.167 29.499 -69.5c0.666992 -28 -9.16602 -51.5 -29.499 -70.5
s-44.5 -28.5 -72.5 -28.5c-27.333 0 -51.166 9.5 -71.499 28.5s-30.5 42.167 -30.5 69.5zM412 825.001c0 16 -6 29.5 -18 40.5s-26 16.5 -42 16.5s-30 -5.5 -42 -16.5s-18 -24.5 -18 -40.5c0 -15.333 6 -28.5 18 -39.5s26 -16.5 42 -16.5s30 5.5 42 16.5s18 24.167 18 39.5z
" />
    <glyph glyph-name="AE" unicode="&#xc6;" horiz-adv-x="963" 
d="M-8 0l458 708h456v-90h-295v-211h277v-90h-277v-227h307v-90h-403v172h-304l-101 -172h-118zM263 262h252v356h-19z" />
    <glyph glyph-name="Ccedilla" unicode="&#xc7;" horiz-adv-x="704" 
d="M664 616l-80.0049 -61.002c-20 25.333 -45.167 45.166 -75.5 59.499s-62.166 21.5 -95.499 21.5c-78 0 -141.5 -27.5 -190.5 -82.5s-73.5 -123.5 -73.5 -205.5c0 -77.333 24 -142.666 72 -195.999s112 -80 192 -80c78 0 139.667 31.667 185 95l81 -61
c-7.33301 -10 -17 -20.667 -29 -32s-28.833 -24.666 -50.5 -39.999s-49.167 -27.833 -82.5 -37.5s-68.666 -14.5 -105.999 -14.5c-5.33301 0 -9.66602 0.333008 -12.999 1l-32 -44h29c24.667 0.666992 46.167 -5.33301 64.5 -18s27.5 -30.667 27.5 -54
c0 -32.667 -12.5 -56.667 -37.5 -72s-54.167 -23 -87.5 -23c-38.667 0 -73.667 7.66699 -105 23l19 40c25.333 -10 51.333 -15 78 -15c15.333 0 29.333 3.16699 42 9.5s19 17.166 19 32.499c0 22.667 -11 35.834 -33 39.501s-42.333 1.5 -61 -6.5l-21 18l52 74
c-91.333 14 -165 56.333 -221 127s-84 148.667 -84 234c0 110.667 34.333 201.334 103 272.001s157.334 106 266.001 106c48.667 0 95.334 -9.33301 140.001 -28s80.667 -46 108 -82z" />
    <glyph glyph-name="Egrave" unicode="&#xc8;" horiz-adv-x="611" 
d="M91 0v708h457v-90h-361v-211h336v-90h-336v-227h379v-90h-475zM268 892l104 -144h-83l-149 144h128z" />
    <glyph glyph-name="Eacute" unicode="&#xc9;" horiz-adv-x="611" 
d="M91 0v708h457v-90h-361v-211h336v-90h-336v-227h379v-90h-475zM240 748l104 144h128l-149 -144h-83z" />
    <glyph glyph-name="Ecircumflex" unicode="&#xca;" horiz-adv-x="611" 
d="M91 0v708h457v-90h-361v-211h336v-90h-336v-227h379v-90h-475zM471 748h-91l-74 96l-74 -96h-91l112 144h106z" />
    <glyph glyph-name="Edieresis" unicode="&#xcb;" horiz-adv-x="611" 
d="M91 0v708h457v-90h-361v-211h336v-90h-336v-227h379v-90h-475zM204 898c16 0 30.333 -5.5 43 -16.5s19 -24.5 19 -40.5c0 -18 -5.83301 -33 -17.5 -45s-26.5 -18 -44.5 -18s-32.833 6 -44.5 18s-17.5 27 -17.5 45c0 16 6.33301 29.5 19 40.5s27 16.5 43 16.5zM408 898
c16 0 30.333 -5.5 43 -16.5s19 -24.5 19 -40.5c0 -18 -5.83301 -33 -17.5 -45s-26.5 -18 -44.5 -18s-32.833 6 -44.5 18s-17.5 27 -17.5 45c0 16 6.33301 29.5 19 40.5s27 16.5 43 16.5z" />
    <glyph glyph-name="Igrave" unicode="&#xcc;" horiz-adv-x="278" 
d="M91 0v708h96v-708h-96zM101 892l104 -144h-83l-149 144h128z" />
    <glyph glyph-name="Iacute" unicode="&#xcd;" horiz-adv-x="278" 
d="M91 0v708h96v-708h-96zM73 748l104 144h128l-149 -144h-83z" />
    <glyph glyph-name="Icircumflex" unicode="&#xce;" horiz-adv-x="278" 
d="M91 0v708h96v-708h-96zM304 748h-91l-74 96l-74 -96h-91l112 144h106z" />
    <glyph glyph-name="Idieresis" unicode="&#xcf;" horiz-adv-x="278" 
d="M91 0v708h96v-708h-96zM37 898c16 0 30.333 -5.5 43 -16.5s19 -24.5 19 -40.5c0 -18 -5.83301 -33 -17.5 -45s-26.5 -18 -44.5 -18s-32.833 6 -44.5 18s-17.5 27 -17.5 45c0 16 6.33301 29.5 19 40.5s27 16.5 43 16.5zM241 898c16 0 30.333 -5.5 43 -16.5
s19 -24.5 19 -40.5c0 -18 -5.83301 -33 -17.5 -45s-26.5 -18 -44.5 -18s-32.833 6 -44.5 18s-17.5 27 -17.5 45c0 16 6.33301 29.5 19 40.5s27 16.5 43 16.5z" />
    <glyph glyph-name="Eth" unicode="&#xd0;" horiz-adv-x="741" 
d="M75 0l0.000976562 336.002h-72v66h72v306h247c57.333 0 108.5 -8.16699 153.5 -24.5s80.833 -37 107.5 -62s48.667 -53.833 66 -86.5s29.166 -63.834 35.499 -93.501s9.5 -58.834 9.5 -87.501c0 -46 -8.5 -90 -25.5 -132s-41.333 -79.667 -73 -113
s-72.5 -59.833 -122.5 -79.5s-105.667 -29.5 -167 -29.5h-231zM171.001 336.002v-246h121c85.333 0 156.666 23 213.999 69s86 111 86 195c0 20.667 -2.16699 41.5 -6.5 62.5s-12.666 44 -24.999 69s-28.333 47 -48 66s-46.5 34.833 -80.5 47.5s-73 19 -117 19h-144v-216
h234v-66h-234z" />
    <glyph glyph-name="Ntilde" unicode="&#xd1;" horiz-adv-x="796" 
d="M91 0v708h126l390 -582h2v582h96v-708h-122l-394 582h-2v-582h-96zM278 760h-48.0029c4.66699 28.667 15.834 53.167 33.501 73.5s40.167 30.5 67.5 30.5c18.667 0 46.667 -7.66699 84 -23c8 -4 16.833 -7.83301 26.5 -11.5s18.834 -5.5 27.501 -5.5
c24 0 40.333 14.667 49 44h48c-4.66699 -29.333 -14.667 -54 -30 -74s-36.666 -30 -63.999 -30c-18.667 0 -45.667 7 -81 21c-31.333 12.667 -53.333 19 -66 19c-22 0 -37.667 -14.667 -47 -44z" />
    <glyph glyph-name="Ograve" unicode="&#xd2;" horiz-adv-x="832" 
d="M416 -18c-107.333 0 -195.666 35.5 -264.999 106.5s-104 159.5 -104 265.5s34.667 194.5 104 265.5s157.666 106.5 264.999 106.5s195.666 -35.5 264.999 -106.5s104 -159.5 104 -265.5s-34.667 -194.5 -104 -265.5s-157.666 -106.5 -264.999 -106.5zM416 72
c79.333 0 143.666 27.167 192.999 81.5s74 121.166 74 200.499s-24.667 146.166 -74 200.499s-113.666 81.5 -192.999 81.5s-143.666 -27.167 -192.999 -81.5s-74 -121.166 -74 -200.499s24.667 -146.166 74 -200.499s113.666 -81.5 192.999 -81.5zM378 892l104 -144h-83
l-149 144h128z" />
    <glyph glyph-name="Oacute" unicode="&#xd3;" horiz-adv-x="832" 
d="M416 -18c-107.333 0 -195.666 35.5 -264.999 106.5s-104 159.5 -104 265.5s34.667 194.5 104 265.5s157.666 106.5 264.999 106.5s195.666 -35.5 264.999 -106.5s104 -159.5 104 -265.5s-34.667 -194.5 -104 -265.5s-157.666 -106.5 -264.999 -106.5zM416 72
c79.333 0 143.666 27.167 192.999 81.5s74 121.166 74 200.499s-24.667 146.166 -74 200.499s-113.666 81.5 -192.999 81.5s-143.666 -27.167 -192.999 -81.5s-74 -121.166 -74 -200.499s24.667 -146.166 74 -200.499s113.666 -81.5 192.999 -81.5zM350 748l104 144h128
l-149 -144h-83z" />
    <glyph glyph-name="Ocircumflex" unicode="&#xd4;" horiz-adv-x="832" 
d="M416 -18c-107.333 0 -195.666 35.5 -264.999 106.5s-104 159.5 -104 265.5s34.667 194.5 104 265.5s157.666 106.5 264.999 106.5s195.666 -35.5 264.999 -106.5s104 -159.5 104 -265.5s-34.667 -194.5 -104 -265.5s-157.666 -106.5 -264.999 -106.5zM416 72
c79.333 0 143.666 27.167 192.999 81.5s74 121.166 74 200.499s-24.667 146.166 -74 200.499s-113.666 81.5 -192.999 81.5s-143.666 -27.167 -192.999 -81.5s-74 -121.166 -74 -200.499s24.667 -146.166 74 -200.499s113.666 -81.5 192.999 -81.5zM581 748h-91l-74 96
l-74 -96h-91l112 144h106z" />
    <glyph glyph-name="Otilde" unicode="&#xd5;" horiz-adv-x="832" 
d="M416 -18c-107.333 0 -195.666 35.5 -264.999 106.5s-104 159.5 -104 265.5s34.667 194.5 104 265.5s157.666 106.5 264.999 106.5s195.666 -35.5 264.999 -106.5s104 -159.5 104 -265.5s-34.667 -194.5 -104 -265.5s-157.666 -106.5 -264.999 -106.5zM416 72
c79.333 0 143.666 27.167 192.999 81.5s74 121.166 74 200.499s-24.667 146.166 -74 200.499s-113.666 81.5 -192.999 81.5s-143.666 -27.167 -192.999 -81.5s-74 -121.166 -74 -200.499s24.667 -146.166 74 -200.499s113.666 -81.5 192.999 -81.5zM296 760h-48.0029
c4.66699 28.667 15.834 53.167 33.501 73.5s40.167 30.5 67.5 30.5c18.667 0 46.667 -7.66699 84 -23c8 -4 16.833 -7.83301 26.5 -11.5s18.834 -5.5 27.501 -5.5c24 0 40.333 14.667 49 44h48c-4.66699 -29.333 -14.667 -54 -30 -74s-36.666 -30 -63.999 -30
c-18.667 0 -45.667 7 -81 21c-31.333 12.667 -53.333 19 -66 19c-22 0 -37.667 -14.667 -47 -44z" />
    <glyph glyph-name="Odieresis" unicode="&#xd6;" horiz-adv-x="832" 
d="M416 -18c-107.333 0 -195.666 35.5 -264.999 106.5s-104 159.5 -104 265.5s34.667 194.5 104 265.5s157.666 106.5 264.999 106.5s195.666 -35.5 264.999 -106.5s104 -159.5 104 -265.5s-34.667 -194.5 -104 -265.5s-157.666 -106.5 -264.999 -106.5zM416 72
c79.333 0 143.666 27.167 192.999 81.5s74 121.166 74 200.499s-24.667 146.166 -74 200.499s-113.666 81.5 -192.999 81.5s-143.666 -27.167 -192.999 -81.5s-74 -121.166 -74 -200.499s24.667 -146.166 74 -200.499s113.666 -81.5 192.999 -81.5zM314 898
c16 0 30.333 -5.5 43 -16.5s19 -24.5 19 -40.5c0 -18 -5.83301 -33 -17.5 -45s-26.5 -18 -44.5 -18s-32.833 6 -44.5 18s-17.5 27 -17.5 45c0 16 6.33301 29.5 19 40.5s27 16.5 43 16.5zM518 898c16 0 30.333 -5.5 43 -16.5s19 -24.5 19 -40.5c0 -18 -5.83301 -33 -17.5 -45
s-26.5 -18 -44.5 -18s-32.833 6 -44.5 18s-17.5 27 -17.5 45c0 16 6.33301 29.5 19 40.5s27 16.5 43 16.5z" />
    <glyph glyph-name="multiply" unicode="&#xd7;" horiz-adv-x="666" 
d="M68 92l210 211l-212 212l55 55l212 -212l213 212l54 -55l-212 -212l212 -212l-56 -55l-211 212l-211 -212z" />
    <glyph glyph-name="Oslash" unicode="&#xd8;" horiz-adv-x="832" 
d="M621 540l-374.999 -408.999c48 -39.333 104.667 -59 170 -59c79.333 0 143.666 27.167 192.999 81.5s74 121.166 74 200.499c0 72 -20.667 134 -62 186zM207.001 173.001l373.999 406.998c-46.667 37.333 -101.667 56 -165 56c-79.333 0 -143.666 -27.167 -192.999 -81.5
s-74 -121.166 -74 -200.499c0 -69.333 19.333 -129.666 58 -180.999zM98 -30.001l-43 38.001l85 93c-62 69.333 -93 153.666 -93 252.999c0 106 34.667 194.5 104 265.5s157.666 106.5 264.999 106.5c88 0 164.667 -25.333 230 -76l83 90l42 -38l-83 -90
c64.667 -68.667 97 -154.667 97 -258c0 -106 -34.667 -194.5 -104 -265.5s-157.666 -106.5 -264.999 -106.5c-90.667 0 -168.667 26.333 -234 79z" />
    <glyph glyph-name="Ugrave" unicode="&#xd9;" horiz-adv-x="704" 
d="M78 708h96v-434c0 -52.667 14.5 -99.5 43.5 -140.5s73.833 -61.5 134.5 -61.5s105.5 20.5 134.5 61.5s43.5 87.833 43.5 140.5v434h96v-449c0 -81.333 -26 -147.833 -78 -199.5s-117.333 -77.5 -196 -77.5s-144 25.833 -196 77.5s-78 118.167 -78 199.5v449zM314 892
l104 -144h-83l-149 144h128z" />
    <glyph glyph-name="Uacute" unicode="&#xda;" horiz-adv-x="704" 
d="M78 708h96v-434c0 -52.667 14.5 -99.5 43.5 -140.5s73.833 -61.5 134.5 -61.5s105.5 20.5 134.5 61.5s43.5 87.833 43.5 140.5v434h96v-449c0 -81.333 -26 -147.833 -78 -199.5s-117.333 -77.5 -196 -77.5s-144 25.833 -196 77.5s-78 118.167 -78 199.5v449zM286 748
l104 144h128l-149 -144h-83z" />
    <glyph glyph-name="Ucircumflex" unicode="&#xdb;" horiz-adv-x="704" 
d="M78 708h96v-434c0 -52.667 14.5 -99.5 43.5 -140.5s73.833 -61.5 134.5 -61.5s105.5 20.5 134.5 61.5s43.5 87.833 43.5 140.5v434h96v-449c0 -81.333 -26 -147.833 -78 -199.5s-117.333 -77.5 -196 -77.5s-144 25.833 -196 77.5s-78 118.167 -78 199.5v449zM517 748h-91
l-74 96l-74 -96h-91l112 144h106z" />
    <glyph glyph-name="Udieresis" unicode="&#xdc;" horiz-adv-x="704" 
d="M78 708h96v-434c0 -52.667 14.5 -99.5 43.5 -140.5s73.833 -61.5 134.5 -61.5s105.5 20.5 134.5 61.5s43.5 87.833 43.5 140.5v434h96v-449c0 -81.333 -26 -147.833 -78 -199.5s-117.333 -77.5 -196 -77.5s-144 25.833 -196 77.5s-78 118.167 -78 199.5v449zM250 898
c16 0 30.333 -5.5 43 -16.5s19 -24.5 19 -40.5c0 -18 -5.83301 -33 -17.5 -45s-26.5 -18 -44.5 -18s-32.833 6 -44.5 18s-17.5 27 -17.5 45c0 16 6.33301 29.5 19 40.5s27 16.5 43 16.5zM454 898c16 0 30.333 -5.5 43 -16.5s19 -24.5 19 -40.5c0 -18 -5.83301 -33 -17.5 -45
s-26.5 -18 -44.5 -18s-32.833 6 -44.5 18s-17.5 27 -17.5 45c0 16 6.33301 29.5 19 40.5s27 16.5 43 16.5z" />
    <glyph glyph-name="Yacute" unicode="&#xdd;" horiz-adv-x="612" 
d="M258 0v302l-268 406h123l193 -311l199 311h117l-268 -406v-302h-96zM240 748l104 144h128l-149 -144h-83z" />
    <glyph glyph-name="Thorn" unicode="&#xde;" horiz-adv-x="593" 
d="M91 0v707.998h96v-145h153c43.333 0 80.5 -6 111.5 -18s54.5 -28.167 70.5 -48.5s27.5 -41.166 34.5 -62.499s10.5 -44.333 10.5 -69s-3.5 -47.667 -10.5 -69s-18.5 -42.166 -34.5 -62.499s-39.5 -36.5 -70.5 -48.5s-68.167 -18 -111.5 -18h-153v-167h-96zM187 478.998
v-228h126c101.333 0 152 38 152 114s-50.667 114 -152 114h-126z" />
    <glyph glyph-name="germandbls" unicode="&#xdf;" horiz-adv-x="611" 
d="M68 0l0.00195312 509c0 38.667 3.16699 72.334 9.5 101.001s17.166 55.5 32.499 80.5s38.333 44.167 69 57.5s68.667 20 114 20c58 0 106.333 -16 145 -48s58 -76.333 58 -133c0 -40 -9.83301 -73.333 -29.5 -100s-46.834 -45 -81.501 -55v-2
c45.333 -6.66699 85 -27.834 119 -63.501s51 -84.5 51 -146.5c0 -70.667 -22.5 -127 -67.5 -169s-103.167 -63 -174.5 -63c-24.667 0 -48.334 3 -71.001 9v81c17.333 -4 35 -6 53 -6c50 0 89.833 13.833 119.5 41.5s44.5 65.834 44.5 114.501
c0 50.667 -16.167 89.167 -48.5 115.5s-74.166 39.5 -125.499 39.5h-14v84h16c34 0 61.333 9.83301 82 29.5s31 46.167 31 79.5c0 37.333 -11 64.666 -33 81.999s-48.333 26 -79 26c-86.667 0 -130 -54.667 -130 -164v-520h-90z" />
    <glyph glyph-name="agrave" unicode="&#xe0;" horiz-adv-x="519" 
d="M124 360l-54.001 56.001c49.333 46.667 112 70 188 70c66 0 115.5 -15.167 148.5 -45.5s49.5 -67.833 49.5 -112.5v-242c0 -35.333 1.33301 -64 4 -86h-80c-2 24 -3 48 -3 72h-2c-36.667 -56 -92 -84 -166 -84c-46 0 -84.833 12.667 -116.5 38s-47.5 60 -47.5 104
c0 57.333 23.833 99 71.5 125s110.834 39 189.501 39h66v20c0 26.667 -9.83301 50 -29.5 70s-47.5 30 -83.5 30c-21.333 0 -41.5 -3.33301 -60.5 -10s-31.833 -12.334 -38.5 -17.001s-18.667 -13.667 -36 -27zM371.999 228.001l-48 0.000976562
c-126 0 -189 -30.333 -189 -91c0 -51.333 34 -77 102 -77c46 0 80 13.667 102 41s33 59.666 33 96.999v30zM221.999 708.002l104 -144h-83l-149 144h128z" />
    <glyph glyph-name="aacute" unicode="&#xe1;" horiz-adv-x="519" 
d="M124 360l-54.001 56.001c49.333 46.667 112 70 188 70c66 0 115.5 -15.167 148.5 -45.5s49.5 -67.833 49.5 -112.5v-242c0 -35.333 1.33301 -64 4 -86h-80c-2 24 -3 48 -3 72h-2c-36.667 -56 -92 -84 -166 -84c-46 0 -84.833 12.667 -116.5 38s-47.5 60 -47.5 104
c0 57.333 23.833 99 71.5 125s110.834 39 189.501 39h66v20c0 26.667 -9.83301 50 -29.5 70s-47.5 30 -83.5 30c-21.333 0 -41.5 -3.33301 -60.5 -10s-31.833 -12.334 -38.5 -17.001s-18.667 -13.667 -36 -27zM371.999 228.001l-48 0.000976562
c-126 0 -189 -30.333 -189 -91c0 -51.333 34 -77 102 -77c46 0 80 13.667 102 41s33 59.666 33 96.999v30zM193.999 564.002l104 144h128l-149 -144h-83z" />
    <glyph glyph-name="acircumflex" unicode="&#xe2;" horiz-adv-x="519" 
d="M124 360l-54.001 56.001c49.333 46.667 112 70 188 70c66 0 115.5 -15.167 148.5 -45.5s49.5 -67.833 49.5 -112.5v-242c0 -35.333 1.33301 -64 4 -86h-80c-2 24 -3 48 -3 72h-2c-36.667 -56 -92 -84 -166 -84c-46 0 -84.833 12.667 -116.5 38s-47.5 60 -47.5 104
c0 57.333 23.833 99 71.5 125s110.834 39 189.501 39h66v20c0 26.667 -9.83301 50 -29.5 70s-47.5 30 -83.5 30c-21.333 0 -41.5 -3.33301 -60.5 -10s-31.833 -12.334 -38.5 -17.001s-18.667 -13.667 -36 -27zM371.999 228.001l-48 0.000976562
c-126 0 -189 -30.333 -189 -91c0 -51.333 34 -77 102 -77c46 0 80 13.667 102 41s33 59.666 33 96.999v30zM424.999 564.002h-91l-74 96l-74 -96h-91l112 144h106z" />
    <glyph glyph-name="atilde" unicode="&#xe3;" horiz-adv-x="519" 
d="M124 360l-54.001 56.001c49.333 46.667 112 70 188 70c66 0 115.5 -15.167 148.5 -45.5s49.5 -67.833 49.5 -112.5v-242c0 -35.333 1.33301 -64 4 -86h-80c-2 24 -3 48 -3 72h-2c-36.667 -56 -92 -84 -166 -84c-46 0 -84.833 12.667 -116.5 38s-47.5 60 -47.5 104
c0 57.333 23.833 99 71.5 125s110.834 39 189.501 39h66v20c0 26.667 -9.83301 50 -29.5 70s-47.5 30 -83.5 30c-21.333 0 -41.5 -3.33301 -60.5 -10s-31.833 -12.334 -38.5 -17.001s-18.667 -13.667 -36 -27zM371.999 228.001l-48 0.000976562
c-126 0 -189 -30.333 -189 -91c0 -51.333 34 -77 102 -77c46 0 80 13.667 102 41s33 59.666 33 96.999v30zM139.999 576.002h-48.0029c4.66699 28.667 15.834 53.167 33.501 73.5s40.167 30.5 67.5 30.5c18.667 0 46.667 -7.66699 84 -23c8 -4 16.833 -7.83301 26.5 -11.5
s18.834 -5.5 27.501 -5.5c24 0 40.333 14.667 49 44h48c-4.66699 -29.333 -14.667 -54 -30 -74s-36.666 -30 -63.999 -30c-18.667 0 -45.667 7 -81 21c-31.333 12.667 -53.333 19 -66 19c-22 0 -37.667 -14.667 -47 -44z" />
    <glyph glyph-name="adieresis" unicode="&#xe4;" horiz-adv-x="519" 
d="M124 360l-54.001 56.001c49.333 46.667 112 70 188 70c66 0 115.5 -15.167 148.5 -45.5s49.5 -67.833 49.5 -112.5v-242c0 -35.333 1.33301 -64 4 -86h-80c-2 24 -3 48 -3 72h-2c-36.667 -56 -92 -84 -166 -84c-46 0 -84.833 12.667 -116.5 38s-47.5 60 -47.5 104
c0 57.333 23.833 99 71.5 125s110.834 39 189.501 39h66v20c0 26.667 -9.83301 50 -29.5 70s-47.5 30 -83.5 30c-21.333 0 -41.5 -3.33301 -60.5 -10s-31.833 -12.334 -38.5 -17.001s-18.667 -13.667 -36 -27zM371.999 228.001l-48 0.000976562
c-126 0 -189 -30.333 -189 -91c0 -51.333 34 -77 102 -77c46 0 80 13.667 102 41s33 59.666 33 96.999v30zM157.999 714.002c16 0 30.333 -5.5 43 -16.5s19 -24.5 19 -40.5c0 -18 -5.83301 -33 -17.5 -45s-26.5 -18 -44.5 -18s-32.833 6 -44.5 18s-17.5 27 -17.5 45
c0 16 6.33301 29.5 19 40.5s27 16.5 43 16.5zM361.999 714.002c16 0 30.333 -5.5 43 -16.5s19 -24.5 19 -40.5c0 -18 -5.83301 -33 -17.5 -45s-26.5 -18 -44.5 -18s-32.833 6 -44.5 18s-17.5 27 -17.5 45c0 16 6.33301 29.5 19 40.5s27 16.5 43 16.5z" />
    <glyph glyph-name="aring" unicode="&#xe5;" horiz-adv-x="519" 
d="M124 360l-54.001 56.001c49.333 46.667 112 70 188 70c66 0 115.5 -15.167 148.5 -45.5s49.5 -67.833 49.5 -112.5v-242c0 -35.333 1.33301 -64 4 -86h-80c-2 24 -3 48 -3 72h-2c-36.667 -56 -92 -84 -166 -84c-46 0 -84.833 12.667 -116.5 38s-47.5 60 -47.5 104
c0 57.333 23.833 99 71.5 125s110.834 39 189.501 39h66v20c0 26.667 -9.83301 50 -29.5 70s-47.5 30 -83.5 30c-21.333 0 -41.5 -3.33301 -60.5 -10s-31.833 -12.334 -38.5 -17.001s-18.667 -13.667 -36 -27zM371.999 228.001l-48 0.000976562
c-126 0 -189 -30.333 -189 -91c0 -51.333 34 -77 102 -77c46 0 80 13.667 102 41s33 59.666 33 96.999v30zM157.999 651.002c0 27.333 10.167 50.667 30.5 70s44.166 29 71.499 29c28 0 52.167 -9.5 72.5 -28.5s30.166 -42.167 29.499 -69.5
c0.666992 -28 -9.16602 -51.5 -29.499 -70.5s-44.5 -28.5 -72.5 -28.5c-27.333 0 -51.166 9.5 -71.499 28.5s-30.5 42.167 -30.5 69.5zM319.999 651.003c0 16 -6 29.5 -18 40.5s-26 16.5 -42 16.5s-30 -5.5 -42 -16.5s-18 -24.5 -18 -40.5c0 -15.333 6 -28.5 18 -39.5
s26 -16.5 42 -16.5s30 5.5 42 16.5s18 24.167 18 39.5z" />
    <glyph glyph-name="ae" unicode="&#xe6;" horiz-adv-x="852" 
d="M813 246l0.00195312 -41.998h-353c0 -40 12.833 -74 38.5 -102s60.5 -42 104.5 -42c54 0 95 25 123 75l73 -55c-28.667 -33.333 -58.5 -58 -89.5 -74s-67.167 -24 -108.5 -24c-85.333 0 -147 32.333 -185 97c-47.333 -64.667 -112 -97 -194 -97
c-60 0 -105.5 15.167 -136.5 45.5s-46.5 66.166 -46.5 107.499c0 35.333 10.333 64 31 86s44.667 36.667 72 44s58.666 11 93.999 11h140v15c0 35.333 -10.5 64.666 -31.5 87.999s-50.167 35 -87.5 35c-44.667 0 -89.334 -18 -134.001 -54l-56 57
c51.333 46 114.333 69 189 69c80 0 136.667 -25.333 170 -76c44.667 50.667 100 76 166 76c34.667 0 65.5 -5.83301 92.5 -17.5s48.333 -26.167 64 -43.5s28.5 -37.333 38.5 -60s16.833 -43.667 20.5 -63s5.5 -38 5.5 -56zM376.002 204.002l-141.999 0.000976562
c-66 0 -99 -23 -99 -69c0 -22.667 9.66699 -41.834 29 -57.501s42.666 -23.5 69.999 -23.5c38.667 0 72 12.5 100 37.5s42 57.833 42 98.5v14zM460.003 276.003h257c-2.66699 88 -44.667 132 -126 132c-40.667 0 -72.667 -12.5 -96 -37.5s-35 -56.5 -35 -94.5z" />
    <glyph glyph-name="ccedilla" unicode="&#xe7;" horiz-adv-x="482" 
d="M475 410l-68 -62c-33.333 35.333 -72.666 53 -117.999 53c-46.667 0 -83 -16.167 -109 -48.5s-39 -72.166 -39 -119.499c0 -45.333 14.167 -83.5 42.5 -114.5s65.166 -46.5 110.499 -46.5c46.667 0 85 17.667 115 53l64 -64c-42 -46.667 -99.333 -70.667 -172 -72
l-36 -50h29c24.667 0.666992 46.167 -5.33301 64.5 -18s27.5 -30.667 27.5 -54c0 -32.667 -12.5 -56.667 -37.5 -72s-54.167 -23 -87.5 -23c-38.667 0 -73.667 7.66699 -105 23l19 40c24.667 -10 50.667 -15 78 -15c15.333 0 29.333 3.16699 42 9.5s19 17.166 19 32.499
c0 22.667 -11 35.834 -33 39.501s-42.333 1.5 -61 -6.5l-21 18l55 79c-62.667 7.33301 -113.167 33.166 -151.5 77.499s-57.5 99.5 -57.5 165.5c0 73.333 23 133.333 69 180s105.667 70 179 70c75.333 0 136 -25 182 -75z" />
    <glyph glyph-name="egrave" unicode="&#xe8;" 
d="M516 204l-379.999 0.000976562c0 -40 15.833 -73 47.5 -99s69.167 -39 112.5 -39c48 0 91.333 23.667 130 71l68 -52c-50 -64.667 -120 -97 -210 -97c-73.333 0 -132.333 23.5 -177 70.5s-67 106.5 -67 178.5c0 71.333 23.167 130.666 69.5 177.999s104.833 71 175.5 71
c77.333 0 135.166 -24.5 173.499 -73.5s57.5 -107.833 57.5 -176.5v-32zM136.001 276.001l284 0.000976562c-1.33301 41.333 -13.5 74.666 -36.5 99.999s-56.5 38 -100.5 38c-42 0 -77 -14.5 -105 -43.5s-42 -60.5 -42 -94.5zM240.001 708.002l104 -144h-83l-149 144h128z
" />
    <glyph glyph-name="eacute" unicode="&#xe9;" 
d="M516 204l-379.999 0.000976562c0 -40 15.833 -73 47.5 -99s69.167 -39 112.5 -39c48 0 91.333 23.667 130 71l68 -52c-50 -64.667 -120 -97 -210 -97c-73.333 0 -132.333 23.5 -177 70.5s-67 106.5 -67 178.5c0 71.333 23.167 130.666 69.5 177.999s104.833 71 175.5 71
c77.333 0 135.166 -24.5 173.499 -73.5s57.5 -107.833 57.5 -176.5v-32zM136.001 276.001l284 0.000976562c-1.33301 41.333 -13.5 74.666 -36.5 99.999s-56.5 38 -100.5 38c-42 0 -77 -14.5 -105 -43.5s-42 -60.5 -42 -94.5zM212.001 564.002l104 144h128l-149 -144h-83z
" />
    <glyph glyph-name="ecircumflex" unicode="&#xea;" 
d="M516 204l-379.999 0.000976562c0 -40 15.833 -73 47.5 -99s69.167 -39 112.5 -39c48 0 91.333 23.667 130 71l68 -52c-50 -64.667 -120 -97 -210 -97c-73.333 0 -132.333 23.5 -177 70.5s-67 106.5 -67 178.5c0 71.333 23.167 130.666 69.5 177.999s104.833 71 175.5 71
c77.333 0 135.166 -24.5 173.499 -73.5s57.5 -107.833 57.5 -176.5v-32zM136.001 276.001l284 0.000976562c-1.33301 41.333 -13.5 74.666 -36.5 99.999s-56.5 38 -100.5 38c-42 0 -77 -14.5 -105 -43.5s-42 -60.5 -42 -94.5zM443.001 564.002h-91l-74 96l-74 -96h-91
l112 144h106z" />
    <glyph glyph-name="edieresis" unicode="&#xeb;" 
d="M516 204l-379.999 0.000976562c0 -40 15.833 -73 47.5 -99s69.167 -39 112.5 -39c48 0 91.333 23.667 130 71l68 -52c-50 -64.667 -120 -97 -210 -97c-73.333 0 -132.333 23.5 -177 70.5s-67 106.5 -67 178.5c0 71.333 23.167 130.666 69.5 177.999s104.833 71 175.5 71
c77.333 0 135.166 -24.5 173.499 -73.5s57.5 -107.833 57.5 -176.5v-32zM136.001 276.001l284 0.000976562c-1.33301 41.333 -13.5 74.666 -36.5 99.999s-56.5 38 -100.5 38c-42 0 -77 -14.5 -105 -43.5s-42 -60.5 -42 -94.5zM176.001 714.002c16 0 30.333 -5.5 43 -16.5
s19 -24.5 19 -40.5c0 -18 -5.83301 -33 -17.5 -45s-26.5 -18 -44.5 -18s-32.833 6 -44.5 18s-17.5 27 -17.5 45c0 16 6.33301 29.5 19 40.5s27 16.5 43 16.5zM380.001 714.002c16 0 30.333 -5.5 43 -16.5s19 -24.5 19 -40.5c0 -18 -5.83301 -33 -17.5 -45
s-26.5 -18 -44.5 -18s-32.833 6 -44.5 18s-17.5 27 -17.5 45c0 16 6.33301 29.5 19 40.5s27 16.5 43 16.5z" />
    <glyph glyph-name="igrave" unicode="&#xec;" horiz-adv-x="240" 
d="M75 0v474h90v-474h-90zM82 708l104 -144h-83l-149 144h128z" />
    <glyph glyph-name="iacute" unicode="&#xed;" horiz-adv-x="240" 
d="M75 0v474h90v-474h-90zM54 564l104 144h128l-149 -144h-83z" />
    <glyph glyph-name="icircumflex" unicode="&#xee;" horiz-adv-x="240" 
d="M75 0v474h90v-474h-90zM285 564h-91l-74 96l-74 -96h-91l112 144h106z" />
    <glyph glyph-name="idieresis" unicode="&#xef;" horiz-adv-x="240" 
d="M75 0v474h90v-474h-90zM18 714c16 0 30.333 -5.5 43 -16.5s19 -24.5 19 -40.5c0 -18 -5.83301 -33 -17.5 -45s-26.5 -18 -44.5 -18s-32.833 6 -44.5 18s-17.5 27 -17.5 45c0 16 6.33301 29.5 19 40.5s27 16.5 43 16.5zM222 714c16 0 30.333 -5.5 43 -16.5
s19 -24.5 19 -40.5c0 -18 -5.83301 -33 -17.5 -45s-26.5 -18 -44.5 -18s-32.833 6 -44.5 18s-17.5 27 -17.5 45c0 16 6.33301 29.5 19 40.5s27 16.5 43 16.5z" />
    <glyph glyph-name="eth" unicode="&#xf0;" horiz-adv-x="594" 
d="M423 756l51.999 -43.998l-112 -55c58.667 -62.667 104.334 -125 137.001 -187s49 -129 49 -201c0 -85.333 -22.333 -153.5 -67 -204.5s-106.334 -76.5 -185.001 -76.5c-70.667 0 -130.334 24.167 -179.001 72.5s-73 107.166 -73 176.499s24.333 128.166 73 176.499
s108.334 72.5 179.001 72.5c54.667 0 96.334 -16.667 125.001 -50l2 2c-32 57.333 -80 117.333 -144 180l-107 -52l-47 46l106 53l-85 71l79 46l89 -78zM140.999 237.002c0 -48.667 14.167 -88.334 42.5 -119.001s66.166 -46 113.499 -46s85.166 15.333 113.499 46
s42.5 70.334 42.5 119.001s-14.167 88.334 -42.5 119.001s-66.166 46 -113.499 46s-85.166 -15.333 -113.499 -46s-42.5 -70.334 -42.5 -119.001z" />
    <glyph glyph-name="ntilde" unicode="&#xf1;" 
d="M68 0l-0.00195312 474h90v-73h2c12 25.333 32 45.833 60 61.5s60 23.5 96 23.5c49.333 0 90.333 -15.167 123 -45.5s49 -75.5 49 -135.5v-305h-90v280c0 42 -10.167 72.833 -30.5 92.5s-46.166 29.5 -77.499 29.5c-39.333 0 -71.166 -13.167 -95.499 -39.5
s-36.5 -65.833 -36.5 -118.5v-244h-90zM157.998 576h-48.0029c4.66699 28.667 15.834 53.167 33.501 73.5s40.167 30.5 67.5 30.5c18.667 0 46.667 -7.66699 84 -23c8 -4 16.833 -7.83301 26.5 -11.5s18.834 -5.5 27.501 -5.5c24 0 40.333 14.667 49 44h48
c-4.66699 -29.333 -14.667 -54 -30 -74s-36.666 -30 -63.999 -30c-18.667 0 -45.667 7 -81 21c-31.333 12.667 -53.333 19 -66 19c-22 0 -37.667 -14.667 -47 -44z" />
    <glyph glyph-name="ograve" unicode="&#xf2;" horiz-adv-x="594" 
d="M141 237c0 -48.667 14.167 -88.334 42.5 -119.001s66.166 -46 113.499 -46s85.166 15.333 113.499 46s42.5 70.334 42.5 119.001s-14.167 88.334 -42.5 119.001s-66.166 46 -113.499 46s-85.166 -15.333 -113.499 -46s-42.5 -70.334 -42.5 -119.001zM45 237
c0 69.333 24.333 128.166 73 176.499s108.334 72.5 179.001 72.5s130.334 -24.167 179.001 -72.5s73 -107.166 73 -176.499s-24.333 -128.166 -73 -176.499s-108.334 -72.5 -179.001 -72.5s-130.334 24.167 -179.001 72.5s-73 107.166 -73 176.499zM259 708l104 -144h-83
l-149 144h128z" />
    <glyph glyph-name="oacute" unicode="&#xf3;" horiz-adv-x="594" 
d="M141 237c0 -48.667 14.167 -88.334 42.5 -119.001s66.166 -46 113.499 -46s85.166 15.333 113.499 46s42.5 70.334 42.5 119.001s-14.167 88.334 -42.5 119.001s-66.166 46 -113.499 46s-85.166 -15.333 -113.499 -46s-42.5 -70.334 -42.5 -119.001zM45 237
c0 69.333 24.333 128.166 73 176.499s108.334 72.5 179.001 72.5s130.334 -24.167 179.001 -72.5s73 -107.166 73 -176.499s-24.333 -128.166 -73 -176.499s-108.334 -72.5 -179.001 -72.5s-130.334 24.167 -179.001 72.5s-73 107.166 -73 176.499zM231 564l104 144h128
l-149 -144h-83z" />
    <glyph glyph-name="ocircumflex" unicode="&#xf4;" horiz-adv-x="594" 
d="M141 237c0 -48.667 14.167 -88.334 42.5 -119.001s66.166 -46 113.499 -46s85.166 15.333 113.499 46s42.5 70.334 42.5 119.001s-14.167 88.334 -42.5 119.001s-66.166 46 -113.499 46s-85.166 -15.333 -113.499 -46s-42.5 -70.334 -42.5 -119.001zM45 237
c0 69.333 24.333 128.166 73 176.499s108.334 72.5 179.001 72.5s130.334 -24.167 179.001 -72.5s73 -107.166 73 -176.499s-24.333 -128.166 -73 -176.499s-108.334 -72.5 -179.001 -72.5s-130.334 24.167 -179.001 72.5s-73 107.166 -73 176.499zM462 564h-91l-74 96
l-74 -96h-91l112 144h106z" />
    <glyph glyph-name="otilde" unicode="&#xf5;" horiz-adv-x="594" 
d="M141 237c0 -48.667 14.167 -88.334 42.5 -119.001s66.166 -46 113.499 -46s85.166 15.333 113.499 46s42.5 70.334 42.5 119.001s-14.167 88.334 -42.5 119.001s-66.166 46 -113.499 46s-85.166 -15.333 -113.499 -46s-42.5 -70.334 -42.5 -119.001zM45 237
c0 69.333 24.333 128.166 73 176.499s108.334 72.5 179.001 72.5s130.334 -24.167 179.001 -72.5s73 -107.166 73 -176.499s-24.333 -128.166 -73 -176.499s-108.334 -72.5 -179.001 -72.5s-130.334 24.167 -179.001 72.5s-73 107.166 -73 176.499zM177 576h-48.002
c4.66699 28.667 15.834 53.167 33.501 73.5s40.167 30.5 67.5 30.5c18.667 0 46.667 -7.66699 84 -23c28 -11.333 46 -17 54 -17c24 0 40.333 14.667 49 44h48c-4.66699 -29.333 -14.667 -54 -30 -74s-36.666 -30 -63.999 -30c-19.333 0 -46.333 7 -81 21
c-32 12.667 -54 19 -66 19c-22 0 -37.667 -14.667 -47 -44z" />
    <glyph glyph-name="odieresis" unicode="&#xf6;" horiz-adv-x="594" 
d="M141 237c0 -48.667 14.167 -88.334 42.5 -119.001s66.166 -46 113.499 -46s85.166 15.333 113.499 46s42.5 70.334 42.5 119.001s-14.167 88.334 -42.5 119.001s-66.166 46 -113.499 46s-85.166 -15.333 -113.499 -46s-42.5 -70.334 -42.5 -119.001zM45 237
c0 69.333 24.333 128.166 73 176.499s108.334 72.5 179.001 72.5s130.334 -24.167 179.001 -72.5s73 -107.166 73 -176.499s-24.333 -128.166 -73 -176.499s-108.334 -72.5 -179.001 -72.5s-130.334 24.167 -179.001 72.5s-73 107.166 -73 176.499zM195 714
c16 0 30.333 -5.5 43 -16.5s19 -24.5 19 -40.5c0 -18 -5.83301 -33 -17.5 -45s-26.5 -18 -44.5 -18s-32.833 6 -44.5 18s-17.5 27 -17.5 45c0 16 6.33301 29.5 19 40.5s27 16.5 43 16.5zM399 714c16 0 30.333 -5.5 43 -16.5s19 -24.5 19 -40.5c0 -18 -5.83301 -33 -17.5 -45
s-26.5 -18 -44.5 -18s-32.833 6 -44.5 18s-17.5 27 -17.5 45c0 16 6.33301 29.5 19 40.5s27 16.5 43 16.5z" />
    <glyph glyph-name="divide" unicode="&#xf7;" horiz-adv-x="666" 
d="M66 341h534v-78h-534v78zM267 470c0 18 6.5 33.5 19.5 46.5s28.5 19.5 46.5 19.5s33.5 -6.5 46.5 -19.5s19.5 -28.5 19.5 -46.5s-6.5 -33.5 -19.5 -46.5s-28.5 -19.5 -46.5 -19.5s-33.5 6.5 -46.5 19.5s-19.5 28.5 -19.5 46.5zM267 134c0 18 6.5 33.5 19.5 46.5
s28.5 19.5 46.5 19.5s33.5 -6.5 46.5 -19.5s19.5 -28.5 19.5 -46.5s-6.5 -33.5 -19.5 -46.5s-28.5 -19.5 -46.5 -19.5s-33.5 6.5 -46.5 19.5s-19.5 28.5 -19.5 46.5z" />
    <glyph glyph-name="oslash" unicode="&#xf8;" horiz-adv-x="594" 
d="M171 135l227.999 232.001c-27.333 23.333 -61.333 35 -102 35c-47.333 0 -85.166 -15.333 -113.499 -46s-42.5 -70.334 -42.5 -119.001c0 -40.667 10 -74.667 30 -102zM77.999 -31.999l-37 36l67 68c-42 45.333 -63 100.333 -63 165c0 69.333 24.333 128.166 73 176.499
s108.334 72.5 179.001 72.5c62.667 0 116.667 -19.333 162 -58l75 75l36 -36l-75 -76c36 -44.667 54 -96 54 -154c0 -69.333 -24.333 -128.166 -73 -176.499s-108.334 -72.5 -179.001 -72.5c-56 0 -106 16.333 -150 49zM430.999 326.001l-222.999 -227.002
c24 -18 53.667 -27 89 -27c47.333 0 85.166 15.333 113.499 46s42.5 70.334 42.5 119.001c0 34.667 -7.33301 64.334 -22 89.001z" />
    <glyph glyph-name="ugrave" unicode="&#xf9;" 
d="M488 474l0.00195312 -474h-90v73h-2c-12 -25.333 -32 -45.833 -60 -61.5s-60 -23.5 -96 -23.5c-49.333 0 -90.333 15.167 -123 45.5s-49 75.5 -49 135.5v305h90v-280c0 -42 10.167 -72.833 30.5 -92.5s46.166 -29.5 77.499 -29.5c39.333 0 71.166 13.167 95.499 39.5
s36.5 65.833 36.5 118.5v244h90zM240.002 708l104 -144h-83l-149 144h128z" />
    <glyph glyph-name="uacute" unicode="&#xfa;" 
d="M488 474l0.00195312 -474h-90v73h-2c-12 -25.333 -32 -45.833 -60 -61.5s-60 -23.5 -96 -23.5c-49.333 0 -90.333 15.167 -123 45.5s-49 75.5 -49 135.5v305h90v-280c0 -42 10.167 -72.833 30.5 -92.5s46.166 -29.5 77.499 -29.5c39.333 0 71.166 13.167 95.499 39.5
s36.5 65.833 36.5 118.5v244h90zM212.002 564l104 144h128l-149 -144h-83z" />
    <glyph glyph-name="ucircumflex" unicode="&#xfb;" 
d="M488 474l0.00195312 -474h-90v73h-2c-12 -25.333 -32 -45.833 -60 -61.5s-60 -23.5 -96 -23.5c-49.333 0 -90.333 15.167 -123 45.5s-49 75.5 -49 135.5v305h90v-280c0 -42 10.167 -72.833 30.5 -92.5s46.166 -29.5 77.499 -29.5c39.333 0 71.166 13.167 95.499 39.5
s36.5 65.833 36.5 118.5v244h90zM443.002 564h-91l-74 96l-74 -96h-91l112 144h106z" />
    <glyph glyph-name="udieresis" unicode="&#xfc;" 
d="M488 474l0.00195312 -474h-90v73h-2c-12 -25.333 -32 -45.833 -60 -61.5s-60 -23.5 -96 -23.5c-49.333 0 -90.333 15.167 -123 45.5s-49 75.5 -49 135.5v305h90v-280c0 -42 10.167 -72.833 30.5 -92.5s46.166 -29.5 77.499 -29.5c39.333 0 71.166 13.167 95.499 39.5
s36.5 65.833 36.5 118.5v244h90zM176.002 714c16 0 30.333 -5.5 43 -16.5s19 -24.5 19 -40.5c0 -18 -5.83301 -33 -17.5 -45s-26.5 -18 -44.5 -18s-32.833 6 -44.5 18s-17.5 27 -17.5 45c0 16 6.33301 29.5 19 40.5s27 16.5 43 16.5zM380.002 714c16 0 30.333 -5.5 43 -16.5
s19 -24.5 19 -40.5c0 -18 -5.83301 -33 -17.5 -45s-26.5 -18 -44.5 -18s-32.833 6 -44.5 18s-17.5 27 -17.5 45c0 16 6.33301 29.5 19 40.5s27 16.5 43 16.5z" />
    <glyph glyph-name="yacute" unicode="&#xfd;" horiz-adv-x="500" 
d="M208 -3l-197 477.001h104l141 -370h2l134 370h97l-225 -576c-18.667 -48 -39 -83 -61 -105s-55.667 -33 -101 -33c-32 0 -58.667 4.33301 -80 13l11 82c18 -7.33301 36 -11 54 -11c26 0 45.167 6.16699 57.5 18.5s23.833 32.166 34.5 59.499zM184 564.001l104 144h128
l-149 -144h-83z" />
    <glyph glyph-name="thorn" unicode="&#xfe;" horiz-adv-x="611" 
d="M68 -228v983.999h90v-350h2c16 24.667 39 44.167 69 58.5s62 21.5 96 21.5c72 0 130.167 -23.5 174.5 -70.5s66.5 -106.5 66.5 -178.5c0 -71.333 -22.167 -130.666 -66.5 -177.999s-102.5 -71 -174.5 -71c-32.667 0 -64 7.16699 -94 21.5s-53.667 33.833 -71 58.5h-2
v-296h-90zM314 71.999c47.333 0 85.166 15.333 113.499 46s42.5 70.334 42.5 119.001s-14.167 88.334 -42.5 119.001s-66.166 46 -113.499 46s-85.166 -15.333 -113.499 -46s-42.5 -70.334 -42.5 -119.001s14.167 -88.334 42.5 -119.001s66.166 -46 113.499 -46z" />
    <glyph glyph-name="ydieresis" unicode="&#xff;" horiz-adv-x="500" 
d="M208 -3l-197 477.001h104l141 -370h2l134 370h97l-225 -576c-18.667 -48 -39 -83 -61 -105s-55.667 -33 -101 -33c-32 0 -58.667 4.33301 -80 13l11 82c18 -7.33301 36 -11 54 -11c26 0 45.167 6.16699 57.5 18.5s23.833 32.166 34.5 59.499zM148 714.001
c16 0 30.333 -5.5 43 -16.5s19 -24.5 19 -40.5c0 -18 -5.83301 -33 -17.5 -45s-26.5 -18 -44.5 -18s-32.833 6 -44.5 18s-17.5 27 -17.5 45c0 16 6.33301 29.5 19 40.5s27 16.5 43 16.5zM352 714.001c16 0 30.333 -5.5 43 -16.5s19 -24.5 19 -40.5
c0 -18 -5.83301 -33 -17.5 -45s-26.5 -18 -44.5 -18s-32.833 6 -44.5 18s-17.5 27 -17.5 45c0 16 6.33301 29.5 19 40.5s27 16.5 43 16.5z" />
    <glyph glyph-name="dotlessi" unicode="&#x131;" horiz-adv-x="240" 
d="M75 0v474h90v-474h-90z" />
    <glyph glyph-name="Lslash" unicode="&#x141;" horiz-adv-x="519" 
d="M91 0v209l-72 -63v89l72 62v411h96v-328l216 188v-89l-216 -187v-202h325v-90h-421z" />
    <glyph glyph-name="lslash" unicode="&#x142;" horiz-adv-x="240" 
d="M75 0v298l-78 -78v90l78 78v368h90v-278l78 77v-90l-78 -77v-388h-90z" />
    <glyph glyph-name="OE" unicode="&#x152;" horiz-adv-x="981" 
d="M923 90v-89.999h-456c-128 0 -228.167 32.667 -300.5 98s-108.5 150.666 -108.5 255.999c0 108 36.5 194 109.5 258s172.833 96 299.5 96h444v-90h-294v-211h276v-90h-276v-227h306zM521 90.001l0.000976562 528.001h-61c-94 0 -167.5 -25.333 -220.5 -76
s-79.5 -113.334 -79.5 -188.001c0 -78 26.167 -141.5 78.5 -190.5s126.166 -73.5 221.499 -73.5h61z" />
    <glyph glyph-name="oe" unicode="&#x153;" horiz-adv-x="926" 
d="M794 135l73.998 -49c-45.333 -65.333 -111.666 -98 -198.999 -98c-91.333 0 -156 30.667 -194 92c-12 -16 -23.667 -29.5 -35 -40.5s-31.5 -22.333 -60.5 -34s-62.167 -17.5 -99.5 -17.5c-74.667 0 -133.5 23.333 -176.5 70s-64.5 106.334 -64.5 179.001
c0 72 22.833 131.5 68.5 178.5s104.834 70.5 177.501 70.5c81.333 0 145.333 -30.333 192 -91c46 60.667 108.333 91 187 91c67.333 0 121.333 -22 162 -66s61 -101.333 61 -172v-44h-359c0 -38.667 12 -71.334 36 -98.001s59.667 -40 107 -40c53.333 0 94.333 23 123 69z
M527.998 276h262.999c-1.33301 36.667 -13.166 68.834 -35.499 96.501s-53.5 41.5 -93.5 41.5c-39.333 0 -71.5 -14.833 -96.5 -44.5s-37.5 -60.834 -37.5 -93.501zM437.997 237c0 47.333 -12.6689 87.6689 -38.002 121.002s-62.666 50 -111.999 50
s-87.166 -16 -113.499 -48s-39.5 -73 -39.5 -123c0 -48.667 12.833 -89.334 38.5 -122.001s61.167 -49 106.5 -49c56 0 96.333 16.167 121 48.5s37 73.166 37 122.499z" />
    <glyph glyph-name="Scaron" unicode="&#x160;" 
d="M33 80l79.001 68.0029c33.333 -50.667 83.333 -76 150 -76c35.333 0 67.666 10.667 96.999 32s44 50 44 86c0 29.333 -12 52.666 -36 69.999s-53.167 31 -87.5 41s-68.5 21.667 -102.5 35s-63 36 -87 68s-36 73.333 -36 124c0 22 4.66699 44.167 14 66.5
s23.166 43.5 41.499 63.5s43.5 36.333 75.5 49s68.333 19 109 19c92 0 160 -27 204 -81l-78 -71c-12 18.667 -29.167 33.667 -51.5 45s-47.166 17 -74.499 17c-48 0 -83 -11.167 -105 -33.5s-33 -47.166 -33 -74.499c0 -28 8.66699 -51 26 -69s38.833 -30.833 64.5 -38.5
s53.667 -16.834 84 -27.501s58.333 -21.834 84 -33.501s47.167 -31 64.5 -58s26 -60.5 26 -100.5c0 -66.667 -23.5 -119.834 -70.5 -159.501s-105.5 -59.5 -175.5 -59.5c-47.333 0 -91 8.16699 -131 24.5s-71.667 40.833 -95 73.5zM225.001 748.003l-112 144h87l78 -96
l74 96h91l-112 -144h-106z" />
    <glyph glyph-name="scaron" unicode="&#x161;" horiz-adv-x="444" 
d="M390 408l-69.999 -52.999c-25.333 31.333 -57.666 47 -96.999 47c-22 0 -40.667 -4.66699 -56 -14s-23 -22.333 -23 -39c0 -17.333 7.5 -31.5 22.5 -42.5s31.5 -18 49.5 -21s34.333 -6.5 49 -10.5c44.667 -10.667 78.834 -26 102.501 -46s35.5 -50.667 35.5 -92
c0 -50 -18.833 -87.333 -56.5 -112s-82.834 -37 -135.501 -37c-40.667 0 -75.667 6.33301 -105 19s-55.333 34.334 -78 65.001l68 56c37.333 -37.333 75.666 -56 114.999 -56c25.333 0 47.666 5.16699 66.999 15.5s29 25.166 29 44.499c0 12.667 -4.16699 23.667 -12.5 33
s-18.333 16.166 -30 20.499s-24 8.33301 -37 12s-24.5 6.16699 -34.5 7.5c-22.667 5.33301 -41.334 10.833 -56.001 16.5s-29.5 13.5 -44.5 23.5s-26.167 22.833 -33.5 38.5s-11 34.5 -11 56.5c0 46.667 17.833 82.667 53.5 108s77.834 38 126.501 38
c76.667 0 130.667 -26 162 -78zM169.001 564.001l-112 144h87l78 -96l74 96h91l-112 -144h-106z" />
    <glyph glyph-name="Ydieresis" unicode="&#x178;" horiz-adv-x="612" 
d="M258 0v302l-268 406h123l193 -311l199 311h117l-268 -406v-302h-96zM204 898c16 0 30.333 -5.5 43 -16.5s19 -24.5 19 -40.5c0 -18 -5.83301 -33 -17.5 -45s-26.5 -18 -44.5 -18s-32.833 6 -44.5 18s-17.5 27 -17.5 45c0 16 6.33301 29.5 19 40.5s27 16.5 43 16.5z
M408 898c16 0 30.333 -5.5 43 -16.5s19 -24.5 19 -40.5c0 -18 -5.83301 -33 -17.5 -45s-26.5 -18 -44.5 -18s-32.833 6 -44.5 18s-17.5 27 -17.5 45c0 16 6.33301 29.5 19 40.5s27 16.5 43 16.5z" />
    <glyph glyph-name="Zcaron" unicode="&#x17d;" horiz-adv-x="593" 
d="M32 0v90l403 528h-391v90h511v-90l-401 -528h407v-90h-529zM244 748l-112 144h87l78 -96l74 96h91l-112 -144h-106z" />
    <glyph glyph-name="zcaron" unicode="&#x17e;" horiz-adv-x="463" 
d="M35 0v81l269 315h-260v78h370v-80l-271 -316h285v-78h-393zM179 564l-112 144h87l78 -96l74 96h91l-112 -144h-106z" />
    <glyph glyph-name="florin" unicode="&#x192;" 
d="M449 425l-0.00292969 -72.001h-134l-73 -368c-7.33301 -39.333 -25.166 -70.666 -53.499 -93.999s-62.833 -35 -103.5 -35c-31.333 0 -63.666 8.33301 -96.999 25l38 71c21.333 -8 39.333 -12 54 -12c14 0 25.833 2.66699 35.5 8s17.167 13 22.5 23
s9.33301 19.167 12 27.5s5 18.5 7 30.5l63 324h-108v72h122l27 141c9.33301 46 27.833 83.167 55.5 111.5s60.167 42.5 97.5 42.5c48.667 0 87.667 -8 117 -24l-40 -75c-15.333 10 -34.666 15 -57.999 15c-19.333 0 -36.833 -8 -52.5 -24s-26.5 -41.333 -32.5 -76l-19 -111
h120z" />
    <glyph glyph-name="circumflex" unicode="&#x2c6;" horiz-adv-x="240" 
d="M285 564h-91l-74 96l-74 -96h-91l112 144h106z" />
    <glyph glyph-name="caron" unicode="&#x2c7;" horiz-adv-x="240" 
d="M67 564l-112 144h87l78 -96l74 96h91l-112 -144h-106z" />
    <glyph glyph-name="uni02C9" unicode="&#x2c9;" horiz-adv-x="240" 
d="M264 666v-66h-288v66h288z" />
    <glyph glyph-name="breve" unicode="&#x2d8;" horiz-adv-x="240" 
d="M-37 702h54.998c4 -24 15.5 -42 34.5 -54s41.833 -18 68.5 -18s49.5 6 68.5 18s30.5 30 34.5 54h53c-2.66699 -44.667 -18.167 -78.834 -46.5 -102.501s-65.166 -35.5 -110.499 -35.5s-82.166 11.833 -110.499 35.5s-43.833 57.834 -46.5 102.501z" />
    <glyph glyph-name="dotaccent" unicode="&#x2d9;" horiz-adv-x="240" 
d="M120 594c-18 0 -32.833 6 -44.5 18s-17.5 27 -17.5 45c0 16 6.33301 29.5 19 40.5s27 16.5 43 16.5s30.333 -5.5 43 -16.5s19 -24.5 19 -40.5c0 -18 -5.83301 -33 -17.5 -45s-26.5 -18 -44.5 -18z" />
    <glyph glyph-name="ring" unicode="&#x2da;" horiz-adv-x="240" 
d="M18 651c0 27.333 10.167 50.667 30.5 70s44.166 29 71.499 29c28 0 52.167 -9.5 72.5 -28.5s30.166 -42.167 29.499 -69.5c0.666992 -28 -9.16602 -51.5 -29.499 -70.5s-44.5 -28.5 -72.5 -28.5c-27.333 0 -51.166 9.5 -71.499 28.5s-30.5 42.167 -30.5 69.5z
M180 651.001c0 16 -6 29.5 -18 40.5s-26 16.5 -42 16.5s-30 -5.5 -42 -16.5s-18 -24.5 -18 -40.5c0 -15.333 6 -28.5 18 -39.5s26 -16.5 42 -16.5s30 5.5 42 16.5s18 24.167 18 39.5z" />
    <glyph glyph-name="ogonek" unicode="&#x2db;" horiz-adv-x="240" 
d="M193 -142l21.999 -44.001c-26 -23.333 -56.333 -35 -91 -35c-27.333 0 -50.5 7.5 -69.5 22.5s-28.833 35.833 -29.5 62.5c0 46.667 31 94.334 93 143.001h54c-50 -48 -75 -89.667 -75 -125c2.66699 -28.667 19 -43 49 -43c16.667 0 32.334 6.33301 47.001 19z" />
    <glyph glyph-name="tilde" unicode="&#x2dc;" horiz-adv-x="240" 
d="M0 576h-48.0029c4.66699 28.667 15.834 53.167 33.501 73.5s40.167 30.5 67.5 30.5c18.667 0 46.667 -7.66699 84 -23c8 -4 16.833 -7.83301 26.5 -11.5s18.834 -5.5 27.501 -5.5c24 0 40.333 14.667 49 44h48c-4.66699 -29.333 -14.667 -54 -30 -74
s-36.666 -30 -63.999 -30c-18.667 0 -45.667 7 -81 21c-31.333 12.667 -53.333 19 -66 19c-22 0 -37.667 -14.667 -47 -44z" />
    <glyph glyph-name="hungarumlaut" unicode="&#x2dd;" horiz-adv-x="240" 
d="M-50 564l104 144h127l-149 -144h-82zM119 564l104 144h127l-149 -144h-82z" />
    <glyph glyph-name="uni03A9" unicode="&#x3a9;" horiz-adv-x="716" 
d="M193 71v2.99805c-38.667 35.333 -70.5 79.333 -95.5 132s-37.5 111.334 -37.5 176.001c0 96.667 28.5 176.5 85.5 239.5s128.833 94.5 215.5 94.5c87.333 0 158 -32.667 212 -98s81 -142.333 81 -231c0 -66.667 -13 -127.334 -39 -182.001s-57.667 -98.334 -95 -131.001
v-3h148v-71h-245v53c40.667 26.667 74.834 67.334 102.501 122.001s41.5 119.667 41.5 195c-0.666992 45.333 -8.5 88.333 -23.5 129s-38.5 74.834 -70.5 102.501s-69.667 41.5 -113 41.5c-63.333 0 -114.5 -26.167 -153.5 -78.5s-58.5 -118.166 -58.5 -197.499
c0 -70.667 14.167 -134.5 42.5 -191.5s62.166 -97.833 101.499 -122.5v-53h-246v71h147z" />
    <glyph glyph-name="uni03BC" unicode="&#x3bc;" 
d="M68 -228l0.00195312 702h90v-280c0 -42 10.167 -72.833 30.5 -92.5s46.166 -29.5 77.499 -29.5c39.333 0 71.166 13.167 95.499 39.5s36.5 65.833 36.5 118.5v244h90v-474h-90v73h-2c-12 -25.333 -32 -45.833 -60 -61.5s-60 -23.5 -96 -23.5c-30.667 0 -58 6 -82 18v-234
h-90z" />
    <glyph glyph-name="pi" unicode="&#x3c0;" horiz-adv-x="577" 
d="M551 451h-78v-302c0 -62 4.66699 -111.667 14 -149h-84c-11.333 20.667 -17 68 -17 142v309h-171c-3.33301 -70.667 -11.833 -152.167 -25.5 -244.5s-29.167 -161.166 -46.5 -206.499h-84c18 53.333 33.667 124.666 47 213.999s21 168.333 23 237
c-51.333 0 -87.333 -4 -108 -12l-13 58c28.667 19.333 78 29 148 29h403z" />
    <glyph glyph-name="endash" unicode="&#x2013;" horiz-adv-x="500" 
d="M500 282v-78h-500v78h500z" />
    <glyph glyph-name="emdash" unicode="&#x2014;" horiz-adv-x="1000" 
d="M1000 282v-78h-1000v78h1000z" />
    <glyph glyph-name="quoteleft" unicode="&#x2018;" horiz-adv-x="278" 
d="M56 462l84 246h82l-69 -246h-97z" />
    <glyph glyph-name="quoteright" unicode="&#x2019;" horiz-adv-x="278" 
d="M222 708l-84 -246h-82l69 246h97z" />
    <glyph glyph-name="quotesinglbase" unicode="&#x201a;" horiz-adv-x="278" 
d="M222 114l-84 -246h-82l69 246h97z" />
    <glyph glyph-name="quotedblleft" unicode="&#x201c;" horiz-adv-x="519" 
d="M254 708l-69 -246h-97l84 246h82zM431 708l-69 -246h-97l84 246h82z" />
    <glyph glyph-name="quotedblright" unicode="&#x201d;" horiz-adv-x="519" 
d="M254 708l-84 -246h-82l69 246h97zM431 708l-84 -246h-82l69 246h97z" />
    <glyph glyph-name="quotedblbase" unicode="&#x201e;" horiz-adv-x="519" 
d="M254 114l-84 -246h-82l69 246h97zM431 114l-84 -246h-82l69 246h97z" />
    <glyph glyph-name="dagger" unicode="&#x2020;" 
d="M233 -126v553h-198v78h198v203h90v-203h198v-78h-198v-553h-90z" />
    <glyph glyph-name="daggerdbl" unicode="&#x2021;" 
d="M233 -126v192h-192v78h192v306h-192v78h192v180h90v-180h192v-78h-192v-306h192v-78h-192v-192h-90z" />
    <glyph glyph-name="bullet" unicode="&#x2022;" horiz-adv-x="500" 
d="M73 354c0 49.333 17.167 91.166 51.5 125.499s76.166 51.5 125.499 51.5s91.166 -17.167 125.499 -51.5s51.5 -76.166 51.5 -125.499s-17.167 -91.166 -51.5 -125.499s-76.166 -51.5 -125.499 -51.5s-91.166 17.167 -125.499 51.5s-51.5 76.166 -51.5 125.499z" />
    <glyph glyph-name="ellipsis" unicode="&#x2026;" horiz-adv-x="1000" 
d="M167 -6c-18 0 -33.5 6.5 -46.5 19.5s-19.5 28.5 -19.5 46.5s6.5 33.5 19.5 46.5s28.5 19.5 46.5 19.5s33.5 -6.5 46.5 -19.5s19.5 -28.5 19.5 -46.5s-6.5 -33.5 -19.5 -46.5s-28.5 -19.5 -46.5 -19.5zM500 -6c-18 0 -33.5 6.5 -46.5 19.5s-19.5 28.5 -19.5 46.5
s6.5 33.5 19.5 46.5s28.5 19.5 46.5 19.5s33.5 -6.5 46.5 -19.5s19.5 -28.5 19.5 -46.5s-6.5 -33.5 -19.5 -46.5s-28.5 -19.5 -46.5 -19.5zM833 -6c-18 0 -33.5 6.5 -46.5 19.5s-19.5 28.5 -19.5 46.5s6.5 33.5 19.5 46.5s28.5 19.5 46.5 19.5s33.5 -6.5 46.5 -19.5
s19.5 -28.5 19.5 -46.5s-6.5 -33.5 -19.5 -46.5s-28.5 -19.5 -46.5 -19.5z" />
    <glyph glyph-name="perthousand" unicode="&#x2030;" horiz-adv-x="1056" 
d="M507 -18c-44.667 0 -82.834 15.833 -114.501 47.5s-47.5 70.167 -47.5 115.5c0 44.667 15.833 82.834 47.5 114.501s69.834 47.5 114.501 47.5c45.333 0 83.833 -15.833 115.5 -47.5s47.5 -69.834 47.5 -114.501s-16 -83 -48 -115s-70.333 -48 -115 -48zM507 54
c24.667 0 46 9 64 27s27 39.333 27 64s-8.83301 45.834 -26.5 63.501s-39.167 26.5 -64.5 26.5c-24.667 0 -45.834 -8.83301 -63.501 -26.5s-26.5 -38.834 -26.5 -63.501c0 -25.333 8.83301 -46.833 26.5 -64.5s38.834 -26.5 63.501 -26.5zM711 145
c0 44.667 15.833 82.834 47.5 114.501s69.834 47.5 114.501 47.5c45.333 0 83.833 -15.833 115.5 -47.5s47.5 -69.834 47.5 -114.501s-16 -83 -48 -115s-70.333 -48 -115 -48s-82.834 15.833 -114.501 47.5s-47.5 70.167 -47.5 115.5zM873 54c24.667 0 46 9 64 27
s27 39.333 27 64s-8.83301 45.834 -26.5 63.501s-39.167 26.5 -64.5 26.5c-24.667 0 -45.834 -8.83301 -63.501 -26.5s-26.5 -38.834 -26.5 -63.501c0 -25.333 8.83301 -46.833 26.5 -64.5s38.834 -26.5 63.501 -26.5zM20 558c0 45.333 15.6689 83.668 47.002 115.001
s69.666 47 114.999 47s83.833 -15.833 115.5 -47.5s47.5 -69.834 47.5 -114.501c0 -45.333 -15.833 -83.833 -47.5 -115.5s-70.167 -47.5 -115.5 -47.5c-44.667 0 -82.834 15.833 -114.501 47.5s-47.5 70.167 -47.5 115.5zM92.002 558.002
c0 -25.333 8.83105 -46.835 26.498 -64.502s38.834 -26.5 63.501 -26.5c25.333 0 46.833 8.83301 64.5 26.5s26.5 39.167 26.5 64.5c0 24.667 -8.83301 45.834 -26.5 63.501s-39.167 26.5 -64.5 26.5s-46.666 -8.66699 -63.999 -26s-26 -38.666 -26 -63.999zM598 710
l-443 -741l-62 31l445 740z" />
    <glyph glyph-name="guilsinglleft" unicode="&#x2039;" horiz-adv-x="315" 
d="M200 27l-146 216l145 216l62 -41l-117 -175l118 -175z" />
    <glyph glyph-name="guilsinglright" unicode="&#x203a;" horiz-adv-x="315" 
d="M116 27l-62 41l117 175l-118 175l62 41l146 -216z" />
    <glyph glyph-name="fraction" unicode="&#x2044;" horiz-adv-x="167" 
d="M333 708l-439 -740l-60 32l439 740z" />
    <glyph glyph-name="Euro" unicode="&#x20ac;" 
d="M525 684l-21.002 -74.9971c-30.667 22.667 -74.334 34 -131.001 34c-92.667 0 -153.334 -53.333 -182.001 -160h276l-17 -67h-271c-2.66699 -20.667 -4 -45 -4 -73v-25c0 -10.667 0.333008 -18.334 1 -23.001h242l-17 -65h-219
c8.66699 -56.667 26.334 -98.834 53.001 -126.501s64.667 -41.5 114 -41.5c50.667 0 92.334 19.667 125.001 59l49 -49c-18.667 -24.667 -43.667 -44.834 -75 -60.501s-65.666 -23.5 -102.999 -23.5c-141.333 0 -224.666 80.667 -249.999 242h-72l19 65h46
c-0.666992 5.33301 -1 13.333 -1 24v27c0 24.667 1 48 3 70h-66l21 67h57c18 78 51.333 137 100 177s107 60 175 60c58.667 0 108 -12 148 -36z" />
    <glyph glyph-name="afii61289" unicode="&#x2113;" horiz-adv-x="492" 
d="M430 158l38.999 -36.0029c-44.667 -86 -108.334 -129 -191.001 -129c-54.667 0 -95.667 16.833 -123 50.5s-42.666 77.5 -45.999 131.5v13l-56 -46l-25 49l80 70v271c0 84.667 15.333 146.834 46 186.501s68.667 59.5 114 59.5c41.333 0 72.833 -15.667 94.5 -47
s32.5 -71.333 32.5 -120c0 -110 -68 -232 -204 -366v-36c0.666992 -49.333 10.834 -86.166 30.501 -110.499s44.5 -36.5 74.5 -36.5c28 0 53.5 9.33301 76.5 28s42.167 41.334 57.5 68.001zM190.999 536.997l-0.000976562 -208c97.333 108 146 202 146 282
c0 68 -22.667 102 -68 102c-21.333 0 -39.666 -14 -54.999 -42s-23 -72.667 -23 -134z" />
    <glyph glyph-name="trademark" unicode="&#x2122;" horiz-adv-x="1000" 
d="M158 296v346h-124v66h326v-66h-124v-346h-78zM439 296v412h119l111 -316h3l111 316h119v-412h-78v344h-2l-120 -344h-63l-120 344h-2v-344h-78z" />
    <glyph glyph-name="Omega" unicode="&#x2126;" horiz-adv-x="716" 
d="M193 71v2.99805c-38.667 35.333 -70.5 79.333 -95.5 132s-37.5 111.334 -37.5 176.001c0 96.667 28.5 176.5 85.5 239.5s128.833 94.5 215.5 94.5c87.333 0 158 -32.667 212 -98s81 -142.333 81 -231c0 -66.667 -13 -127.334 -39 -182.001s-57.667 -98.334 -95 -131.001
v-3h148v-71h-245v53c40.667 26.667 74.834 67.334 102.501 122.001s41.5 119.667 41.5 195c-0.666992 45.333 -8.5 88.333 -23.5 129s-38.5 74.834 -70.5 102.501s-69.667 41.5 -113 41.5c-63.333 0 -114.5 -26.167 -153.5 -78.5s-58.5 -118.166 -58.5 -197.499
c0 -70.667 14.167 -134.5 42.5 -191.5s62.166 -97.833 101.499 -122.5v-53h-246v71h147z" />
    <glyph glyph-name="estimated" unicode="&#x212e;" horiz-adv-x="883" 
d="M847 344l-657.999 -0.00292969c-3.33301 0 -5 -1.66699 -5 -5v-199c0 -8 2.66699 -15.667 8 -23c70 -72 153 -108 249 -108c51.333 0 99.666 10.833 144.999 32.5s84.333 51.167 117 88.5h59c-37.333 -43.333 -84.333 -77.666 -141 -102.999s-117 -38 -181 -38
c-112 0 -207.667 35.667 -287 107s-119 157.333 -119 258s39.667 186.834 119 258.501s175 107.5 287 107.5c112.667 0 208.667 -35.667 288 -107s119 -157.666 119 -258.999v-10zM698.001 369.997v199.999c0 9.33301 -3.33301 17.333 -10 24
c-70.667 69.333 -153 104 -247 104c-95.333 0 -178 -35.667 -248 -107c-6 -7.33301 -9 -15.666 -9 -24.999v-196c0 -4.66699 1.66699 -7 5 -7h505c2.66699 0 4 2.33301 4 7z" />
    <glyph glyph-name="partialdiff" unicode="&#x2202;" horiz-adv-x="552" 
d="M102 672l-27.998 64c48 38 104.667 57 170 57c72 0 133 -33 183 -99s75 -160.333 75 -283c0 -124.667 -23.167 -225.667 -69.5 -303s-111.5 -116 -195.5 -116c-62 0 -110 23.5 -144 70.5s-51 101.833 -51 164.5c0 77.333 20.667 139.833 62 187.5
s91.666 71.5 150.999 71.5c39.333 0 73.166 -10.167 101.499 -30.5s48.166 -40.833 59.499 -61.5h1c0.666992 7.33301 1 21.333 1 42c0 82 -17.667 150 -53 204s-78.666 81 -129.999 81c-48.667 0 -93 -16.333 -133 -49zM245.002 65h1c42.667 0 78.5 24.333 107.5 73
s46.833 106.667 53.5 174c-8 24.667 -24.5 48.167 -49.5 70.5s-54.167 33.5 -87.5 33.5c-39.333 0 -73 -18.667 -101 -56s-42 -82 -42 -134c0 -47.333 10.833 -86 32.5 -116s50.167 -45 85.5 -45z" />
    <glyph glyph-name="Delta" unicode="&#x2206;" horiz-adv-x="649" 
d="M30 0v57l246 666h101l241 -665v-58h-588zM119 71h407.001l-137 366c-4.66699 15.333 -15.334 46.166 -32.001 92.499s-27.334 77.833 -32.001 94.5h-4c-3.33301 -14 -12.666 -42.167 -27.999 -84.5s-25.333 -71.166 -30 -86.499z" />
    <glyph glyph-name="product" unicode="&#x220f;" horiz-adv-x="704" 
d="M677 626h-107v-723h-86v723h-266v-723h-85v723h-107v79h651v-79z" />
    <glyph glyph-name="summation" unicode="&#x2211;" horiz-adv-x="554" 
d="M532 -97h-509v57l263 343l-252 341v61h483v-74h-364v-4l231 -311l-252 -328v-4h400v-81z" />
    <glyph glyph-name="minus" unicode="&#x2212;" horiz-adv-x="666" 
d="M66 342h534v-78h-534v78z" />
    <glyph glyph-name="uni2215" unicode="&#x2215;" horiz-adv-x="167" 
d="M333 708l-439 -740l-60 32l439 740z" />
    <glyph glyph-name="uni2219" unicode="&#x2219;" horiz-adv-x="278" 
d="M73 303c0 18 6.5 33.5 19.5 46.5s28.5 19.5 46.5 19.5s33.5 -6.5 46.5 -19.5s19.5 -28.5 19.5 -46.5s-6.5 -33.5 -19.5 -46.5s-28.5 -19.5 -46.5 -19.5s-33.5 6.5 -46.5 19.5s-19.5 28.5 -19.5 46.5z" />
    <glyph glyph-name="radical" unicode="&#x221a;" horiz-adv-x="577" 
d="M578 840l-222.001 -988.999h-74l-158 463l-74 -28l-16 51l144 57l122 -363c1.33301 -7.33301 4.33301 -20 9 -38s7.66699 -31 9 -39h1c0.666992 6 1.83398 13.167 3.50098 21.5s3.5 18.166 5.5 29.499s3.66699 20.333 5 27l183 808h62z" />
    <glyph glyph-name="infinity" unicode="&#x221e;" horiz-adv-x="780" 
d="M729 293v-1.00293c0 -48 -15.333 -87.167 -46 -117.5s-67 -45.5 -109 -45.5c-30.667 0 -60 9.33301 -88 28s-59.667 49 -95 91c-22 -25.333 -40.5 -45.333 -55.5 -60s-34.5 -28.167 -58.5 -40.5s-49 -18.5 -75 -18.5c-41.333 0 -77 15.333 -107 46
s-45 68.334 -45 113.001c0 46.667 15.167 85.334 45.5 116.001s68.166 46 113.499 46c34.667 0 66.334 -10.167 95.001 -30.5s58.667 -49.5 90 -87.5c8 9.33301 16.5 18.666 25.5 27.999l26 27c8.33301 8.66699 17.833 16.834 28.5 24.501s21.167 14.334 31.5 20.001
s22 10.167 35 13.5s26.5 5 40.5 5c43.333 0 78.833 -14.5 106.5 -43.5s41.5 -66.833 41.5 -113.5zM209 181.997h1.00098c14.667 0 29.5 3.33301 44.5 10s28.333 15.167 40 25.5s23.5 21.666 35.5 33.999s22.667 23.833 32 34.5c-20.667 26 -36.167 44.833 -46.5 56.5
s-26 24 -47 37s-42.5 19.5 -64.5 19.5c-30.667 0 -54.834 -10.667 -72.501 -32s-26.5 -48 -26.5 -80c0 -29.333 9.83301 -54.166 29.5 -74.499s44.5 -30.5 74.5 -30.5zM575.001 398.997h-1.00293c-20 0 -40.333 -6.66699 -61 -20s-37.667 -28 -51 -44
s-26.666 -30.667 -39.999 -44c35.333 -40.667 63.833 -69 85.5 -85s44.834 -24 69.501 -24c29.333 0 52.833 10.833 70.5 32.5s26.5 46.167 26.5 73.5c0 34 -9.16699 61 -27.5 81s-42.166 30 -71.499 30z" />
    <glyph glyph-name="integral" unicode="&#x222b;" horiz-adv-x="367" 
d="M349 851l-12.999 -61.002c-10 6.66699 -22 10 -36 10c-22 0 -39 -8 -51 -24c-21.333 -26.667 -32 -86 -32 -178c0 -52 2.33301 -134.667 7 -248s7 -198.333 7 -255c0 -90.667 -14 -158.667 -42 -204c-22 -37.333 -57.333 -56 -106 -56c-25.333 0 -48 5.33301 -68 16
l14 63c18 -8 33 -12 45 -12c18.667 0 34 7.66699 46 23c21.333 28 32 84.667 32 170c0 57.333 -2.33301 143.5 -7 258.5s-7 199.167 -7 252.5c0 56.667 4.16699 101.834 12.5 135.501s22.5 60.834 42.5 81.501c25.333 27.333 58.666 41 99.999 41
c21.333 0 40 -4.33301 56 -13z" />
    <glyph glyph-name="approxequal" unicode="&#x2248;" horiz-adv-x="561" 
d="M481 439l34.001 -30c-33.333 -65.333 -76.666 -98 -129.999 -98c-18.667 0 -35.834 3.16699 -51.501 9.5s-37.167 17.166 -64.5 32.499c-39.333 22.667 -70 34 -92 34c-20.667 0 -38.334 -6.33301 -53.001 -19s-29.667 -31 -45 -55l-35 29
c15.333 30 35.166 53.833 59.499 71.5s50.833 26.5 79.5 26.5c20.667 0 41.834 -5 63.501 -15s37.5 -18.333 47.5 -25c12.667 -6.66699 23.5 -12.667 32.5 -18s18.667 -9.66602 29 -12.999s20.833 -5 31.5 -5c19.333 0 36 6 50 18s28.667 31 44 57zM481.001 264
l34.001 -29.998c-33.333 -64.667 -76.666 -97 -129.999 -97c-18.667 0 -35.834 3.16699 -51.501 9.5s-37.167 17.166 -64.5 32.499c-39.333 22.667 -70 34 -92 34c-21.333 0 -39 -6.33301 -53 -19s-29 -31.334 -45 -56.001l-35 30c15.333 30 35.166 53.833 59.499 71.5
s50.833 26.5 79.5 26.5c21.333 0 42.833 -5 64.5 -15s37.167 -18.333 46.5 -25c12 -6 22.333 -11.667 31 -17s18.5 -9.83301 29.5 -13.5s21.833 -5.5 32.5 -5.5c19.333 0 36 6 50 18s28.667 30.667 44 56z" />
    <glyph glyph-name="notequal" unicode="&#x2260;" horiz-adv-x="561" 
d="M401 509l-44 -96h153v-54h-174l-66 -145h240v-54h-261l-53 -117l-43 19l44 98h-147v54h169l65 145h-234v54h256l52 115z" />
    <glyph glyph-name="lessequal" unicode="&#x2264;" horiz-adv-x="561" 
d="M507 98l-451 226v58l451 226v-65l-394 -188v-2l394 -190v-65zM510 2h-459v56h459v-56z" />
    <glyph glyph-name="greaterequal" unicode="&#x2265;" horiz-adv-x="561" 
d="M57 608l451 -226v-58l-451 -226v65l394 189v2l-394 189v65zM509 2h-457v56h457v-56z" />
    <glyph glyph-name="lozenge" unicode="&#x25ca;" horiz-adv-x="577" 
d="M523 352l-201 -398h-70l-198 398l201 399h70zM445 350l-137 272.999c-9.33301 24.667 -15.333 43 -18 55h-3c-8 -25.333 -14.667 -43.666 -20 -54.999l-135 -269l137 -276c9.33301 -24 15 -41.667 17 -53h4c8.66699 28 14.667 45.333 18 52z" />
    <glyph glyph-name=".null" horiz-adv-x="0" 
 />
    <glyph glyph-name="nonmarkingreturn" horiz-adv-x="333" 
 />
    </font>
</defs>
</svg>
